<svg xmlns="http://www.w3.org/2000/svg" id="Layer_1" data-name="Layer 1" viewBox="0 0 184.26001 277.79004"><path d="M32.095,152.12829c-1.59,0-2.26,1.34-2.26,4.56,0,3.25.67,4.57,2.29,4.57,1.65,0,2.33-1.35,2.33-4.54C34.455,153.41833,33.775,152.12829,32.095,152.12829Zm0,0c-1.59,0-2.26,1.34-2.26,4.56,0,3.25.67,4.57,2.29,4.57,1.65,0,2.33-1.35,2.33-4.54C34.455,153.41833,33.775,152.12829,32.095,152.12829Zm0,0c-1.59,0-2.26,1.34-2.26,4.56,0,3.25.67,4.57,2.29,4.57,1.65,0,2.33-1.35,2.33-4.54C34.455,153.41833,33.775,152.12829,32.095,152.12829Zm36.63,0a3.07361,3.07361,0,0,0-2.19,1.01v7.72a3.59408,3.59408,0,0,0,1.96.54c1.82,0,2.47-1.24,2.47-4.82C70.965,153.49828,70.265,152.12829,68.725,152.12829Zm0,0a3.07361,3.07361,0,0,0-2.19,1.01v7.72a3.59408,3.59408,0,0,0,1.96.54c1.82,0,2.47-1.24,2.47-4.82C70.965,153.49828,70.265,152.12829,68.725,152.12829Zm-36.63,0c-1.59,0-2.26,1.34-2.26,4.56,0,3.25.67,4.57,2.29,4.57,1.65,0,2.33-1.35,2.33-4.54C34.455,153.41833,33.775,152.12829,32.095,152.12829Zm0,0c-1.59,0-2.26,1.34-2.26,4.56,0,3.25.67,4.57,2.29,4.57,1.65,0,2.33-1.35,2.33-4.54C34.455,153.41833,33.775,152.12829,32.095,152.12829Zm36.63,0a3.07361,3.07361,0,0,0-2.19,1.01v7.72a3.59408,3.59408,0,0,0,1.96.54c1.82,0,2.47-1.24,2.47-4.82C70.965,153.49828,70.265,152.12829,68.725,152.12829Zm11.03,7.45a1.83545,1.83545,0,0,0,1.79,1.93,2.91084,2.91084,0,0,0,2.13-1.09v-3.08C80.87494,157.33831,79.75494,157.9483,79.75494,159.5783Zm0,0a1.83545,1.83545,0,0,0,1.79,1.93,2.91084,2.91084,0,0,0,2.13-1.09v-3.08C80.87494,157.33831,79.75494,157.9483,79.75494,159.5783Zm-11.03-7.45a3.07361,3.07361,0,0,0-2.19,1.01v7.72a3.59408,3.59408,0,0,0,1.96.54c1.82,0,2.47-1.24,2.47-4.82C70.965,153.49828,70.265,152.12829,68.725,152.12829Zm-36.63,0c-1.59,0-2.26,1.34-2.26,4.56,0,3.25.67,4.57,2.29,4.57,1.65,0,2.33-1.35,2.33-4.54C34.455,153.41833,33.775,152.12829,32.095,152.12829Zm0,0c-1.59,0-2.26,1.34-2.26,4.56,0,3.25.67,4.57,2.29,4.57,1.65,0,2.33-1.35,2.33-4.54C34.455,153.41833,33.775,152.12829,32.095,152.12829Zm36.63,0a3.07361,3.07361,0,0,0-2.19,1.01v7.72a3.59408,3.59408,0,0,0,1.96.54c1.82,0,2.47-1.24,2.47-4.82C70.965,153.49828,70.265,152.12829,68.725,152.12829Zm11.03,7.45a1.83545,1.83545,0,0,0,1.79,1.93,2.91084,2.91084,0,0,0,2.13-1.09v-3.08C80.87494,157.33831,79.75494,157.9483,79.75494,159.5783Zm23.35,0a1.84169,1.84169,0,0,0,1.79,1.93,2.9109,2.9109,0,0,0,2.13-1.09v-3.08C104.225,157.33831,103.10492,157.9483,103.10492,159.5783Zm0,0a1.84169,1.84169,0,0,0,1.79,1.93,2.9109,2.9109,0,0,0,2.13-1.09v-3.08C104.225,157.33831,103.10492,157.9483,103.10492,159.5783Zm-23.35,0a1.83545,1.83545,0,0,0,1.79,1.93,2.91084,2.91084,0,0,0,2.13-1.09v-3.08C80.87494,157.33831,79.75494,157.9483,79.75494,159.5783Zm-11.03-7.45a3.07361,3.07361,0,0,0-2.19,1.01v7.72a3.59408,3.59408,0,0,0,1.96.54c1.82,0,2.47-1.24,2.47-4.82C70.965,153.49828,70.265,152.12829,68.725,152.12829Zm-36.63,0c-1.59,0-2.26,1.34-2.26,4.56,0,3.25.67,4.57,2.29,4.57,1.65,0,2.33-1.35,2.33-4.54C34.455,153.41833,33.775,152.12829,32.095,152.12829Zm0,0c-1.59,0-2.26,1.34-2.26,4.56,0,3.25.67,4.57,2.29,4.57,1.65,0,2.33-1.35,2.33-4.54C34.455,153.41833,33.775,152.12829,32.095,152.12829Zm36.63,0a3.07361,3.07361,0,0,0-2.19,1.01v7.72a3.59408,3.59408,0,0,0,1.96.54c1.82,0,2.47-1.24,2.47-4.82C70.965,153.49828,70.265,152.12829,68.725,152.12829Zm11.03,7.45a1.83545,1.83545,0,0,0,1.79,1.93,2.91084,2.91084,0,0,0,2.13-1.09v-3.08C80.87494,157.33831,79.75494,157.9483,79.75494,159.5783Zm23.35,0a1.84169,1.84169,0,0,0,1.79,1.93,2.9109,2.9109,0,0,0,2.13-1.09v-3.08C104.225,157.33831,103.10492,157.9483,103.10492,159.5783Zm0,0a1.84169,1.84169,0,0,0,1.79,1.93,2.9109,2.9109,0,0,0,2.13-1.09v-3.08C104.225,157.33831,103.10492,157.9483,103.10492,159.5783Zm-23.35,0a1.83545,1.83545,0,0,0,1.79,1.93,2.91084,2.91084,0,0,0,2.13-1.09v-3.08C80.87494,157.33831,79.75494,157.9483,79.75494,159.5783Zm-11.03-7.45a3.07361,3.07361,0,0,0-2.19,1.01v7.72a3.59408,3.59408,0,0,0,1.96.54c1.82,0,2.47-1.24,2.47-4.82C70.965,153.49828,70.265,152.12829,68.725,152.12829Zm-36.63,0c-1.59,0-2.26,1.34-2.26,4.56,0,3.25.67,4.57,2.29,4.57,1.65,0,2.33-1.35,2.33-4.54C34.455,153.41833,33.775,152.12829,32.095,152.12829Zm0,0c-1.59,0-2.26,1.34-2.26,4.56,0,3.25.67,4.57,2.29,4.57,1.65,0,2.33-1.35,2.33-4.54C34.455,153.41833,33.775,152.12829,32.095,152.12829Zm36.63,0a3.07361,3.07361,0,0,0-2.19,1.01v7.72a3.59408,3.59408,0,0,0,1.96.54c1.82,0,2.47-1.24,2.47-4.82C70.965,153.49828,70.265,152.12829,68.725,152.12829Zm11.03,7.45a1.83545,1.83545,0,0,0,1.79,1.93,2.91084,2.91084,0,0,0,2.13-1.09v-3.08C80.87494,157.33831,79.75494,157.9483,79.75494,159.5783Zm23.35,0a1.84169,1.84169,0,0,0,1.79,1.93,2.9109,2.9109,0,0,0,2.13-1.09v-3.08C104.225,157.33831,103.10492,157.9483,103.10492,159.5783Zm47.38-7.73c-1.43,0-2.07995.89-2.32995,3.19h4.37C152.465,152.71831,151.905,151.84832,150.48492,151.84832Zm0,0c-1.43,0-2.07995.89-2.32995,3.19h4.37C152.465,152.71831,151.905,151.84832,150.48492,151.84832Zm-47.38,7.73a1.84169,1.84169,0,0,0,1.79,1.93,2.9109,2.9109,0,0,0,2.13-1.09v-3.08C104.225,157.33831,103.10492,157.9483,103.10492,159.5783Zm-23.35,0a1.83545,1.83545,0,0,0,1.79,1.93,2.91084,2.91084,0,0,0,2.13-1.09v-3.08C80.87494,157.33831,79.75494,157.9483,79.75494,159.5783Zm-11.03-7.45a3.07361,3.07361,0,0,0-2.19,1.01v7.72a3.59408,3.59408,0,0,0,1.96.54c1.82,0,2.47-1.24,2.47-4.82C70.965,153.49828,70.265,152.12829,68.725,152.12829Zm-36.63,0c-1.59,0-2.26,1.34-2.26,4.56,0,3.25.67,4.57,2.29,4.57,1.65,0,2.33-1.35,2.33-4.54C34.455,153.41833,33.775,152.12829,32.095,152.12829Zm135.73-152.13H16.445c-9.08,0-16.43,7.71-16.43,17.23v150.56c0,.1,0,.21.01.31v.08c0,.12.01.24.02.36,0,.15.01.31.02.46v.02c.02.26.04.53.08.79,0,.03.01.05.01.08a.50378.50378,0,0,0,.02.12.48615.48615,0,0,0,.01.12.06018.06018,0,0,0,.01.04,5.35128,5.35128,0,0,0,.11.68,3.5819,3.5819,0,0,0,.09.45c.06.28.13.56.2.84a4.88794,4.88794,0,0,0,.19995.65c.03.11.07.22.11005.33a.696.696,0,0,0,.06.18994,3.03888,3.03888,0,0,0,.13995.39c.04.09.08.19.12006.28a2.74456,2.74456,0,0,0,.15.36c.07.18.15.35.24.53.04.09.08.17.12.26.03.05.05.1.08.15q.195.405.42.78v.01c.2.34.42005.67.64,1a.20837.20837,0,0,0,.04.06.18624.18624,0,0,0,.06.07c.03.05.06.1.09.14.07.1.14.2.21.29a6.25621,6.25621,0,0,0,.39.51c.21.27.43994.53.67.78.12.13.24.26.36.38.22.23.45.45.69.67h.01a15.537,15.537,0,0,0,1.86,1.46c.22.15.44.29.67.43.45.27.91.53,1.39.76a16.39524,16.39524,0,0,0,7.13,1.62h151.38a16.39524,16.39524,0,0,0,7.13-1.62c.48-.23.94-.49,1.39-.76.23-.14.45-.28.67-.43a15.53626,15.53626,0,0,0,1.86-1.46c.2-.18.39-.36.57-.55a16.42568,16.42568,0,0,0,4.81-11.63v-33.13h.01v-117.43C184.265,7.70831,176.905-.00172,167.825-.00172Zm-142.81,151.2-.98,1.8a.34406.34406,0,0,1-.25.19.45568.45568,0,0,1-.28-.11,3.523,3.523,0,0,0-2.38-.95c-1.91,0-2.77,1.45-2.77,4.7,0,3.05.86005,4.43,2.8,4.43a4.05945,4.05945,0,0,0,2.29-.79.63712.63712,0,0,1,.31-.14c.08,0,.17.09.22.2l.68,1.71a.69585.69585,0,0,1,.08.33c0,.7-2.16,1.51-4.06,1.51-3.81,0-6.02-2.6-6.02-7.11,0-4.76,2.46-7.67,6.47-7.67,1.71,0,3.97.9,3.97,1.6A.64177.64177,0,0,1,25.015,151.1983Zm7.14,12.88c-3.84,0-6.1-2.74-6.1-7.39a8.06343,8.06343,0,0,1,1.62-5.35,5.47261,5.47261,0,0,1,4.59-2.04c3.67,0,5.97,2.83,5.97,7.36C38.23492,161.22832,35.905,164.0783,32.155,164.0783Zm26.94-.95c0,.42-.06.48-.48.48h-2.58c-.42,0-.47-.06-.47-.48v-8.87c0-1.57-.34-2.16-1.26-2.16a3.55122,3.55122,0,0,0-2.41,1.26v9.77c0,.42-.06.48-.48.48h-2.54c-.42,0-.48-.06-.48-.48v-8.59c0-1.85-.28-2.38-1.29-2.38a3.751,3.751,0,0,0-2.41,1.2v9.77c0,.42-.05.48-.47.48h-2.55c-.42,0-.48-.06-.48-.48v-9.41a6.95208,6.95208,0,0,0-.5-3.02.64933.64933,0,0,1-.08-.31.36468.36468,0,0,1,.3-.33l2.27-.76a2.44624,2.44624,0,0,1,.28-.06c.31,0,.65.79.9,2.02,1.54-1.43,2.66-1.96,4.17-1.96a3.05864,3.05864,0,0,1,3.05,1.96c1.6-1.46,2.75-1.96,4.31-1.96a2.84262,2.84262,0,0,1,2.69,1.4,6.52348,6.52348,0,0,1,.51,3.22Zm10.3.95a5.39232,5.39232,0,0,1-2.86-.72v5.06c0,.4-.02.42-.42.51l-2.6.56-.28.03c-.2,0-.25-.12-.25-.45v-15.4a6.36387,6.36387,0,0,0-.56-2.77.87164.87164,0,0,1-.06-.23c0-.11005.06-.17005.28-.25l2.44-1.04a.69272.69272,0,0,1,.25-.08c.25,0,.56.59.78,1.46a4.9095,4.9095,0,0,1,3.56-1.46c3.16,0,4.84,2.52,4.84,7.17Q74.515,164.07333,69.395,164.0783Zm18.12-.98-2.19.87a.68384.68384,0,0,1-.33.09c-.26,0-.54-.54-.84-1.66a4.55084,4.55084,0,0,1-3.59,1.6,3.9353,3.9353,0,0,1-4.2-4.23c0-2.49,1.35-3.95,4.17-4.51a18.3696,18.3696,0,0,1,3.14-.25v-.87c0-1.59-.45-2.1-1.85-2.1a9.27906,9.27906,0,0,0-3.13.73.74423.74423,0,0,1-.31.09c-.14,0-.23-.09-.28-.28l-.59-1.68a1.20846,1.20846,0,0,1-.06-.31c0-.59,2.55-1.29,4.79-1.29,2.21,0,3.73005.73,4.37,2.16a5.15919,5.15919,0,0,1,.39,2.32v5.71a6.22534,6.22534,0,0,0,.65,3.03.79157.79157,0,0,1,.07995.3A.30339.30339,0,0,1,87.515,163.09832Zm11.59-12.88-.87,2.27c-.06.17-.13995.25-.22.25a.58316.58316,0,0,1-.2-.05,3.44512,3.44512,0,0,0-1.12-.23,3.24128,3.24128,0,0,0-2.13,1.35v9.32c0,.42-.05.48-.47.48H91.48492c-.42,0-.47-.06-.47-.48v-8.51a7.959,7.959,0,0,0-.84-3.89.82538.82538,0,0,1-.06-.25c0-.12.11005-.23.28-.28l2.27-.82a.69572.69572,0,0,1,.32995-.08c.34,0,.76.84,1.07,2.18.59-.67.67-.81.95-1.09a3.5938,3.5938,0,0,1,2.55-1.09c.84,0,1.59.31,1.59.62A1.24492,1.24492,0,0,1,99.10492,150.21831Zm11.76,12.88-2.19.87a.68362.68362,0,0,1-.33.09c-.25,0-.53-.54-.84-1.66a4.55077,4.55077,0,0,1-3.59,1.6,3.9353,3.9353,0,0,1-4.2-4.23c0-2.49,1.35-3.95,4.18-4.51a18.12847,18.12847,0,0,1,3.13-.25v-.87c0-1.59-.45-2.1-1.85-2.1a9.27973,9.27973,0,0,0-3.13.73.74419.74419,0,0,1-.31.09c-.13995,0-.22-.09-.28-.28l-.59-1.68a1.17787,1.17787,0,0,1-.05-.31c0-.59,2.54-1.29,4.78-1.29,2.22,0,3.73.73,4.37,2.16a5.16027,5.16027,0,0,1,.39,2.32v5.71a6.226,6.226,0,0,0,.65,3.03.79184.79184,0,0,1,.08.3A.30347.30347,0,0,1,110.86493,163.09832Zm10.8.51a9.10835,9.10835,0,0,1-2.82.47,3.56457,3.56457,0,0,1-3.17-1.42,4.781,4.781,0,0,1-.61-2.97v-7.31h-1.94c-.42,0-.47-.06-.47-.48v-1.65c0-.42.05-.47.47-.47h1.94v-3.53c0-.38995.05-.45.45-.51l2.57-.36h.25c.2,0,.28.11.28.45v3.95h3.19c.37,0,.48.05.48.28a.7424.7424,0,0,1-.03.25l-.36,1.65c-.09.34-.17.42-.51.42h-2.77v6.8c0,1.49.2,1.8,1.04,1.8a4.10306,4.10306,0,0,0,1.85-.48.70616.70616,0,0,1,.25-.06c.14,0,.22.12.28.28l.45,1.96a.99291.99291,0,0,1,.05.31C122.535,163.2683,122.36493,163.37829,121.665,163.60833Zm7.44995-.48c0,.42-.05.48-.47.48h-2.61c-.42,0-.47-.06-.47-.48v-10.75h-2.13c-.42,0-.48-.06-.48-.48v-1.65c0-.42.06-.47.48-.47h5.21c.42,0,.47.05.47.47Zm-1.87-15.19995a2.27006,2.27006,0,1,1,2.27-2.27A2.26865,2.26865,0,0,1,127.24493,147.92834Zm16.49,2.55-4.65,13.3c-.11.33-.17.36-.53.36h-2.3c-.36,0-.42-.03-.53-.36l-4.56-13.3a.83145.83145,0,0,1-.09-.31c0-.17005.11-.25.45-.28l2.74-.28.23-.03c.17005,0,.25.08.33.39l1.8,6.41c.3,1.07.58,2.36.92,4.04.31-1.49.67005-3.03.98-4.04l1.96-6.41c.08-.31.17005-.39.34-.39a.947.947,0,0,1,.22.03l2.32.28c.31.03.42.11.42.28A1.40139,1.40139,0,0,1,143.73492,150.47832Zm11.9,7.16h-7.53c.05,2.41,1.03,3.53,3.1,3.53a6.97307,6.97307,0,0,0,3.2-.87.79144.79144,0,0,1,.36-.11c.14,0,.22.09.31.25l.7,1.68a.54124.54124,0,0,1,.08.31c0,.31-.22.48-1.15.87a9.549,9.549,0,0,1-3.86.78,5.96685,5.96685,0,0,1-4.17-1.37,7.90855,7.90855,0,0,1-2.1-5.91c0-4.5,2.43-7.5,6.13-7.5s5.54,2.55,5.54,7.64C156.24493,157.49828,156.135,157.6383,155.635,157.6383Zm11.2,5.16a4.54969,4.54969,0,0,1-3.45,1.28,10.78684,10.78684,0,0,1-4.76-1.17c-.5-.25-.61-.34-.61-.53a1.08015,1.08015,0,0,1,.08-.34l.65-1.71c.08-.19.16-.28.28-.28a.628.628,0,0,1,.25.09,8.19892,8.19892,0,0,0,3.81,1.2,1.45948,1.45948,0,0,0,1.62-1.46c0-.78-.34-1.06-2.16-1.76a8.10044,8.10044,0,0,1-2.91-1.51,3.70726,3.70726,0,0,1-1.12-2.75c0-2.68,2.07-4.56,4.99-4.56,1.76,0,4.28.76,4.28,1.29a.88431.88431,0,0,1-.08.31l-.7,1.59c-.09.17-.17.25-.28.25a.799.799,0,0,1-.23-.05,7.17311,7.17311,0,0,0-2.82995-.73c-1.14,0-1.79.5-1.79,1.43,0,.75.31,1.03,1.85,1.62,2.06994.81,2.66,1.12,3.25,1.68a4.00235,4.00235,0,0,1,1.15,2.86A4.76754,4.76754,0,0,1,166.835,162.79833Zm13.43-34.42H4.015v-111.15c0-7.29,5.57-13.23,12.43-13.23h151.38c6.86,0,12.44,5.94,12.44,13.23Zm-29.78,23.47c-1.43,0-2.07995.89-2.32995,3.19h4.37C152.465,152.71831,151.905,151.84832,150.48492,151.84832Zm-47.38,7.73a1.84169,1.84169,0,0,0,1.79,1.93,2.9109,2.9109,0,0,0,2.13-1.09v-3.08C104.225,157.33831,103.10492,157.9483,103.10492,159.5783Zm-23.35,0a1.83545,1.83545,0,0,0,1.79,1.93,2.91084,2.91084,0,0,0,2.13-1.09v-3.08C80.87494,157.33831,79.75494,157.9483,79.75494,159.5783Zm-11.03-7.45a3.07361,3.07361,0,0,0-2.19,1.01v7.72a3.59408,3.59408,0,0,0,1.96.54c1.82,0,2.47-1.24,2.47-4.82C70.965,153.49828,70.265,152.12829,68.725,152.12829Zm-36.63,0c-1.59,0-2.26,1.34-2.26,4.56,0,3.25.67,4.57,2.29,4.57,1.65,0,2.33-1.35,2.33-4.54C34.455,153.41833,33.775,152.12829,32.095,152.12829Zm0,0c-1.59,0-2.26,1.34-2.26,4.56,0,3.25.67,4.57,2.29,4.57,1.65,0,2.33-1.35,2.33-4.54C34.455,153.41833,33.775,152.12829,32.095,152.12829Zm36.63,0a3.07361,3.07361,0,0,0-2.19,1.01v7.72a3.59408,3.59408,0,0,0,1.96.54c1.82,0,2.47-1.24,2.47-4.82C70.965,153.49828,70.265,152.12829,68.725,152.12829Zm11.03,7.45a1.83545,1.83545,0,0,0,1.79,1.93,2.91084,2.91084,0,0,0,2.13-1.09v-3.08C80.87494,157.33831,79.75494,157.9483,79.75494,159.5783Zm23.35,0a1.84169,1.84169,0,0,0,1.79,1.93,2.9109,2.9109,0,0,0,2.13-1.09v-3.08C104.225,157.33831,103.10492,157.9483,103.10492,159.5783Zm0,0a1.84169,1.84169,0,0,0,1.79,1.93,2.9109,2.9109,0,0,0,2.13-1.09v-3.08C104.225,157.33831,103.10492,157.9483,103.10492,159.5783Zm-23.35,0a1.83545,1.83545,0,0,0,1.79,1.93,2.91084,2.91084,0,0,0,2.13-1.09v-3.08C80.87494,157.33831,79.75494,157.9483,79.75494,159.5783Zm-11.03-7.45a3.07361,3.07361,0,0,0-2.19,1.01v7.72a3.59408,3.59408,0,0,0,1.96.54c1.82,0,2.47-1.24,2.47-4.82C70.965,153.49828,70.265,152.12829,68.725,152.12829Zm-36.63,0c-1.59,0-2.26,1.34-2.26,4.56,0,3.25.67,4.57,2.29,4.57,1.65,0,2.33-1.35,2.33-4.54C34.455,153.41833,33.775,152.12829,32.095,152.12829Zm0,0c-1.59,0-2.26,1.34-2.26,4.56,0,3.25.67,4.57,2.29,4.57,1.65,0,2.33-1.35,2.33-4.54C34.455,153.41833,33.775,152.12829,32.095,152.12829Zm36.63,0a3.07361,3.07361,0,0,0-2.19,1.01v7.72a3.59408,3.59408,0,0,0,1.96.54c1.82,0,2.47-1.24,2.47-4.82C70.965,153.49828,70.265,152.12829,68.725,152.12829Zm11.03,7.45a1.83545,1.83545,0,0,0,1.79,1.93,2.91084,2.91084,0,0,0,2.13-1.09v-3.08C80.87494,157.33831,79.75494,157.9483,79.75494,159.5783Zm23.35,0a1.84169,1.84169,0,0,0,1.79,1.93,2.9109,2.9109,0,0,0,2.13-1.09v-3.08C104.225,157.33831,103.10492,157.9483,103.10492,159.5783Zm0,0a1.84169,1.84169,0,0,0,1.79,1.93,2.9109,2.9109,0,0,0,2.13-1.09v-3.08C104.225,157.33831,103.10492,157.9483,103.10492,159.5783Zm-23.35,0a1.83545,1.83545,0,0,0,1.79,1.93,2.91084,2.91084,0,0,0,2.13-1.09v-3.08C80.87494,157.33831,79.75494,157.9483,79.75494,159.5783Zm-11.03-7.45a3.07361,3.07361,0,0,0-2.19,1.01v7.72a3.59408,3.59408,0,0,0,1.96.54c1.82,0,2.47-1.24,2.47-4.82C70.965,153.49828,70.265,152.12829,68.725,152.12829Zm-36.63,0c-1.59,0-2.26,1.34-2.26,4.56,0,3.25.67,4.57,2.29,4.57,1.65,0,2.33-1.35,2.33-4.54C34.455,153.41833,33.775,152.12829,32.095,152.12829Zm0,0c-1.59,0-2.26,1.34-2.26,4.56,0,3.25.67,4.57,2.29,4.57,1.65,0,2.33-1.35,2.33-4.54C34.455,153.41833,33.775,152.12829,32.095,152.12829Zm36.63,0a3.07361,3.07361,0,0,0-2.19,1.01v7.72a3.59408,3.59408,0,0,0,1.96.54c1.82,0,2.47-1.24,2.47-4.82C70.965,153.49828,70.265,152.12829,68.725,152.12829Zm11.03,7.45a1.83545,1.83545,0,0,0,1.79,1.93,2.91084,2.91084,0,0,0,2.13-1.09v-3.08C80.87494,157.33831,79.75494,157.9483,79.75494,159.5783Zm23.35,0a1.84169,1.84169,0,0,0,1.79,1.93,2.9109,2.9109,0,0,0,2.13-1.09v-3.08C104.225,157.33831,103.10492,157.9483,103.10492,159.5783Zm0,0a1.84169,1.84169,0,0,0,1.79,1.93,2.9109,2.9109,0,0,0,2.13-1.09v-3.08C104.225,157.33831,103.10492,157.9483,103.10492,159.5783Zm-23.35,0a1.83545,1.83545,0,0,0,1.79,1.93,2.91084,2.91084,0,0,0,2.13-1.09v-3.08C80.87494,157.33831,79.75494,157.9483,79.75494,159.5783Zm-11.03-7.45a3.07361,3.07361,0,0,0-2.19,1.01v7.72a3.59408,3.59408,0,0,0,1.96.54c1.82,0,2.47-1.24,2.47-4.82C70.965,153.49828,70.265,152.12829,68.725,152.12829Zm-36.63,0c-1.59,0-2.26,1.34-2.26,4.56,0,3.25.67,4.57,2.29,4.57,1.65,0,2.33-1.35,2.33-4.54C34.455,153.41833,33.775,152.12829,32.095,152.12829Zm0,0c-1.59,0-2.26,1.34-2.26,4.56,0,3.25.67,4.57,2.29,4.57,1.65,0,2.33-1.35,2.33-4.54C34.455,153.41833,33.775,152.12829,32.095,152.12829Zm36.63,0a3.07361,3.07361,0,0,0-2.19,1.01v7.72a3.59408,3.59408,0,0,0,1.96.54c1.82,0,2.47-1.24,2.47-4.82C70.965,153.49828,70.265,152.12829,68.725,152.12829Zm11.03,7.45a1.83545,1.83545,0,0,0,1.79,1.93,2.91084,2.91084,0,0,0,2.13-1.09v-3.08C80.87494,157.33831,79.75494,157.9483,79.75494,159.5783Zm0,0a1.83545,1.83545,0,0,0,1.79,1.93,2.91084,2.91084,0,0,0,2.13-1.09v-3.08C80.87494,157.33831,79.75494,157.9483,79.75494,159.5783Zm-11.03-7.45a3.07361,3.07361,0,0,0-2.19,1.01v7.72a3.59408,3.59408,0,0,0,1.96.54c1.82,0,2.47-1.24,2.47-4.82C70.965,153.49828,70.265,152.12829,68.725,152.12829Zm-36.63,0c-1.59,0-2.26,1.34-2.26,4.56,0,3.25.67,4.57,2.29,4.57,1.65,0,2.33-1.35,2.33-4.54C34.455,153.41833,33.775,152.12829,32.095,152.12829Zm0,0c-1.59,0-2.26,1.34-2.26,4.56,0,3.25.67,4.57,2.29,4.57,1.65,0,2.33-1.35,2.33-4.54C34.455,153.41833,33.775,152.12829,32.095,152.12829Zm0,0c-1.59,0-2.26,1.34-2.26,4.56,0,3.25.67,4.57,2.29,4.57,1.65,0,2.33-1.35,2.33-4.54C34.455,153.41833,33.775,152.12829,32.095,152.12829Z" fill="#959ca1"></path><path d="M40.075,202.7683l1.04,4.79h-3.59l1.12-4.79a35.64312,35.64312,0,0,0,.73-3.78C39.74493,201.11834,39.825,201.61834,40.075,202.7683Z" fill="#959ca1"></path><path d="M54.725,198.89831h-1.1v5.52h.79c2.46,0,3.32995-.75,3.32995-2.88C57.74493,199.54833,56.98492,198.89831,54.725,198.89831Zm0,0h-1.1v5.52h.79c2.46,0,3.32995-.75,3.32995-2.88C57.74493,199.54833,56.98492,198.89831,54.725,198.89831Zm0,0h-1.1v5.52h.79c2.46,0,3.32995-.75,3.32995-2.88C57.74493,199.54833,56.98492,198.89831,54.725,198.89831Zm14.53,0h-1.09v5.52h.78c2.46,0,3.33-.75,3.33-2.88C72.275,199.54833,71.525,198.89831,69.25494,198.89831Zm14.45,0h-1.1v5.52h.79c2.46,0,3.33-.75,3.33-2.88C86.725,199.54833,85.965,198.89831,83.705,198.89831Zm-14.45,0h-1.09v5.52h.78c2.46,0,3.33-.75,3.33-2.88C72.275,199.54833,71.525,198.89831,69.25494,198.89831Zm-14.53,0h-1.1v5.52h.79c2.46,0,3.32995-.75,3.32995-2.88C57.74493,199.54833,56.98492,198.89831,54.725,198.89831Zm28.98,0h-1.1v5.52h.79c2.46,0,3.33-.75,3.33-2.88C86.725,199.54833,85.965,198.89831,83.705,198.89831Zm-28.98,0h-1.1v5.52h.79c2.46,0,3.32995-.75,3.32995-2.88C57.74493,199.54833,56.98492,198.89831,54.725,198.89831Zm14.53,0h-1.09v5.52h.78c2.46,0,3.33-.75,3.33-2.88C72.275,199.54833,71.525,198.89831,69.25494,198.89831Zm14.45,0h-1.1v5.52h.79c2.46,0,3.33-.75,3.33-2.88C86.725,199.54833,85.965,198.89831,83.705,198.89831Zm16.04-.3c-1.85,0-2.86,2.49-2.86,7.08,0,4.7.96,7.03,2.89,7.03s2.91-2.33,2.91-6.97C102.68494,200.83831,101.765,198.59832,99.74493,198.59832Zm-30.49.3h-1.09v5.52h.78c2.46,0,3.33-.75,3.33-2.88C72.275,199.54833,71.525,198.89831,69.25494,198.89831Zm-14.53,0h-1.1v5.52h.79c2.46,0,3.32995-.75,3.32995-2.88C57.74493,199.54833,56.98492,198.89831,54.725,198.89831Zm28.98,0h-1.1v5.52h.79c2.46,0,3.33-.75,3.33-2.88C86.725,199.54833,85.965,198.89831,83.705,198.89831Zm16.04-.3c-1.85,0-2.86,2.49-2.86,7.08,0,4.7.96,7.03,2.89,7.03s2.91-2.33,2.91-6.97C102.68494,200.83831,101.765,198.59832,99.74493,198.59832Zm-45.01995.3h-1.1v5.52h.79c2.46,0,3.32995-.75,3.32995-2.88C57.74493,199.54833,56.98492,198.89831,54.725,198.89831Zm14.53,0h-1.09v5.52h.78c2.46,0,3.33-.75,3.33-2.88C72.275,199.54833,71.525,198.89831,69.25494,198.89831Zm14.45,0h-1.1v5.52h.79c2.46,0,3.33-.75,3.33-2.88C86.725,199.54833,85.965,198.89831,83.705,198.89831Zm16.04-.3c-1.85,0-2.86,2.49-2.86,7.08,0,4.7.96,7.03,2.89,7.03s2.91-2.33,2.91-6.97C102.68494,200.83831,101.765,198.59832,99.74493,198.59832Zm45.75,1.06a3.6733,3.6733,0,0,0-2.49-.56h-.98v13.11h.98a4.06658,4.06658,0,0,0,2.91-.73c.94995-.84,1.35-2.49,1.35-5.63C147.265,202.23833,146.75494,200.49828,145.49493,199.65832Zm0,0a3.6733,3.6733,0,0,0-2.49-.56h-.98v13.11h.98a4.06658,4.06658,0,0,0,2.91-.73c.94995-.84,1.35-2.49,1.35-5.63C147.265,202.23833,146.75494,200.49828,145.49493,199.65832Zm-76.24-.76h-1.09v5.52h.78c2.46,0,3.33-.75,3.33-2.88C72.275,199.54833,71.525,198.89831,69.25494,198.89831Zm-14.53,0h-1.1v5.52h.79c2.46,0,3.32995-.75,3.32995-2.88C57.74493,199.54833,56.98492,198.89831,54.725,198.89831Zm28.98,0h-1.1v5.52h.79c2.46,0,3.33-.75,3.33-2.88C86.725,199.54833,85.965,198.89831,83.705,198.89831Zm16.04-.3c-1.85,0-2.86,2.49-2.86,7.08,0,4.7.96,7.03,2.89,7.03s2.91-2.33,2.91-6.97C102.68494,200.83831,101.765,198.59832,99.74493,198.59832Zm-45.01995.3h-1.1v5.52h.79c2.46,0,3.32995-.75,3.32995-2.88C57.74493,199.54833,56.98492,198.89831,54.725,198.89831Zm14.53,0h-1.09v5.52h.78c2.46,0,3.33-.75,3.33-2.88C72.275,199.54833,71.525,198.89831,69.25494,198.89831Zm14.45,0h-1.1v5.52h.79c2.46,0,3.33-.75,3.33-2.88C86.725,199.54833,85.965,198.89831,83.705,198.89831Zm16.04-.3c-1.85,0-2.86,2.49-2.86,7.08,0,4.7.96,7.03,2.89,7.03s2.91-2.33,2.91-6.97C102.68494,200.83831,101.765,198.59832,99.74493,198.59832Zm42.46,32.23c-1.01,0-1.56,1.03-1.56,2.89,0,1.82.49,2.79,1.41,2.79a1.99341,1.99341,0,0,0,1.5-.65v-4.48A2.13946,2.13946,0,0,0,142.205,230.8283Zm3.29-31.17a3.6733,3.6733,0,0,0-2.49-.56h-.98v13.11h.98a4.06658,4.06658,0,0,0,2.91-.73c.94995-.84,1.35-2.49,1.35-5.63C147.265,202.23833,146.75494,200.49828,145.49493,199.65832Zm0,0a3.6733,3.6733,0,0,0-2.49-.56h-.98v13.11h.98a4.06658,4.06658,0,0,0,2.91-.73c.94995-.84,1.35-2.49,1.35-5.63C147.265,202.23833,146.75494,200.49828,145.49493,199.65832Zm-3.29,31.17c-1.01,0-1.56,1.03-1.56,2.89,0,1.82.49,2.79,1.41,2.79a1.99341,1.99341,0,0,0,1.5-.65v-4.48A2.13946,2.13946,0,0,0,142.205,230.8283Zm-72.95-31.93h-1.09v5.52h.78c2.46,0,3.33-.75,3.33-2.88C72.275,199.54833,71.525,198.89831,69.25494,198.89831Zm-14.53,0h-1.1v5.52h.79c2.46,0,3.32995-.75,3.32995-2.88C57.74493,199.54833,56.98492,198.89831,54.725,198.89831Zm28.98,0h-1.1v5.52h.79c2.46,0,3.33-.75,3.33-2.88C86.725,199.54833,85.965,198.89831,83.705,198.89831Zm16.04-.3c-1.85,0-2.86,2.49-2.86,7.08,0,4.7.96,7.03,2.89,7.03s2.91-2.33,2.91-6.97C102.68494,200.83831,101.765,198.59832,99.74493,198.59832Zm-45.01995.3h-1.1v5.52h.79c2.46,0,3.32995-.75,3.32995-2.88C57.74493,199.54833,56.98492,198.89831,54.725,198.89831Zm14.53,0h-1.09v5.52h.78c2.46,0,3.33-.75,3.33-2.88C72.275,199.54833,71.525,198.89831,69.25494,198.89831Zm14.45,0h-1.1v5.52h.79c2.46,0,3.33-.75,3.33-2.88C86.725,199.54833,85.965,198.89831,83.705,198.89831Zm16.04-.3c-1.85,0-2.86,2.49-2.86,7.08,0,4.7.96,7.03,2.89,7.03s2.91-2.33,2.91-6.97C102.68494,200.83831,101.765,198.59832,99.74493,198.59832Zm42.46,32.23c-1.01,0-1.56,1.03-1.56,2.89,0,1.82.49,2.79,1.41,2.79a1.99341,1.99341,0,0,0,1.5-.65v-4.48A2.13946,2.13946,0,0,0,142.205,230.8283Zm3.29-31.17a3.6733,3.6733,0,0,0-2.49-.56h-.98v13.11h.98a4.06658,4.06658,0,0,0,2.91-.73c.94995-.84,1.35-2.49,1.35-5.63C147.265,202.23833,146.75494,200.49828,145.49493,199.65832Zm0,0a3.6733,3.6733,0,0,0-2.49-.56h-.98v13.11h.98a4.06658,4.06658,0,0,0,2.91-.73c.94995-.84,1.35-2.49,1.35-5.63C147.265,202.23833,146.75494,200.49828,145.49493,199.65832Zm-3.29,31.17c-1.01,0-1.56,1.03-1.56,2.89,0,1.82.49,2.79,1.41,2.79a1.99341,1.99341,0,0,0,1.5-.65v-4.48A2.13946,2.13946,0,0,0,142.205,230.8283Zm-72.95-31.93h-1.09v5.52h.78c2.46,0,3.33-.75,3.33-2.88C72.275,199.54833,71.525,198.89831,69.25494,198.89831Zm-14.53,0h-1.1v5.52h.79c2.46,0,3.32995-.75,3.32995-2.88C57.74493,199.54833,56.98492,198.89831,54.725,198.89831Zm28.98,0h-1.1v5.52h.79c2.46,0,3.33-.75,3.33-2.88C86.725,199.54833,85.965,198.89831,83.705,198.89831Zm16.04-.3c-1.85,0-2.86,2.49-2.86,7.08,0,4.7.96,7.03,2.89,7.03s2.91-2.33,2.91-6.97C102.68494,200.83831,101.765,198.59832,99.74493,198.59832Zm-45.01995.3h-1.1v5.52h.79c2.46,0,3.32995-.75,3.32995-2.88C57.74493,199.54833,56.98492,198.89831,54.725,198.89831Zm14.53,0h-1.09v5.52h.78c2.46,0,3.33-.75,3.33-2.88C72.275,199.54833,71.525,198.89831,69.25494,198.89831Zm14.45,0h-1.1v5.52h.79c2.46,0,3.33-.75,3.33-2.88C86.725,199.54833,85.965,198.89831,83.705,198.89831Zm16.04-.3c-1.85,0-2.86,2.49-2.86,7.08,0,4.7.96,7.03,2.89,7.03s2.91-2.33,2.91-6.97C102.68494,200.83831,101.765,198.59832,99.74493,198.59832Zm42.46,32.23c-1.01,0-1.56,1.03-1.56,2.89,0,1.82.49,2.79,1.41,2.79a1.99341,1.99341,0,0,0,1.5-.65v-4.48A2.13946,2.13946,0,0,0,142.205,230.8283Zm3.29-31.17a3.6733,3.6733,0,0,0-2.49-.56h-.98v13.11h.98a4.06658,4.06658,0,0,0,2.91-.73c.94995-.84,1.35-2.49,1.35-5.63C147.265,202.23833,146.75494,200.49828,145.49493,199.65832Zm0,0a3.6733,3.6733,0,0,0-2.49-.56h-.98v13.11h.98a4.06658,4.06658,0,0,0,2.91-.73c.94995-.84,1.35-2.49,1.35-5.63C147.265,202.23833,146.75494,200.49828,145.49493,199.65832Zm-3.29,31.17c-1.01,0-1.56,1.03-1.56,2.89,0,1.82.49,2.79,1.41,2.79a1.99341,1.99341,0,0,0,1.5-.65v-4.48A2.13946,2.13946,0,0,0,142.205,230.8283Zm-72.95-31.93h-1.09v5.52h.78c2.46,0,3.33-.75,3.33-2.88C72.275,199.54833,71.525,198.89831,69.25494,198.89831Zm-14.53,0h-1.1v5.52h.79c2.46,0,3.32995-.75,3.32995-2.88C57.74493,199.54833,56.98492,198.89831,54.725,198.89831Zm28.98,0h-1.1v5.52h.79c2.46,0,3.33-.75,3.33-2.88C86.725,199.54833,85.965,198.89831,83.705,198.89831Zm16.04-.3c-1.85,0-2.86,2.49-2.86,7.08,0,4.7.96,7.03,2.89,7.03s2.91-2.33,2.91-6.97C102.68494,200.83831,101.765,198.59832,99.74493,198.59832Zm-45.01995.3h-1.1v5.52h.79c2.46,0,3.32995-.75,3.32995-2.88C57.74493,199.54833,56.98492,198.89831,54.725,198.89831Zm14.53,0h-1.09v5.52h.78c2.46,0,3.33-.75,3.33-2.88C72.275,199.54833,71.525,198.89831,69.25494,198.89831Zm13.5,28.55h-.74v3.74h.53c1.67,0,2.26-.51,2.26-1.95C84.80493,227.8883,84.29492,227.4483,82.75494,227.4483Zm.95-28.55h-1.1v5.52h.79c2.46,0,3.33-.75,3.33-2.88C86.725,199.54833,85.965,198.89831,83.705,198.89831Zm16.04-.3c-1.85,0-2.86,2.49-2.86,7.08,0,4.7.96,7.03,2.89,7.03s2.91-2.33,2.91-6.97C102.68494,200.83831,101.765,198.59832,99.74493,198.59832Zm42.46,32.23c-1.01,0-1.56,1.03-1.56,2.89,0,1.82.49,2.79,1.41,2.79a1.99341,1.99341,0,0,0,1.5-.65v-4.48A2.13946,2.13946,0,0,0,142.205,230.8283Zm3.29-31.17a3.6733,3.6733,0,0,0-2.49-.56h-.98v13.11h.98a4.06658,4.06658,0,0,0,2.91-.73c.94995-.84,1.35-2.49,1.35-5.63C147.265,202.23833,146.75494,200.49828,145.49493,199.65832Zm0,0a3.6733,3.6733,0,0,0-2.49-.56h-.98v13.11h.98a4.06658,4.06658,0,0,0,2.91-.73c.94995-.84,1.35-2.49,1.35-5.63C147.265,202.23833,146.75494,200.49828,145.49493,199.65832Zm-3.29,31.17c-1.01,0-1.56,1.03-1.56,2.89,0,1.82.49,2.79,1.41,2.79a1.99341,1.99341,0,0,0,1.5-.65v-4.48A2.13946,2.13946,0,0,0,142.205,230.8283Zm-59.45-3.38h-.74v3.74h.53c1.67,0,2.26-.51,2.26-1.95C84.80493,227.8883,84.29492,227.4483,82.75494,227.4483Zm-13.5-28.55h-1.09v5.52h.78c2.46,0,3.33-.75,3.33-2.88C72.275,199.54833,71.525,198.89831,69.25494,198.89831Zm-14.53,0h-1.1v5.52h.79c2.46,0,3.32995-.75,3.32995-2.88C57.74493,199.54833,56.98492,198.89831,54.725,198.89831Zm28.98,0h-1.1v5.52h.79c2.46,0,3.33-.75,3.33-2.88C86.725,199.54833,85.965,198.89831,83.705,198.89831Zm16.04-.3c-1.85,0-2.86,2.49-2.86,7.08,0,4.7.96,7.03,2.89,7.03s2.91-2.33,2.91-6.97C102.68494,200.83831,101.765,198.59832,99.74493,198.59832Zm-45.01995.3h-1.1v5.52h.79c2.46,0,3.32995-.75,3.32995-2.88C57.74493,199.54833,56.98492,198.89831,54.725,198.89831Zm14.53,0h-1.09v5.52h.78c2.46,0,3.33-.75,3.33-2.88C72.275,199.54833,71.525,198.89831,69.25494,198.89831Zm13.5,28.55h-.74v3.74h.53c1.67,0,2.26-.51,2.26-1.95C84.80493,227.8883,84.29492,227.4483,82.75494,227.4483Zm.95-28.55h-1.1v5.52h.79c2.46,0,3.33-.75,3.33-2.88C86.725,199.54833,85.965,198.89831,83.705,198.89831Zm16.04-.3c-1.85,0-2.86,2.49-2.86,7.08,0,4.7.96,7.03,2.89,7.03s2.91-2.33,2.91-6.97C102.68494,200.83831,101.765,198.59832,99.74493,198.59832Zm42.46,32.23c-1.01,0-1.56,1.03-1.56,2.89,0,1.82.49,2.79,1.41,2.79a1.99341,1.99341,0,0,0,1.5-.65v-4.48A2.13946,2.13946,0,0,0,142.205,230.8283Zm3.29-31.17a3.6733,3.6733,0,0,0-2.49-.56h-.98v13.11h.98a4.06658,4.06658,0,0,0,2.91-.73c.94995-.84,1.35-2.49,1.35-5.63C147.265,202.23833,146.75494,200.49828,145.49493,199.65832Zm0,0a3.6733,3.6733,0,0,0-2.49-.56h-.98v13.11h.98a4.06658,4.06658,0,0,0,2.91-.73c.94995-.84,1.35-2.49,1.35-5.63C147.265,202.23833,146.75494,200.49828,145.49493,199.65832Zm-3.29,31.17c-1.01,0-1.56,1.03-1.56,2.89,0,1.82.49,2.79,1.41,2.79a1.99341,1.99341,0,0,0,1.5-.65v-4.48A2.13946,2.13946,0,0,0,142.205,230.8283Zm-59.45-3.38h-.74v3.74h.53c1.67,0,2.26-.51,2.26-1.95C84.80493,227.8883,84.29492,227.4483,82.75494,227.4483Zm-13.5-28.55h-1.09v5.52h.78c2.46,0,3.33-.75,3.33-2.88C72.275,199.54833,71.525,198.89831,69.25494,198.89831Zm-14.53,0h-1.1v5.52h.79c2.46,0,3.32995-.75,3.32995-2.88C57.74493,199.54833,56.98492,198.89831,54.725,198.89831Zm28.98,0h-1.1v5.52h.79c2.46,0,3.33-.75,3.33-2.88C86.725,199.54833,85.965,198.89831,83.705,198.89831Zm16.04-.3c-1.85,0-2.86,2.49-2.86,7.08,0,4.7.96,7.03,2.89,7.03s2.91-2.33,2.91-6.97C102.68494,200.83831,101.765,198.59832,99.74493,198.59832Zm-45.01995.3h-1.1v5.52h.79c2.46,0,3.32995-.75,3.32995-2.88C57.74493,199.54833,56.98492,198.89831,54.725,198.89831Zm14.53,0h-1.09v5.52h.78c2.46,0,3.33-.75,3.33-2.88C72.275,199.54833,71.525,198.89831,69.25494,198.89831Zm13.5,28.55h-.74v3.74h.53c1.67,0,2.26-.51,2.26-1.95C84.80493,227.8883,84.29492,227.4483,82.75494,227.4483Zm.95-28.55h-1.1v5.52h.79c2.46,0,3.33-.75,3.33-2.88C86.725,199.54833,85.965,198.89831,83.705,198.89831Zm4.84,60.07a1.671,1.671,0,0,0-1.62-1.06c-1.46,0-2.14,1.53-2.14,4.8,0,3.3.64,4.74,2.12,4.74a1.80384,1.80384,0,0,0,1.7-1.15,8.142,8.142,0,0,0,.41-3.24A10.367,10.367,0,0,0,88.54492,258.96831Zm11.2-60.37c-1.85,0-2.86,2.49-2.86,7.08,0,4.7.96,7.03,2.89,7.03s2.91-2.33,2.91-6.97C102.68494,200.83831,101.765,198.59832,99.74493,198.59832Zm42.46,32.23c-1.01,0-1.56,1.03-1.56,2.89,0,1.82.49,2.79,1.41,2.79a1.99341,1.99341,0,0,0,1.5-.65v-4.48A2.13946,2.13946,0,0,0,142.205,230.8283Zm3.29-31.17a3.6733,3.6733,0,0,0-2.49-.56h-.98v13.11h.98a4.06658,4.06658,0,0,0,2.91-.73c.94995-.84,1.35-2.49,1.35-5.63C147.265,202.23833,146.75494,200.49828,145.49493,199.65832Zm0,0a3.6733,3.6733,0,0,0-2.49-.56h-.98v13.11h.98a4.06658,4.06658,0,0,0,2.91-.73c.94995-.84,1.35-2.49,1.35-5.63C147.265,202.23833,146.75494,200.49828,145.49493,199.65832Zm-3.29,31.17c-1.01,0-1.56,1.03-1.56,2.89,0,1.82.49,2.79,1.41,2.79a1.99341,1.99341,0,0,0,1.5-.65v-4.48A2.13946,2.13946,0,0,0,142.205,230.8283Zm-53.66,28.14a1.671,1.671,0,0,0-1.62-1.06c-1.46,0-2.14,1.53-2.14,4.8,0,3.3.64,4.74,2.12,4.74a1.80384,1.80384,0,0,0,1.7-1.15,8.142,8.142,0,0,0,.41-3.24A10.367,10.367,0,0,0,88.54492,258.96831Zm-5.79-31.52h-.74v3.74h.53c1.67,0,2.26-.51,2.26-1.95C84.80493,227.8883,84.29492,227.4483,82.75494,227.4483Zm-13.5-28.55h-1.09v5.52h.78c2.46,0,3.33-.75,3.33-2.88C72.275,199.54833,71.525,198.89831,69.25494,198.89831Zm-14.53,0h-1.1v5.52h.79c2.46,0,3.32995-.75,3.32995-2.88C57.74493,199.54833,56.98492,198.89831,54.725,198.89831Zm28.98,0h-1.1v5.52h.79c2.46,0,3.33-.75,3.33-2.88C86.725,199.54833,85.965,198.89831,83.705,198.89831Zm16.04-.3c-1.85,0-2.86,2.49-2.86,7.08,0,4.7.96,7.03,2.89,7.03s2.91-2.33,2.91-6.97C102.68494,200.83831,101.765,198.59832,99.74493,198.59832Zm-45.01995.3h-1.1v5.52h.79c2.46,0,3.32995-.75,3.32995-2.88C57.74493,199.54833,56.98492,198.89831,54.725,198.89831Zm14.53,0h-1.09v5.52h.78c2.46,0,3.33-.75,3.33-2.88C72.275,199.54833,71.525,198.89831,69.25494,198.89831Zm13.5,28.55h-.74v3.74h.53c1.67,0,2.26-.51,2.26-1.95C84.80493,227.8883,84.29492,227.4483,82.75494,227.4483Zm.95-28.55h-1.1v5.52h.79c2.46,0,3.33-.75,3.33-2.88C86.725,199.54833,85.965,198.89831,83.705,198.89831Zm4.84,60.07a1.671,1.671,0,0,0-1.62-1.06c-1.46,0-2.14,1.53-2.14,4.8,0,3.3.64,4.74,2.12,4.74a1.80384,1.80384,0,0,0,1.7-1.15,8.142,8.142,0,0,0,.41-3.24A10.367,10.367,0,0,0,88.54492,258.96831Zm11.2-60.37c-1.85,0-2.86,2.49-2.86,7.08,0,4.7.96,7.03,2.89,7.03s2.91-2.33,2.91-6.97C102.68494,200.83831,101.765,198.59832,99.74493,198.59832Zm42.46,32.23c-1.01,0-1.56,1.03-1.56,2.89,0,1.82.49,2.79,1.41,2.79a1.99341,1.99341,0,0,0,1.5-.65v-4.48A2.13946,2.13946,0,0,0,142.205,230.8283Zm3.29-31.17a3.6733,3.6733,0,0,0-2.49-.56h-.98v13.11h.98a4.06658,4.06658,0,0,0,2.91-.73c.94995-.84,1.35-2.49,1.35-5.63C147.265,202.23833,146.75494,200.49828,145.49493,199.65832Zm0,0a3.6733,3.6733,0,0,0-2.49-.56h-.98v13.11h.98a4.06658,4.06658,0,0,0,2.91-.73c.94995-.84,1.35-2.49,1.35-5.63C147.265,202.23833,146.75494,200.49828,145.49493,199.65832Zm-3.29,31.17c-1.01,0-1.56,1.03-1.56,2.89,0,1.82.49,2.79,1.41,2.79a1.99341,1.99341,0,0,0,1.5-.65v-4.48A2.13946,2.13946,0,0,0,142.205,230.8283Zm-53.66,28.14a1.671,1.671,0,0,0-1.62-1.06c-1.46,0-2.14,1.53-2.14,4.8,0,3.3.64,4.74,2.12,4.74a1.80384,1.80384,0,0,0,1.7-1.15,8.142,8.142,0,0,0,.41-3.24A10.367,10.367,0,0,0,88.54492,258.96831Zm-5.79-31.52h-.74v3.74h.53c1.67,0,2.26-.51,2.26-1.95C84.80493,227.8883,84.29492,227.4483,82.75494,227.4483Zm-13.5-28.55h-1.09v5.52h.78c2.46,0,3.33-.75,3.33-2.88C72.275,199.54833,71.525,198.89831,69.25494,198.89831Zm-14.53,0h-1.1v5.52h.79c2.46,0,3.32995-.75,3.32995-2.88C57.74493,199.54833,56.98492,198.89831,54.725,198.89831Zm28.98,0h-1.1v5.52h.79c2.46,0,3.33-.75,3.33-2.88C86.725,199.54833,85.965,198.89831,83.705,198.89831Zm16.04-.3c-1.85,0-2.86,2.49-2.86,7.08,0,4.7.96,7.03,2.89,7.03s2.91-2.33,2.91-6.97C102.68494,200.83831,101.765,198.59832,99.74493,198.59832Zm-45.01995.3h-1.1v5.52h.79c2.46,0,3.32995-.75,3.32995-2.88C57.74493,199.54833,56.98492,198.89831,54.725,198.89831Zm14.53,0h-1.09v5.52h.78c2.46,0,3.33-.75,3.33-2.88C72.275,199.54833,71.525,198.89831,69.25494,198.89831Zm13.5,28.55h-.74v3.74h.53c1.67,0,2.26-.51,2.26-1.95C84.80493,227.8883,84.29492,227.4483,82.75494,227.4483Zm.95-28.55h-1.1v5.52h.79c2.46,0,3.33-.75,3.33-2.88C86.725,199.54833,85.965,198.89831,83.705,198.89831Zm4.84,60.07a1.671,1.671,0,0,0-1.62-1.06c-1.46,0-2.14,1.53-2.14,4.8,0,3.3.64,4.74,2.12,4.74a1.80384,1.80384,0,0,0,1.7-1.15,8.142,8.142,0,0,0,.41-3.24A10.367,10.367,0,0,0,88.54492,258.96831Zm11.2-60.37c-1.85,0-2.86,2.49-2.86,7.08,0,4.7.96,7.03,2.89,7.03s2.91-2.33,2.91-6.97C102.68494,200.83831,101.765,198.59832,99.74493,198.59832Zm42.46,32.23c-1.01,0-1.56,1.03-1.56,2.89,0,1.82.49,2.79,1.41,2.79a1.99341,1.99341,0,0,0,1.5-.65v-4.48A2.13946,2.13946,0,0,0,142.205,230.8283Zm3.29-31.17a3.6733,3.6733,0,0,0-2.49-.56h-.98v13.11h.98a4.06658,4.06658,0,0,0,2.91-.73c.94995-.84,1.35-2.49,1.35-5.63C147.265,202.23833,146.75494,200.49828,145.49493,199.65832Zm0,0a3.6733,3.6733,0,0,0-2.49-.56h-.98v13.11h.98a4.06658,4.06658,0,0,0,2.91-.73c.94995-.84,1.35-2.49,1.35-5.63C147.265,202.23833,146.75494,200.49828,145.49493,199.65832Zm-3.29,31.17c-1.01,0-1.56,1.03-1.56,2.89,0,1.82.49,2.79,1.41,2.79a1.99341,1.99341,0,0,0,1.5-.65v-4.48A2.13946,2.13946,0,0,0,142.205,230.8283Zm-53.66,28.14a1.671,1.671,0,0,0-1.62-1.06c-1.46,0-2.14,1.53-2.14,4.8,0,3.3.64,4.74,2.12,4.74a1.80384,1.80384,0,0,0,1.7-1.15,8.142,8.142,0,0,0,.41-3.24A10.367,10.367,0,0,0,88.54492,258.96831Zm-5.79-31.52h-.74v3.74h.53c1.67,0,2.26-.51,2.26-1.95C84.80493,227.8883,84.29492,227.4483,82.75494,227.4483Zm-13.5-28.55h-1.09v5.52h.78c2.46,0,3.33-.75,3.33-2.88C72.275,199.54833,71.525,198.89831,69.25494,198.89831Zm-14.53,0h-1.1v5.52h.79c2.46,0,3.32995-.75,3.32995-2.88C57.74493,199.54833,56.98492,198.89831,54.725,198.89831Zm28.98,0h-1.1v5.52h.79c2.46,0,3.33-.75,3.33-2.88C86.725,199.54833,85.965,198.89831,83.705,198.89831Zm16.04-.3c-1.85,0-2.86,2.49-2.86,7.08,0,4.7.96,7.03,2.89,7.03s2.91-2.33,2.91-6.97C102.68494,200.83831,101.765,198.59832,99.74493,198.59832Zm-57.01,31.47c-.17-.78-.22-1.12-.47-2.56-.17,1.1-.25,1.54-.49,2.56l-.76,3.25h2.43Zm11.99006-31.17h-1.1v5.52h.79c2.46,0,3.32995-.75,3.32995-2.88C57.74493,199.54833,56.98492,198.89831,54.725,198.89831Zm14.53,0h-1.09v5.52h.78c2.46,0,3.33-.75,3.33-2.88C72.275,199.54833,71.525,198.89831,69.25494,198.89831Zm13.5,28.55h-.74v3.74h.53c1.67,0,2.26-.51,2.26-1.95C84.80493,227.8883,84.29492,227.4483,82.75494,227.4483Zm.95-28.55h-1.1v5.52h.79c2.46,0,3.33-.75,3.33-2.88C86.725,199.54833,85.965,198.89831,83.705,198.89831Zm4.84,60.07a1.671,1.671,0,0,0-1.62-1.06c-1.46,0-2.14,1.53-2.14,4.8,0,3.3.64,4.74,2.12,4.74a1.80384,1.80384,0,0,0,1.7-1.15,8.142,8.142,0,0,0,.41-3.24A10.367,10.367,0,0,0,88.54492,258.96831Zm11.2-60.37c-1.85,0-2.86,2.49-2.86,7.08,0,4.7.96,7.03,2.89,7.03s2.91-2.33,2.91-6.97C102.68494,200.83831,101.765,198.59832,99.74493,198.59832Zm42.46,32.23c-1.01,0-1.56,1.03-1.56,2.89,0,1.82.49,2.79,1.41,2.79a1.99341,1.99341,0,0,0,1.5-.65v-4.48A2.13946,2.13946,0,0,0,142.205,230.8283Zm3.29-31.17a3.6733,3.6733,0,0,0-2.49-.56h-.98v13.11h.98a4.06658,4.06658,0,0,0,2.91-.73c.94995-.84,1.35-2.49,1.35-5.63C147.265,202.23833,146.75494,200.49828,145.49493,199.65832Zm0,0a3.6733,3.6733,0,0,0-2.49-.56h-.98v13.11h.98a4.06658,4.06658,0,0,0,2.91-.73c.94995-.84,1.35-2.49,1.35-5.63C147.265,202.23833,146.75494,200.49828,145.49493,199.65832Zm-3.29,31.17c-1.01,0-1.56,1.03-1.56,2.89,0,1.82.49,2.79,1.41,2.79a1.99341,1.99341,0,0,0,1.5-.65v-4.48A2.13946,2.13946,0,0,0,142.205,230.8283Zm-53.66,28.14a1.671,1.671,0,0,0-1.62-1.06c-1.46,0-2.14,1.53-2.14,4.8,0,3.3.64,4.74,2.12,4.74a1.80384,1.80384,0,0,0,1.7-1.15,8.142,8.142,0,0,0,.41-3.24A10.367,10.367,0,0,0,88.54492,258.96831Zm-5.79-31.52h-.74v3.74h.53c1.67,0,2.26-.51,2.26-1.95C84.80493,227.8883,84.29492,227.4483,82.75494,227.4483Zm-13.5-28.55h-1.09v5.52h.78c2.46,0,3.33-.75,3.33-2.88C72.275,199.54833,71.525,198.89831,69.25494,198.89831Zm-26.52,31.17c-.17-.78-.22-1.12-.47-2.56-.17,1.1-.25,1.54-.49,2.56l-.76,3.25h2.43Zm11.99006-31.17h-1.1v5.52h.79c2.46,0,3.32995-.75,3.32995-2.88C57.74493,199.54833,56.98492,198.89831,54.725,198.89831Zm28.98,0h-1.1v5.52h.79c2.46,0,3.33-.75,3.33-2.88C86.725,199.54833,85.965,198.89831,83.705,198.89831Zm16.04-.3c-1.85,0-2.86,2.49-2.86,7.08,0,4.7.96,7.03,2.89,7.03s2.91-2.33,2.91-6.97C102.68494,200.83831,101.765,198.59832,99.74493,198.59832Zm-57.01,31.47c-.17-.78-.22-1.12-.47-2.56-.17,1.1-.25,1.54-.49,2.56l-.76,3.25h2.43Zm11.99006-31.17h-1.1v5.52h.79c2.46,0,3.32995-.75,3.32995-2.88C57.74493,199.54833,56.98492,198.89831,54.725,198.89831Zm14.53,0h-1.09v5.52h.78c2.46,0,3.33-.75,3.33-2.88C72.275,199.54833,71.525,198.89831,69.25494,198.89831Zm13.5,28.55h-.74v3.74h.53c1.67,0,2.26-.51,2.26-1.95C84.80493,227.8883,84.29492,227.4483,82.75494,227.4483Zm.95-28.55h-1.1v5.52h.79c2.46,0,3.33-.75,3.33-2.88C86.725,199.54833,85.965,198.89831,83.705,198.89831Zm4.84,60.07a1.671,1.671,0,0,0-1.62-1.06c-1.46,0-2.14,1.53-2.14,4.8,0,3.3.64,4.74,2.12,4.74a1.80384,1.80384,0,0,0,1.7-1.15,8.142,8.142,0,0,0,.41-3.24A10.367,10.367,0,0,0,88.54492,258.96831Zm11.2-60.37c-1.85,0-2.86,2.49-2.86,7.08,0,4.7.96,7.03,2.89,7.03s2.91-2.33,2.91-6.97C102.68494,200.83831,101.765,198.59832,99.74493,198.59832Zm42.46,32.23c-1.01,0-1.56,1.03-1.56,2.89,0,1.82.49,2.79,1.41,2.79a1.99341,1.99341,0,0,0,1.5-.65v-4.48A2.13946,2.13946,0,0,0,142.205,230.8283Zm3.29-31.17a3.6733,3.6733,0,0,0-2.49-.56h-.98v13.11h.98a4.06658,4.06658,0,0,0,2.91-.73c.94995-.84,1.35-2.49,1.35-5.63C147.265,202.23833,146.75494,200.49828,145.49493,199.65832Zm0,0a3.6733,3.6733,0,0,0-2.49-.56h-.98v13.11h.98a4.06658,4.06658,0,0,0,2.91-.73c.94995-.84,1.35-2.49,1.35-5.63C147.265,202.23833,146.75494,200.49828,145.49493,199.65832Zm-3.29,31.17c-1.01,0-1.56,1.03-1.56,2.89,0,1.82.49,2.79,1.41,2.79a1.99341,1.99341,0,0,0,1.5-.65v-4.48A2.13946,2.13946,0,0,0,142.205,230.8283Zm-53.66,28.14a1.671,1.671,0,0,0-1.62-1.06c-1.46,0-2.14,1.53-2.14,4.8,0,3.3.64,4.74,2.12,4.74a1.80384,1.80384,0,0,0,1.7-1.15,8.142,8.142,0,0,0,.41-3.24A10.367,10.367,0,0,0,88.54492,258.96831Zm-5.79-31.52h-.74v3.74h.53c1.67,0,2.26-.51,2.26-1.95C84.80493,227.8883,84.29492,227.4483,82.75494,227.4483Zm-13.5-28.55h-1.09v5.52h.78c2.46,0,3.33-.75,3.33-2.88C72.275,199.54833,71.525,198.89831,69.25494,198.89831Zm-26.52,31.17c-.17-.78-.22-1.12-.47-2.56-.17,1.1-.25,1.54-.49,2.56l-.76,3.25h2.43Zm11.99006-31.17h-1.1v5.52h.79c2.46,0,3.32995-.75,3.32995-2.88C57.74493,199.54833,56.98492,198.89831,54.725,198.89831Zm28.98,0h-1.1v5.52h.79c2.46,0,3.33-.75,3.33-2.88C86.725,199.54833,85.965,198.89831,83.705,198.89831Zm16.04-.3c-1.85,0-2.86,2.49-2.86,7.08,0,4.7.96,7.03,2.89,7.03s2.91-2.33,2.91-6.97C102.68494,200.83831,101.765,198.59832,99.74493,198.59832Zm-57.01,31.47c-.17-.78-.22-1.12-.47-2.56-.17,1.1-.25,1.54-.49,2.56l-.76,3.25h2.43Zm11.99006-31.17h-1.1v5.52h.79c2.46,0,3.32995-.75,3.32995-2.88C57.74493,199.54833,56.98492,198.89831,54.725,198.89831Zm14.53,0h-1.09v5.52h.78c2.46,0,3.33-.75,3.33-2.88C72.275,199.54833,71.525,198.89831,69.25494,198.89831Zm13.5,28.55h-.74v3.74h.53c1.67,0,2.26-.51,2.26-1.95C84.80493,227.8883,84.29492,227.4483,82.75494,227.4483Zm.95-28.55h-1.1v5.52h.79c2.46,0,3.33-.75,3.33-2.88C86.725,199.54833,85.965,198.89831,83.705,198.89831Zm4.84,60.07a1.671,1.671,0,0,0-1.62-1.06c-1.46,0-2.14,1.53-2.14,4.8,0,3.3.64,4.74,2.12,4.74a1.80384,1.80384,0,0,0,1.7-1.15,8.142,8.142,0,0,0,.41-3.24A10.367,10.367,0,0,0,88.54492,258.96831Zm11.2-60.37c-1.85,0-2.86,2.49-2.86,7.08,0,4.7.96,7.03,2.89,7.03s2.91-2.33,2.91-6.97C102.68494,200.83831,101.765,198.59832,99.74493,198.59832Zm42.46,32.23c-1.01,0-1.56,1.03-1.56,2.89,0,1.82.49,2.79,1.41,2.79a1.99341,1.99341,0,0,0,1.5-.65v-4.48A2.13946,2.13946,0,0,0,142.205,230.8283Zm3.29-31.17a3.6733,3.6733,0,0,0-2.49-.56h-.98v13.11h.98a4.06658,4.06658,0,0,0,2.91-.73c.94995-.84,1.35-2.49,1.35-5.63C147.265,202.23833,146.75494,200.49828,145.49493,199.65832Zm0,0a3.6733,3.6733,0,0,0-2.49-.56h-.98v13.11h.98a4.06658,4.06658,0,0,0,2.91-.73c.94995-.84,1.35-2.49,1.35-5.63C147.265,202.23833,146.75494,200.49828,145.49493,199.65832Zm-3.29,31.17c-1.01,0-1.56,1.03-1.56,2.89,0,1.82.49,2.79,1.41,2.79a1.99341,1.99341,0,0,0,1.5-.65v-4.48A2.13946,2.13946,0,0,0,142.205,230.8283Zm-53.66,28.14a1.671,1.671,0,0,0-1.62-1.06c-1.46,0-2.14,1.53-2.14,4.8,0,3.3.64,4.74,2.12,4.74a1.80384,1.80384,0,0,0,1.7-1.15,8.142,8.142,0,0,0,.41-3.24A10.367,10.367,0,0,0,88.54492,258.96831Zm-5.79-31.52h-.74v3.74h.53c1.67,0,2.26-.51,2.26-1.95C84.80493,227.8883,84.29492,227.4483,82.75494,227.4483Zm-13.5-28.55h-1.09v5.52h.78c2.46,0,3.33-.75,3.33-2.88C72.275,199.54833,71.525,198.89831,69.25494,198.89831Zm-26.52,31.17c-.17-.78-.22-1.12-.47-2.56-.17,1.1-.25,1.54-.49,2.56l-.76,3.25h2.43Zm11.99006-31.17h-1.1v5.52h.79c2.46,0,3.32995-.75,3.32995-2.88C57.74493,199.54833,56.98492,198.89831,54.725,198.89831Zm28.98,0h-1.1v5.52h.79c2.46,0,3.33-.75,3.33-2.88C86.725,199.54833,85.965,198.89831,83.705,198.89831Zm16.04-.3c-1.85,0-2.86,2.49-2.86,7.08,0,4.7.96,7.03,2.89,7.03s2.91-2.33,2.91-6.97C102.68494,200.83831,101.765,198.59832,99.74493,198.59832Zm68.08-10.36H16.445a20.38484,20.38484,0,0,1-16.44-8.33v81.53c0,.25.01.49.02.73a16.32118,16.32118,0,0,0,16.42,15.62h151.38a16.32111,16.32111,0,0,0,16.41-15.62c.01-.24.02-.48.02-.73v-1.27h.01v-80.26A20.3848,20.3848,0,0,1,167.825,188.23833Zm-43.13,8.4c0-.53.05-.59.59-.59h9.35c.42,0,.56.08.56.31a2.21275,2.21275,0,0,1-.06.36l-.56,1.91c-.11.36-.22.47-.61.47h-5.44v4.59h4.68c.5,0,.59.09.59.59v1.88c0,.5-.09.59-.59.59h-4.68v5.46h5.88c.51,0,.59.08.59.58v1.88c0,.53-.05.59-.59.59h-9.12c-.54,0-.59-.06-.59-.59Zm-29.37.67a6.7625,6.7625,0,0,1,9.32.25c1.4,1.6,2.07,4.2,2.07,7.87006,0,6.82995-2.38,10.3-7.03,10.3q-6.84,0-6.83-10.16C92.85492,201.47832,93.61493,198.98833,95.325,197.30828Zm12.64,35.4a6.02494,6.02494,0,0,1,2.2,1.14,2.70242,2.70242,0,0,1,.78,1.94,3.20481,3.20481,0,0,1-.87,2.2,3.0689,3.0689,0,0,1-2.34.88,7.30549,7.30549,0,0,1-3.23-.8c-.34-.17-.42-.23-.42-.36a.60084.60084,0,0,1,.06-.23l.44-1.16c.06-.13.11-.19.19-.19a.42936.42936,0,0,1,.17.06,5.59836,5.59836,0,0,0,2.58.82.99655.99655,0,0,0,1.11-.99c0-.53-.23-.72-1.47-1.2a5.33424,5.33424,0,0,1-1.97-1.03,2.48675,2.48675,0,0,1-.76-1.86,3.10906,3.10906,0,0,1,3.38-3.09c1.2,0,2.9.51,2.9.87a.45556.45556,0,0,1-.05.21l-.48,1.07995c-.05.12006-.11.17005-.19.17005a.56129.56129,0,0,1-.15-.04,4.976,4.976,0,0,0-1.92-.49c-.78,0-1.21.34-1.21.97C106.715,232.11834,106.92493,232.30828,107.965,232.70831Zm-29.11-36.07c0-.53.06006-.59.59-.59h4.56a8.14109,8.14109,0,0,1,4.15.73q2.38494,1.335,2.38,4.79a5.38216,5.38216,0,0,1-3.14,5.34l4.17,7.31a.86713.86713,0,0,1,.14.42c0,.14-.11.25-.44.34l-2.5.7c-.25.07995-.25.07995-.33.07995-.14,0-.23-.07995-.39-.38995l-3.95-7.98h-1.49v7.28c0,.5-.08.59-.58.59h-2.58c-.53,0-.59-.06-.59-.67Zm-29.06,0c0-.53.05005-.59.59-.59h4.53c2.24,0,3.47.22,4.4.78a5.15874,5.15874,0,0,1,2.13,4.48c0,3.78-2.52,6.28-6.39,6.28h-1.43v7.08c0,.5-.08.59-.58.59h-2.66c-.54,0-.59-.06-.59-.59Zm-13.88995,18.14c-.11005.45-.14.48-.62.48h-2.77c-.42,0-.56-.09-.56-.31a1.37414,1.37414,0,0,1,.09-.36l5.51-18.06c.14-.45.17005-.48.62-.48h2.91c.45,0,.48.03.62.48l5.51,18.06a1.29016,1.29016,0,0,1,.09.36c0,.22-.13995.31-.56.31h-3.06c-.47,0-.53-.03-.64-.48l-1.19995-4.59H37.10492Zm11.36,23.76h-2.08c-.32,0-.36-.02-.43-.32l-.82-3.11h-3.21l-.82,3.11c-.07.3-.09.32-.41.32h-1.88c-.29,0-.38-.05-.38-.21a.81984.81984,0,0,1,.05-.24l3.74-12.26c.1-.3.12-.32.42-.32h1.98c.3,0,.32.02.42.32l3.74,12.26a.983.983,0,0,1,.06.24C47.645,238.48833,47.54492,238.53832,47.265,238.53832Zm9.42-.32c0,.29-.04.32-.32.32h-1.77c-.29,0-.32-.03-.32-.32v-5.85c0-1.12006-.33-1.6-1.09-1.6a2.43316,2.43316,0,0,0-1.65.78v6.67c0,.29-.04.32-.32.32h-1.77c-.28,0-.32-.03-.32-.32v-6.38a4.77812,4.77812,0,0,0-.4-2.07.44918.44918,0,0,1-.06-.19.20836.20836,0,0,1,.16-.17l1.69-.63a.71814.71814,0,0,1,.19-.04c.22,0,.47.48.68,1.31a3.90227,3.90227,0,0,1,2.85-1.21c1.69,0,2.45.93,2.45,3Zm7.6.32a6.25131,6.25131,0,0,1-1.92.33,2.43094,2.43094,0,0,1-2.15-.97,3.25727,3.25727,0,0,1-.41-2.02v-4.95h-1.31c-.29,0-.32995-.04-.32995-.33v-1.12c0-.28.04-.32.32995-.32h1.31v-2.39c0-.27.03-.31.3-.35l1.75-.24h.17c.13,0,.19.06994.19.3v2.68h2.16c.25,0,.33.04.33.19a.49477.49477,0,0,1-.02.17l-.25,1.12c-.06.23-.11.29-.34.29h-1.88v4.61c0,1.01.13,1.22.7,1.22a2.76565,2.76565,0,0,0,1.26-.32995.85879.85879,0,0,1,.17-.03c.09,0,.15.07.19.19l.3,1.33a.54565.54565,0,0,1,.04.21C64.87494,238.31829,64.75494,238.3883,64.285,238.53832Zm.04-23.87v-18.03c0-.53.06-.59.59-.59h4.53c2.24,0,3.48.22,4.4.78a5.135,5.135,0,0,1,2.13,4.48c0,3.78-2.52,6.28-6.39,6.28h-1.42v7.08c0,.5-.09.59-.59.59h-2.66C64.385,215.25829,64.325,215.1983,64.325,214.66833Zm5.01,23.55c0,.29-.03.32-.32.32h-1.77c-.28,0-.32-.03-.32-.32v-7.29h-1.44c-.29,0-.32995-.04-.32995-.33v-1.12c0-.28.04-.32.32995-.32h3.53c.29,0,.32.04.32.32Zm-1.27-10.32a1.535,1.535,0,1,1,1.54-1.53A1.5365,1.5365,0,0,1,68.06494,227.89831Zm3.44,6.54v-1.5c0-.34.04-.38.4-.38h4.75c.34,0,.4.06006.4.38v1.5c0,.34-.04.38-.4.38h-4.75C71.56494,234.81829,71.50494,234.77831,71.50494,234.43829Zm8.4,32.58c.35,0,.41.06.41.41v1.37c0,.35-.06.41-.41.41h-7.02c-.19,0-.27-.08-.27-.28v-.15a5.86664,5.86664,0,0,1,.6-3.24c.57-1.03,1.05-1.5,3.12-3.1,1.33-1.02,1.76-1.72,1.76-2.81a1.47454,1.47454,0,0,0-1.6-1.64c-.96,0-1.44.43-1.97,1.66-.08.19-.18.29-.29.29a.84954.84954,0,0,1-.22-.04l-1.25-.46a.31471.31471,0,0,1-.23-.3,4.313,4.313,0,0,1,1.03-2.04,4.00344,4.00344,0,0,1,3.16-1.27,3.39163,3.39163,0,0,1,3.71,3.72,4.41311,4.41311,0,0,1-1.15,3.12,15.42032,15.42032,0,0,1-2.56,2.15,2.729,2.729,0,0,0-1.38,2.2Zm2.11-28.88c0,.35-.06.4-.4.4h-1.81c-.36,0-.4-.03-.4-.4v-12.23c0-.36.04-.4.4-.4h3.08a5.61423,5.61423,0,0,1,2.98.53,3.46994,3.46994,0,0,1,1.45,3.04,4.03956,4.03956,0,0,1-4.33,4.26h-.97Zm8.26,29.84a4.21347,4.21347,0,0,1-3.45,1.56c-2.94,0-4.56-2.38-4.56-6.75,0-2.59.49-4.41,1.5-5.54a4.40616,4.40616,0,0,1,3.35-1.42,3.95434,3.95434,0,0,1,2.99,1.34c1.01,1.17,1.42,2.71,1.42,5.35C91.525,265.29833,91.17493,266.80828,90.275,267.97832Zm1.26-36.43v6.67c0,.29-.04.32-.33.32h-1.76c-.29,0-.33-.03-.33-.32v-12.71c0-.26.02-.28.29-.34l1.77-.36005a.52571.52571,0,0,1,.17-.02c.13,0,.19.09.19.32v4.83a3.61626,3.61626,0,0,1,2.62-1.1,2.4,2.4,0,0,1,2.09,1.02,3.58809,3.58809,0,0,1,.38,1.96v6.4c0,.29-.04.32-.33.32h-1.76c-.29,0-.33-.03-.33-.32v-5.85c0-1.16-.28-1.6-1.04-1.6A2.27239,2.27239,0,0,0,91.535,231.54833Zm9.31,35.47c.35,0,.41.06.41.41v1.37c0,.35-.06.41-.41.41h-7.02c-.19,0-.27-.08-.27-.28v-.15a5.9567,5.9567,0,0,1,.6-3.24c.57-1.03,1.06-1.5,3.12-3.1,1.33-1.02,1.76-1.72,1.76-2.81a1.47453,1.47453,0,0,0-1.6-1.64c-.96,0-1.44.43-1.97,1.66-.08.19-.17.29-.29.29a.84939.84939,0,0,1-.22-.04l-1.24-.46a.31281.31281,0,0,1-.24-.3,4.25191,4.25191,0,0,1,1.04-2.04,3.98169,3.98169,0,0,1,3.15-1.27,3.39163,3.39163,0,0,1,3.71,3.72,4.41315,4.41315,0,0,1-1.15,3.12,14.95214,14.95214,0,0,1-2.56,2.15,2.729,2.729,0,0,0-1.38,2.2Zm1.21-28.8c0,.29-.04.32-.32.32h-1.77c-.28,0-.32-.03-.32-.32v-7.29h-1.45c-.28,0-.32-.04-.32-.33v-1.12c0-.28.04-.32.32-.32h3.54c.28,0,.32.04.32.32Zm-1.27-10.32a1.535,1.535,0,1,1,1.54-1.53A1.53027,1.53027,0,0,1,100.785,227.89831Zm10.53,40.9c0,.37-.03.41-.41.41h-5.71c-.35,0-.41-.06-.41-.41v-1c0-.35.06-.41.41-.41h1.85v-8.19l-2.02,1.11c-.22.12006-.22.12006-.3.12006-.08,0-.13-.06-.25-.27l-.51-.86a.49078.49078,0,0,1-.11-.29c0-.07995.05-.13995.23-.28l3.67-2.57h1.36c.33,0,.39.06.39.41v10.82h1.4c.38,0,.41.04.41.41Zm1.42-53.63-4.95-18.2a1.95556,1.95556,0,0,1-.06-.33c0-.2.11-.26.5-.34l2.94-.53a.78643.78643,0,0,1,.23-.03h.08c.23,0,.28.11.37.51l2.43,11.39.34,1.76c.14.82.25,1.6.39,2.38.36-1.96.48-2.43.87-4.14l2.63-11.28c.08-.37.17-.48.39-.48l.28.03,2.72.31c.39.05.53.14.53.36a1.25077,1.25077,0,0,1-.06.34l-5.12,18.25c-.11.42-.2.48-.62.48h-3.27C112.87494,215.64831,112.845,215.61834,112.73492,215.16833Zm7.81,23.05c0,.29-.04.32-.33.32h-1.76c-.29,0-.32-.03-.32-.32v-5.85c0-1.16-.29-1.6-1.05-1.6a2.27235,2.27235,0,0,0-1.63.78v6.67c0,.29-.04.32-.33.32h-1.76c-.29,0-.33-.03-.33-.32v-12.71c0-.26.02-.28.29-.34l1.77-.36005a.52539.52539,0,0,1,.17-.02c.13,0,.19.09.19.32v4.83a3.63264,3.63264,0,0,1,2.62-1.1,2.40021,2.40021,0,0,1,2.09,1.02,3.58872,3.58872,0,0,1,.37994,1.96Zm5.43006,0c0,.29-.04.32-.32.32h-1.77c-.28,0-.32-.03-.32-.32v-7.29h-1.44c-.29,0-.33-.04-.33-.33v-1.12c0-.28.04-.32.33-.32h3.53c.28,0,.32.04.32.32Zm-1.27-10.32a1.535,1.535,0,1,1,1.54-1.53A1.53025,1.53025,0,0,1,124.705,227.89831Zm11.66,10.32c0,.29-.03.32-.32.32h-1.77c-.28,0-.32-.03-.32-.32v-5.85c0-1.12006-.32-1.6-1.08-1.6a2.41488,2.41488,0,0,0-1.65.78v6.67c0,.29-.04.32-.33.32h-1.76c-.29,0-.33-.03-.33-.32v-6.38a4.778,4.778,0,0,0-.4-2.07.59392.59392,0,0,1-.05-.19.19538.19538,0,0,1,.15-.17l1.69-.63a.80839.80839,0,0,1,.19-.04c.23,0,.47.48.68,1.31a3.90231,3.90231,0,0,1,2.85-1.21c1.68994,0,2.44995.93,2.44995,3Zm9.94-8.34a4.976,4.976,0,0,0-.42,2.15v2.81c0,1.02.02,2.07.06,3.1.02.51.04.95.04,1.19,0,2.17-1.26995,3.38-3.56994,3.38-1.62006,0-3.86005-.6-3.86005-1.04a.80907.80907,0,0,1,.04-.19l.4-1.31c.04-.12.11-.19.21-.19a.38477.38477,0,0,1,.17.06,6.89078,6.89078,0,0,0,2.81.7c1.06,0,1.46-.44,1.46-1.58,0-.3-.04-.74-.09-1.23a3.6733,3.6733,0,0,1-2.21.7c-1.92,0-3.11005-1.79-3.11005-4.62006,0-3.06,1.35-4.97,3.47-4.97a2.97188,2.97188,0,0,1,2.19.87c.23-.55.51-.93.66-.93a.48887.48887,0,0,1,.19.04l1.5.53c.12.06.18.11.18.19C146.42493,229.59832,146.42493,229.59832,146.30493,229.87829Zm1.43-15.32c-1.12.56006-1.9.7-4.56.7h-4.4c-.5,0-.59-.09-.59-.59v-18.03c0-.51.09-.59.59-.59h4.4a12.61805,12.61805,0,0,1,2.91.17c3.56.67,5.21,3.69,5.21,9.46C151.29492,210.43829,150.145,213.31829,147.73492,214.55828Zm-2.24-14.9a3.6733,3.6733,0,0,0-2.49-.56h-.98v13.11h.98a4.06658,4.06658,0,0,0,2.91-.73c.94995-.84,1.35-2.49,1.35-5.63C147.265,202.23833,146.75494,200.49828,145.49493,199.65832Zm-4.85,34.06c0,1.82.49,2.79,1.41,2.79a1.99341,1.99341,0,0,0,1.5-.65v-4.48a2.13946,2.13946,0,0,0-1.35-.55C141.195,230.8283,140.645,231.85833,140.645,233.71831Zm-40.87-21.01c1.93,0,2.91-2.33,2.91-6.97,0-4.9-.92-7.14-2.94-7.14-1.85,0-2.86,2.49-2.86,7.08C96.885,210.37829,97.845,212.70831,99.775,212.70831Zm-12.85,45.2c-1.46,0-2.14,1.53-2.14,4.8,0,3.3.64,4.74,2.12,4.74a1.80384,1.80384,0,0,0,1.7-1.15,8.142,8.142,0,0,0,.41-3.24,10.367,10.367,0,0,0-.47-4.09A1.671,1.671,0,0,0,86.92493,257.90832Zm-.2-56.37c0-1.99-.76-2.64-3.02-2.64h-1.1v5.52h.79C85.85492,204.41833,86.725,203.66833,86.725,201.53832Zm-1.92005,27.7c0-1.35-.51-1.79-2.05-1.79h-.74v3.74h.53C84.215,231.18829,84.80493,230.67834,84.80493,229.23833Zm-12.53-27.7c0-1.99-.75-2.64-3.02-2.64h-1.09v5.52h.78C71.405,204.41833,72.275,203.66833,72.275,201.53832Zm-14.53,0c0-1.99-.76-2.64-3.01995-2.64h-1.1v5.52h.79C56.87494,204.41833,57.74493,203.66833,57.74493,201.53832Zm-15.48,25.97c-.17,1.1-.25,1.54-.49,2.56l-.76,3.25h2.43l-.71-3.25C42.56494,229.28832,42.515,228.9483,42.265,227.50829Zm57.48-28.91c-1.85,0-2.86,2.49-2.86,7.08,0,4.7.96,7.03,2.89,7.03s2.91-2.33,2.91-6.97C102.68494,200.83831,101.765,198.59832,99.74493,198.59832Zm-16.04.3h-1.1v5.52h.79c2.46,0,3.33-.75,3.33-2.88C86.725,199.54833,85.965,198.89831,83.705,198.89831Zm-28.98,0h-1.1v5.52h.79c2.46,0,3.32995-.75,3.32995-2.88C57.74493,199.54833,56.98492,198.89831,54.725,198.89831Zm-11.99006,31.17c-.17-.78-.22-1.12-.47-2.56-.17,1.1-.25,1.54-.49,2.56l-.76,3.25h2.43Zm26.52-31.17h-1.09v5.52h.78c2.46,0,3.33-.75,3.33-2.88C72.275,199.54833,71.525,198.89831,69.25494,198.89831Zm13.5,28.55h-.74v3.74h.53c1.67,0,2.26-.51,2.26-1.95C84.80493,227.8883,84.29492,227.4483,82.75494,227.4483Zm5.79,31.52a1.671,1.671,0,0,0-1.62-1.06c-1.46,0-2.14,1.53-2.14,4.8,0,3.3.64,4.74,2.12,4.74a1.80384,1.80384,0,0,0,1.7-1.15,8.142,8.142,0,0,0,.41-3.24A10.367,10.367,0,0,0,88.54492,258.96831Zm53.66-28.14c-1.01,0-1.56,1.03-1.56,2.89,0,1.82.49,2.79,1.41,2.79a1.99341,1.99341,0,0,0,1.5-.65v-4.48A2.13946,2.13946,0,0,0,142.205,230.8283Zm3.29-31.17a3.6733,3.6733,0,0,0-2.49-.56h-.98v13.11h.98a4.06658,4.06658,0,0,0,2.91-.73c.94995-.84,1.35-2.49,1.35-5.63C147.265,202.23833,146.75494,200.49828,145.49493,199.65832Zm0,0a3.6733,3.6733,0,0,0-2.49-.56h-.98v13.11h.98a4.06658,4.06658,0,0,0,2.91-.73c.94995-.84,1.35-2.49,1.35-5.63C147.265,202.23833,146.75494,200.49828,145.49493,199.65832Zm-3.29,31.17c-1.01,0-1.56,1.03-1.56,2.89,0,1.82.49,2.79,1.41,2.79a1.99341,1.99341,0,0,0,1.5-.65v-4.48A2.13946,2.13946,0,0,0,142.205,230.8283Zm-42.46-32.23c-1.85,0-2.86,2.49-2.86,7.08,0,4.7.96,7.03,2.89,7.03s2.91-2.33,2.91-6.97C102.68494,200.83831,101.765,198.59832,99.74493,198.59832Zm-11.2,60.37a1.671,1.671,0,0,0-1.62-1.06c-1.46,0-2.14,1.53-2.14,4.8,0,3.3.64,4.74,2.12,4.74a1.80384,1.80384,0,0,0,1.7-1.15,8.142,8.142,0,0,0,.41-3.24A10.367,10.367,0,0,0,88.54492,258.96831Zm-4.84-60.07h-1.1v5.52h.79c2.46,0,3.33-.75,3.33-2.88C86.725,199.54833,85.965,198.89831,83.705,198.89831Zm-.95,28.55h-.74v3.74h.53c1.67,0,2.26-.51,2.26-1.95C84.80493,227.8883,84.29492,227.4483,82.75494,227.4483Zm-13.5-28.55h-1.09v5.52h.78c2.46,0,3.33-.75,3.33-2.88C72.275,199.54833,71.525,198.89831,69.25494,198.89831Zm-14.53,0h-1.1v5.52h.79c2.46,0,3.32995-.75,3.32995-2.88C57.74493,199.54833,56.98492,198.89831,54.725,198.89831Zm-11.99006,31.17c-.17-.78-.22-1.12-.47-2.56-.17,1.1-.25,1.54-.49,2.56l-.76,3.25h2.43Zm57.01-31.47c-1.85,0-2.86,2.49-2.86,7.08,0,4.7.96,7.03,2.89,7.03s2.91-2.33,2.91-6.97C102.68494,200.83831,101.765,198.59832,99.74493,198.59832Zm-16.04.3h-1.1v5.52h.79c2.46,0,3.33-.75,3.33-2.88C86.725,199.54833,85.965,198.89831,83.705,198.89831Zm-28.98,0h-1.1v5.52h.79c2.46,0,3.32995-.75,3.32995-2.88C57.74493,199.54833,56.98492,198.89831,54.725,198.89831Zm-11.99006,31.17c-.17-.78-.22-1.12-.47-2.56-.17,1.1-.25,1.54-.49,2.56l-.76,3.25h2.43Zm26.52-31.17h-1.09v5.52h.78c2.46,0,3.33-.75,3.33-2.88C72.275,199.54833,71.525,198.89831,69.25494,198.89831Zm13.5,28.55h-.74v3.74h.53c1.67,0,2.26-.51,2.26-1.95C84.80493,227.8883,84.29492,227.4483,82.75494,227.4483Zm5.79,31.52a1.671,1.671,0,0,0-1.62-1.06c-1.46,0-2.14,1.53-2.14,4.8,0,3.3.64,4.74,2.12,4.74a1.80384,1.80384,0,0,0,1.7-1.15,8.142,8.142,0,0,0,.41-3.24A10.367,10.367,0,0,0,88.54492,258.96831Zm53.66-28.14c-1.01,0-1.56,1.03-1.56,2.89,0,1.82.49,2.79,1.41,2.79a1.99341,1.99341,0,0,0,1.5-.65v-4.48A2.13946,2.13946,0,0,0,142.205,230.8283Zm3.29-31.17a3.6733,3.6733,0,0,0-2.49-.56h-.98v13.11h.98a4.06658,4.06658,0,0,0,2.91-.73c.94995-.84,1.35-2.49,1.35-5.63C147.265,202.23833,146.75494,200.49828,145.49493,199.65832Zm0,0a3.6733,3.6733,0,0,0-2.49-.56h-.98v13.11h.98a4.06658,4.06658,0,0,0,2.91-.73c.94995-.84,1.35-2.49,1.35-5.63C147.265,202.23833,146.75494,200.49828,145.49493,199.65832Zm-3.29,31.17c-1.01,0-1.56,1.03-1.56,2.89,0,1.82.49,2.79,1.41,2.79a1.99341,1.99341,0,0,0,1.5-.65v-4.48A2.13946,2.13946,0,0,0,142.205,230.8283Zm-42.46-32.23c-1.85,0-2.86,2.49-2.86,7.08,0,4.7.96,7.03,2.89,7.03s2.91-2.33,2.91-6.97C102.68494,200.83831,101.765,198.59832,99.74493,198.59832Zm-11.2,60.37a1.671,1.671,0,0,0-1.62-1.06c-1.46,0-2.14,1.53-2.14,4.8,0,3.3.64,4.74,2.12,4.74a1.80384,1.80384,0,0,0,1.7-1.15,8.142,8.142,0,0,0,.41-3.24A10.367,10.367,0,0,0,88.54492,258.96831Zm-4.84-60.07h-1.1v5.52h.79c2.46,0,3.33-.75,3.33-2.88C86.725,199.54833,85.965,198.89831,83.705,198.89831Zm-.95,28.55h-.74v3.74h.53c1.67,0,2.26-.51,2.26-1.95C84.80493,227.8883,84.29492,227.4483,82.75494,227.4483Zm-13.5-28.55h-1.09v5.52h.78c2.46,0,3.33-.75,3.33-2.88C72.275,199.54833,71.525,198.89831,69.25494,198.89831Zm-14.53,0h-1.1v5.52h.79c2.46,0,3.32995-.75,3.32995-2.88C57.74493,199.54833,56.98492,198.89831,54.725,198.89831Zm-11.99006,31.17c-.17-.78-.22-1.12-.47-2.56-.17,1.1-.25,1.54-.49,2.56l-.76,3.25h2.43Zm57.01-31.47c-1.85,0-2.86,2.49-2.86,7.08,0,4.7.96,7.03,2.89,7.03s2.91-2.33,2.91-6.97C102.68494,200.83831,101.765,198.59832,99.74493,198.59832Zm-16.04.3h-1.1v5.52h.79c2.46,0,3.33-.75,3.33-2.88C86.725,199.54833,85.965,198.89831,83.705,198.89831Zm-28.98,0h-1.1v5.52h.79c2.46,0,3.32995-.75,3.32995-2.88C57.74493,199.54833,56.98492,198.89831,54.725,198.89831Zm14.53,0h-1.09v5.52h.78c2.46,0,3.33-.75,3.33-2.88C72.275,199.54833,71.525,198.89831,69.25494,198.89831Zm13.5,28.55h-.74v3.74h.53c1.67,0,2.26-.51,2.26-1.95C84.80493,227.8883,84.29492,227.4483,82.75494,227.4483Zm5.79,31.52a1.671,1.671,0,0,0-1.62-1.06c-1.46,0-2.14,1.53-2.14,4.8,0,3.3.64,4.74,2.12,4.74a1.80384,1.80384,0,0,0,1.7-1.15,8.142,8.142,0,0,0,.41-3.24A10.367,10.367,0,0,0,88.54492,258.96831Zm53.66-28.14c-1.01,0-1.56,1.03-1.56,2.89,0,1.82.49,2.79,1.41,2.79a1.99341,1.99341,0,0,0,1.5-.65v-4.48A2.13946,2.13946,0,0,0,142.205,230.8283Zm3.29-31.17a3.6733,3.6733,0,0,0-2.49-.56h-.98v13.11h.98a4.06658,4.06658,0,0,0,2.91-.73c.94995-.84,1.35-2.49,1.35-5.63C147.265,202.23833,146.75494,200.49828,145.49493,199.65832Zm0,0a3.6733,3.6733,0,0,0-2.49-.56h-.98v13.11h.98a4.06658,4.06658,0,0,0,2.91-.73c.94995-.84,1.35-2.49,1.35-5.63C147.265,202.23833,146.75494,200.49828,145.49493,199.65832Zm-3.29,31.17c-1.01,0-1.56,1.03-1.56,2.89,0,1.82.49,2.79,1.41,2.79a1.99341,1.99341,0,0,0,1.5-.65v-4.48A2.13946,2.13946,0,0,0,142.205,230.8283Zm-42.46-32.23c-1.85,0-2.86,2.49-2.86,7.08,0,4.7.96,7.03,2.89,7.03s2.91-2.33,2.91-6.97C102.68494,200.83831,101.765,198.59832,99.74493,198.59832Zm-11.2,60.37a1.671,1.671,0,0,0-1.62-1.06c-1.46,0-2.14,1.53-2.14,4.8,0,3.3.64,4.74,2.12,4.74a1.80384,1.80384,0,0,0,1.7-1.15,8.142,8.142,0,0,0,.41-3.24A10.367,10.367,0,0,0,88.54492,258.96831Zm-4.84-60.07h-1.1v5.52h.79c2.46,0,3.33-.75,3.33-2.88C86.725,199.54833,85.965,198.89831,83.705,198.89831Zm-.95,28.55h-.74v3.74h.53c1.67,0,2.26-.51,2.26-1.95C84.80493,227.8883,84.29492,227.4483,82.75494,227.4483Zm-13.5-28.55h-1.09v5.52h.78c2.46,0,3.33-.75,3.33-2.88C72.275,199.54833,71.525,198.89831,69.25494,198.89831Zm-14.53,0h-1.1v5.52h.79c2.46,0,3.32995-.75,3.32995-2.88C57.74493,199.54833,56.98492,198.89831,54.725,198.89831Zm45.01995-.3c-1.85,0-2.86,2.49-2.86,7.08,0,4.7.96,7.03,2.89,7.03s2.91-2.33,2.91-6.97C102.68494,200.83831,101.765,198.59832,99.74493,198.59832Zm-16.04.3h-1.1v5.52h.79c2.46,0,3.33-.75,3.33-2.88C86.725,199.54833,85.965,198.89831,83.705,198.89831Zm-28.98,0h-1.1v5.52h.79c2.46,0,3.32995-.75,3.32995-2.88C57.74493,199.54833,56.98492,198.89831,54.725,198.89831Zm14.53,0h-1.09v5.52h.78c2.46,0,3.33-.75,3.33-2.88C72.275,199.54833,71.525,198.89831,69.25494,198.89831Zm13.5,28.55h-.74v3.74h.53c1.67,0,2.26-.51,2.26-1.95C84.80493,227.8883,84.29492,227.4483,82.75494,227.4483Zm5.79,31.52a1.671,1.671,0,0,0-1.62-1.06c-1.46,0-2.14,1.53-2.14,4.8,0,3.3.64,4.74,2.12,4.74a1.80384,1.80384,0,0,0,1.7-1.15,8.142,8.142,0,0,0,.41-3.24A10.367,10.367,0,0,0,88.54492,258.96831Zm53.66-28.14c-1.01,0-1.56,1.03-1.56,2.89,0,1.82.49,2.79,1.41,2.79a1.99341,1.99341,0,0,0,1.5-.65v-4.48A2.13946,2.13946,0,0,0,142.205,230.8283Zm3.29-31.17a3.6733,3.6733,0,0,0-2.49-.56h-.98v13.11h.98a4.06658,4.06658,0,0,0,2.91-.73c.94995-.84,1.35-2.49,1.35-5.63C147.265,202.23833,146.75494,200.49828,145.49493,199.65832Zm0,0a3.6733,3.6733,0,0,0-2.49-.56h-.98v13.11h.98a4.06658,4.06658,0,0,0,2.91-.73c.94995-.84,1.35-2.49,1.35-5.63C147.265,202.23833,146.75494,200.49828,145.49493,199.65832Zm-3.29,31.17c-1.01,0-1.56,1.03-1.56,2.89,0,1.82.49,2.79,1.41,2.79a1.99341,1.99341,0,0,0,1.5-.65v-4.48A2.13946,2.13946,0,0,0,142.205,230.8283Zm-42.46-32.23c-1.85,0-2.86,2.49-2.86,7.08,0,4.7.96,7.03,2.89,7.03s2.91-2.33,2.91-6.97C102.68494,200.83831,101.765,198.59832,99.74493,198.59832Zm-11.2,60.37a1.671,1.671,0,0,0-1.62-1.06c-1.46,0-2.14,1.53-2.14,4.8,0,3.3.64,4.74,2.12,4.74a1.80384,1.80384,0,0,0,1.7-1.15,8.142,8.142,0,0,0,.41-3.24A10.367,10.367,0,0,0,88.54492,258.96831Zm-4.84-60.07h-1.1v5.52h.79c2.46,0,3.33-.75,3.33-2.88C86.725,199.54833,85.965,198.89831,83.705,198.89831Zm-.95,28.55h-.74v3.74h.53c1.67,0,2.26-.51,2.26-1.95C84.80493,227.8883,84.29492,227.4483,82.75494,227.4483Zm-13.5-28.55h-1.09v5.52h.78c2.46,0,3.33-.75,3.33-2.88C72.275,199.54833,71.525,198.89831,69.25494,198.89831Zm-14.53,0h-1.1v5.52h.79c2.46,0,3.32995-.75,3.32995-2.88C57.74493,199.54833,56.98492,198.89831,54.725,198.89831Zm45.01995-.3c-1.85,0-2.86,2.49-2.86,7.08,0,4.7.96,7.03,2.89,7.03s2.91-2.33,2.91-6.97C102.68494,200.83831,101.765,198.59832,99.74493,198.59832Zm-16.04.3h-1.1v5.52h.79c2.46,0,3.33-.75,3.33-2.88C86.725,199.54833,85.965,198.89831,83.705,198.89831Zm-28.98,0h-1.1v5.52h.79c2.46,0,3.32995-.75,3.32995-2.88C57.74493,199.54833,56.98492,198.89831,54.725,198.89831Zm14.53,0h-1.09v5.52h.78c2.46,0,3.33-.75,3.33-2.88C72.275,199.54833,71.525,198.89831,69.25494,198.89831Zm13.5,28.55h-.74v3.74h.53c1.67,0,2.26-.51,2.26-1.95C84.80493,227.8883,84.29492,227.4483,82.75494,227.4483Zm5.79,31.52a1.671,1.671,0,0,0-1.62-1.06c-1.46,0-2.14,1.53-2.14,4.8,0,3.3.64,4.74,2.12,4.74a1.80384,1.80384,0,0,0,1.7-1.15,8.142,8.142,0,0,0,.41-3.24A10.367,10.367,0,0,0,88.54492,258.96831Zm53.66-28.14c-1.01,0-1.56,1.03-1.56,2.89,0,1.82.49,2.79,1.41,2.79a1.99341,1.99341,0,0,0,1.5-.65v-4.48A2.13946,2.13946,0,0,0,142.205,230.8283Zm3.29-31.17a3.6733,3.6733,0,0,0-2.49-.56h-.98v13.11h.98a4.06658,4.06658,0,0,0,2.91-.73c.94995-.84,1.35-2.49,1.35-5.63C147.265,202.23833,146.75494,200.49828,145.49493,199.65832Zm0,0a3.6733,3.6733,0,0,0-2.49-.56h-.98v13.11h.98a4.06658,4.06658,0,0,0,2.91-.73c.94995-.84,1.35-2.49,1.35-5.63C147.265,202.23833,146.75494,200.49828,145.49493,199.65832Zm-3.29,31.17c-1.01,0-1.56,1.03-1.56,2.89,0,1.82.49,2.79,1.41,2.79a1.99341,1.99341,0,0,0,1.5-.65v-4.48A2.13946,2.13946,0,0,0,142.205,230.8283Zm-42.46-32.23c-1.85,0-2.86,2.49-2.86,7.08,0,4.7.96,7.03,2.89,7.03s2.91-2.33,2.91-6.97C102.68494,200.83831,101.765,198.59832,99.74493,198.59832Zm-11.2,60.37a1.671,1.671,0,0,0-1.62-1.06c-1.46,0-2.14,1.53-2.14,4.8,0,3.3.64,4.74,2.12,4.74a1.80384,1.80384,0,0,0,1.7-1.15,8.142,8.142,0,0,0,.41-3.24A10.367,10.367,0,0,0,88.54492,258.96831Zm-4.84-60.07h-1.1v5.52h.79c2.46,0,3.33-.75,3.33-2.88C86.725,199.54833,85.965,198.89831,83.705,198.89831Zm-.95,28.55h-.74v3.74h.53c1.67,0,2.26-.51,2.26-1.95C84.80493,227.8883,84.29492,227.4483,82.75494,227.4483Zm-13.5-28.55h-1.09v5.52h.78c2.46,0,3.33-.75,3.33-2.88C72.275,199.54833,71.525,198.89831,69.25494,198.89831Zm-14.53,0h-1.1v5.52h.79c2.46,0,3.32995-.75,3.32995-2.88C57.74493,199.54833,56.98492,198.89831,54.725,198.89831Zm45.01995-.3c-1.85,0-2.86,2.49-2.86,7.08,0,4.7.96,7.03,2.89,7.03s2.91-2.33,2.91-6.97C102.68494,200.83831,101.765,198.59832,99.74493,198.59832Zm-16.04.3h-1.1v5.52h.79c2.46,0,3.33-.75,3.33-2.88C86.725,199.54833,85.965,198.89831,83.705,198.89831Zm-28.98,0h-1.1v5.52h.79c2.46,0,3.32995-.75,3.32995-2.88C57.74493,199.54833,56.98492,198.89831,54.725,198.89831Zm14.53,0h-1.09v5.52h.78c2.46,0,3.33-.75,3.33-2.88C72.275,199.54833,71.525,198.89831,69.25494,198.89831Zm13.5,28.55h-.74v3.74h.53c1.67,0,2.26-.51,2.26-1.95C84.80493,227.8883,84.29492,227.4483,82.75494,227.4483Zm5.79,31.52a1.671,1.671,0,0,0-1.62-1.06c-1.46,0-2.14,1.53-2.14,4.8,0,3.3.64,4.74,2.12,4.74a1.80384,1.80384,0,0,0,1.7-1.15,8.142,8.142,0,0,0,.41-3.24A10.367,10.367,0,0,0,88.54492,258.96831Zm53.66-28.14c-1.01,0-1.56,1.03-1.56,2.89,0,1.82.49,2.79,1.41,2.79a1.99341,1.99341,0,0,0,1.5-.65v-4.48A2.13946,2.13946,0,0,0,142.205,230.8283Zm3.29-31.17a3.6733,3.6733,0,0,0-2.49-.56h-.98v13.11h.98a4.06658,4.06658,0,0,0,2.91-.73c.94995-.84,1.35-2.49,1.35-5.63C147.265,202.23833,146.75494,200.49828,145.49493,199.65832Zm0,0a3.6733,3.6733,0,0,0-2.49-.56h-.98v13.11h.98a4.06658,4.06658,0,0,0,2.91-.73c.94995-.84,1.35-2.49,1.35-5.63C147.265,202.23833,146.75494,200.49828,145.49493,199.65832Zm-3.29,31.17c-1.01,0-1.56,1.03-1.56,2.89,0,1.82.49,2.79,1.41,2.79a1.99341,1.99341,0,0,0,1.5-.65v-4.48A2.13946,2.13946,0,0,0,142.205,230.8283Zm-42.46-32.23c-1.85,0-2.86,2.49-2.86,7.08,0,4.7.96,7.03,2.89,7.03s2.91-2.33,2.91-6.97C102.68494,200.83831,101.765,198.59832,99.74493,198.59832Zm-11.2,60.37a1.671,1.671,0,0,0-1.62-1.06c-1.46,0-2.14,1.53-2.14,4.8,0,3.3.64,4.74,2.12,4.74a1.80384,1.80384,0,0,0,1.7-1.15,8.142,8.142,0,0,0,.41-3.24A10.367,10.367,0,0,0,88.54492,258.96831Zm-4.84-60.07h-1.1v5.52h.79c2.46,0,3.33-.75,3.33-2.88C86.725,199.54833,85.965,198.89831,83.705,198.89831Zm-.95,28.55h-.74v3.74h.53c1.67,0,2.26-.51,2.26-1.95C84.80493,227.8883,84.29492,227.4483,82.75494,227.4483Zm-13.5-28.55h-1.09v5.52h.78c2.46,0,3.33-.75,3.33-2.88C72.275,199.54833,71.525,198.89831,69.25494,198.89831Zm-14.53,0h-1.1v5.52h.79c2.46,0,3.32995-.75,3.32995-2.88C57.74493,199.54833,56.98492,198.89831,54.725,198.89831Zm45.01995-.3c-1.85,0-2.86,2.49-2.86,7.08,0,4.7.96,7.03,2.89,7.03s2.91-2.33,2.91-6.97C102.68494,200.83831,101.765,198.59832,99.74493,198.59832Zm-16.04.3h-1.1v5.52h.79c2.46,0,3.33-.75,3.33-2.88C86.725,199.54833,85.965,198.89831,83.705,198.89831Zm-28.98,0h-1.1v5.52h.79c2.46,0,3.32995-.75,3.32995-2.88C57.74493,199.54833,56.98492,198.89831,54.725,198.89831Zm14.53,0h-1.09v5.52h.78c2.46,0,3.33-.75,3.33-2.88C72.275,199.54833,71.525,198.89831,69.25494,198.89831Zm13.5,28.55h-.74v3.74h.53c1.67,0,2.26-.51,2.26-1.95C84.80493,227.8883,84.29492,227.4483,82.75494,227.4483Zm59.45,3.38c-1.01,0-1.56,1.03-1.56,2.89,0,1.82.49,2.79,1.41,2.79a1.99341,1.99341,0,0,0,1.5-.65v-4.48A2.13946,2.13946,0,0,0,142.205,230.8283Zm3.29-31.17a3.6733,3.6733,0,0,0-2.49-.56h-.98v13.11h.98a4.06658,4.06658,0,0,0,2.91-.73c.94995-.84,1.35-2.49,1.35-5.63C147.265,202.23833,146.75494,200.49828,145.49493,199.65832Zm0,0a3.6733,3.6733,0,0,0-2.49-.56h-.98v13.11h.98a4.06658,4.06658,0,0,0,2.91-.73c.94995-.84,1.35-2.49,1.35-5.63C147.265,202.23833,146.75494,200.49828,145.49493,199.65832Zm-3.29,31.17c-1.01,0-1.56,1.03-1.56,2.89,0,1.82.49,2.79,1.41,2.79a1.99341,1.99341,0,0,0,1.5-.65v-4.48A2.13946,2.13946,0,0,0,142.205,230.8283Zm-42.46-32.23c-1.85,0-2.86,2.49-2.86,7.08,0,4.7.96,7.03,2.89,7.03s2.91-2.33,2.91-6.97C102.68494,200.83831,101.765,198.59832,99.74493,198.59832Zm-16.04.3h-1.1v5.52h.79c2.46,0,3.33-.75,3.33-2.88C86.725,199.54833,85.965,198.89831,83.705,198.89831Zm-.95,28.55h-.74v3.74h.53c1.67,0,2.26-.51,2.26-1.95C84.80493,227.8883,84.29492,227.4483,82.75494,227.4483Zm-13.5-28.55h-1.09v5.52h.78c2.46,0,3.33-.75,3.33-2.88C72.275,199.54833,71.525,198.89831,69.25494,198.89831Zm-14.53,0h-1.1v5.52h.79c2.46,0,3.32995-.75,3.32995-2.88C57.74493,199.54833,56.98492,198.89831,54.725,198.89831Zm45.01995-.3c-1.85,0-2.86,2.49-2.86,7.08,0,4.7.96,7.03,2.89,7.03s2.91-2.33,2.91-6.97C102.68494,200.83831,101.765,198.59832,99.74493,198.59832Zm-16.04.3h-1.1v5.52h.79c2.46,0,3.33-.75,3.33-2.88C86.725,199.54833,85.965,198.89831,83.705,198.89831Zm-28.98,0h-1.1v5.52h.79c2.46,0,3.32995-.75,3.32995-2.88C57.74493,199.54833,56.98492,198.89831,54.725,198.89831Zm14.53,0h-1.09v5.52h.78c2.46,0,3.33-.75,3.33-2.88C72.275,199.54833,71.525,198.89831,69.25494,198.89831Zm72.95,31.93c-1.01,0-1.56,1.03-1.56,2.89,0,1.82.49,2.79,1.41,2.79a1.99341,1.99341,0,0,0,1.5-.65v-4.48A2.13946,2.13946,0,0,0,142.205,230.8283Zm3.29-31.17a3.6733,3.6733,0,0,0-2.49-.56h-.98v13.11h.98a4.06658,4.06658,0,0,0,2.91-.73c.94995-.84,1.35-2.49,1.35-5.63C147.265,202.23833,146.75494,200.49828,145.49493,199.65832Zm0,0a3.6733,3.6733,0,0,0-2.49-.56h-.98v13.11h.98a4.06658,4.06658,0,0,0,2.91-.73c.94995-.84,1.35-2.49,1.35-5.63C147.265,202.23833,146.75494,200.49828,145.49493,199.65832Zm-3.29,31.17c-1.01,0-1.56,1.03-1.56,2.89,0,1.82.49,2.79,1.41,2.79a1.99341,1.99341,0,0,0,1.5-.65v-4.48A2.13946,2.13946,0,0,0,142.205,230.8283Zm-42.46-32.23c-1.85,0-2.86,2.49-2.86,7.08,0,4.7.96,7.03,2.89,7.03s2.91-2.33,2.91-6.97C102.68494,200.83831,101.765,198.59832,99.74493,198.59832Zm-16.04.3h-1.1v5.52h.79c2.46,0,3.33-.75,3.33-2.88C86.725,199.54833,85.965,198.89831,83.705,198.89831Zm-14.45,0h-1.09v5.52h.78c2.46,0,3.33-.75,3.33-2.88C72.275,199.54833,71.525,198.89831,69.25494,198.89831Zm-14.53,0h-1.1v5.52h.79c2.46,0,3.32995-.75,3.32995-2.88C57.74493,199.54833,56.98492,198.89831,54.725,198.89831Zm45.01995-.3c-1.85,0-2.86,2.49-2.86,7.08,0,4.7.96,7.03,2.89,7.03s2.91-2.33,2.91-6.97C102.68494,200.83831,101.765,198.59832,99.74493,198.59832Zm-16.04.3h-1.1v5.52h.79c2.46,0,3.33-.75,3.33-2.88C86.725,199.54833,85.965,198.89831,83.705,198.89831Zm-28.98,0h-1.1v5.52h.79c2.46,0,3.32995-.75,3.32995-2.88C57.74493,199.54833,56.98492,198.89831,54.725,198.89831Zm14.53,0h-1.09v5.52h.78c2.46,0,3.33-.75,3.33-2.88C72.275,199.54833,71.525,198.89831,69.25494,198.89831Zm72.95,31.93c-1.01,0-1.56,1.03-1.56,2.89,0,1.82.49,2.79,1.41,2.79a1.99341,1.99341,0,0,0,1.5-.65v-4.48A2.13946,2.13946,0,0,0,142.205,230.8283Zm3.29-31.17a3.6733,3.6733,0,0,0-2.49-.56h-.98v13.11h.98a4.06658,4.06658,0,0,0,2.91-.73c.94995-.84,1.35-2.49,1.35-5.63C147.265,202.23833,146.75494,200.49828,145.49493,199.65832Zm0,0a3.6733,3.6733,0,0,0-2.49-.56h-.98v13.11h.98a4.06658,4.06658,0,0,0,2.91-.73c.94995-.84,1.35-2.49,1.35-5.63C147.265,202.23833,146.75494,200.49828,145.49493,199.65832Zm-3.29,31.17c-1.01,0-1.56,1.03-1.56,2.89,0,1.82.49,2.79,1.41,2.79a1.99341,1.99341,0,0,0,1.5-.65v-4.48A2.13946,2.13946,0,0,0,142.205,230.8283Zm-42.46-32.23c-1.85,0-2.86,2.49-2.86,7.08,0,4.7.96,7.03,2.89,7.03s2.91-2.33,2.91-6.97C102.68494,200.83831,101.765,198.59832,99.74493,198.59832Zm-16.04.3h-1.1v5.52h.79c2.46,0,3.33-.75,3.33-2.88C86.725,199.54833,85.965,198.89831,83.705,198.89831Zm-14.45,0h-1.09v5.52h.78c2.46,0,3.33-.75,3.33-2.88C72.275,199.54833,71.525,198.89831,69.25494,198.89831Zm-14.53,0h-1.1v5.52h.79c2.46,0,3.32995-.75,3.32995-2.88C57.74493,199.54833,56.98492,198.89831,54.725,198.89831Zm45.01995-.3c-1.85,0-2.86,2.49-2.86,7.08,0,4.7.96,7.03,2.89,7.03s2.91-2.33,2.91-6.97C102.68494,200.83831,101.765,198.59832,99.74493,198.59832Zm-16.04.3h-1.1v5.52h.79c2.46,0,3.33-.75,3.33-2.88C86.725,199.54833,85.965,198.89831,83.705,198.89831Zm-28.98,0h-1.1v5.52h.79c2.46,0,3.32995-.75,3.32995-2.88C57.74493,199.54833,56.98492,198.89831,54.725,198.89831Zm14.53,0h-1.09v5.52h.78c2.46,0,3.33-.75,3.33-2.88C72.275,199.54833,71.525,198.89831,69.25494,198.89831Zm72.95,31.93c-1.01,0-1.56,1.03-1.56,2.89,0,1.82.49,2.79,1.41,2.79a1.99341,1.99341,0,0,0,1.5-.65v-4.48A2.13946,2.13946,0,0,0,142.205,230.8283Zm3.29-31.17a3.6733,3.6733,0,0,0-2.49-.56h-.98v13.11h.98a4.06658,4.06658,0,0,0,2.91-.73c.94995-.84,1.35-2.49,1.35-5.63C147.265,202.23833,146.75494,200.49828,145.49493,199.65832Zm0,0a3.6733,3.6733,0,0,0-2.49-.56h-.98v13.11h.98a4.06658,4.06658,0,0,0,2.91-.73c.94995-.84,1.35-2.49,1.35-5.63C147.265,202.23833,146.75494,200.49828,145.49493,199.65832Zm-3.29,31.17c-1.01,0-1.56,1.03-1.56,2.89,0,1.82.49,2.79,1.41,2.79a1.99341,1.99341,0,0,0,1.5-.65v-4.48A2.13946,2.13946,0,0,0,142.205,230.8283Zm-42.46-32.23c-1.85,0-2.86,2.49-2.86,7.08,0,4.7.96,7.03,2.89,7.03s2.91-2.33,2.91-6.97C102.68494,200.83831,101.765,198.59832,99.74493,198.59832Zm-16.04.3h-1.1v5.52h.79c2.46,0,3.33-.75,3.33-2.88C86.725,199.54833,85.965,198.89831,83.705,198.89831Zm-14.45,0h-1.09v5.52h.78c2.46,0,3.33-.75,3.33-2.88C72.275,199.54833,71.525,198.89831,69.25494,198.89831Zm-14.53,0h-1.1v5.52h.79c2.46,0,3.32995-.75,3.32995-2.88C57.74493,199.54833,56.98492,198.89831,54.725,198.89831Zm45.01995-.3c-1.85,0-2.86,2.49-2.86,7.08,0,4.7.96,7.03,2.89,7.03s2.91-2.33,2.91-6.97C102.68494,200.83831,101.765,198.59832,99.74493,198.59832Zm-16.04.3h-1.1v5.52h.79c2.46,0,3.33-.75,3.33-2.88C86.725,199.54833,85.965,198.89831,83.705,198.89831Zm-28.98,0h-1.1v5.52h.79c2.46,0,3.32995-.75,3.32995-2.88C57.74493,199.54833,56.98492,198.89831,54.725,198.89831Zm14.53,0h-1.09v5.52h.78c2.46,0,3.33-.75,3.33-2.88C72.275,199.54833,71.525,198.89831,69.25494,198.89831Zm72.95,31.93c-1.01,0-1.56,1.03-1.56,2.89,0,1.82.49,2.79,1.41,2.79a1.99341,1.99341,0,0,0,1.5-.65v-4.48A2.13946,2.13946,0,0,0,142.205,230.8283Zm3.29-31.17a3.6733,3.6733,0,0,0-2.49-.56h-.98v13.11h.98a4.06658,4.06658,0,0,0,2.91-.73c.94995-.84,1.35-2.49,1.35-5.63C147.265,202.23833,146.75494,200.49828,145.49493,199.65832Zm0,0a3.6733,3.6733,0,0,0-2.49-.56h-.98v13.11h.98a4.06658,4.06658,0,0,0,2.91-.73c.94995-.84,1.35-2.49,1.35-5.63C147.265,202.23833,146.75494,200.49828,145.49493,199.65832Zm-3.29,31.17c-1.01,0-1.56,1.03-1.56,2.89,0,1.82.49,2.79,1.41,2.79a1.99341,1.99341,0,0,0,1.5-.65v-4.48A2.13946,2.13946,0,0,0,142.205,230.8283Zm-42.46-32.23c-1.85,0-2.86,2.49-2.86,7.08,0,4.7.96,7.03,2.89,7.03s2.91-2.33,2.91-6.97C102.68494,200.83831,101.765,198.59832,99.74493,198.59832Zm-16.04.3h-1.1v5.52h.79c2.46,0,3.33-.75,3.33-2.88C86.725,199.54833,85.965,198.89831,83.705,198.89831Zm-14.45,0h-1.09v5.52h.78c2.46,0,3.33-.75,3.33-2.88C72.275,199.54833,71.525,198.89831,69.25494,198.89831Zm-14.53,0h-1.1v5.52h.79c2.46,0,3.32995-.75,3.32995-2.88C57.74493,199.54833,56.98492,198.89831,54.725,198.89831Zm45.01995-.3c-1.85,0-2.86,2.49-2.86,7.08,0,4.7.96,7.03,2.89,7.03s2.91-2.33,2.91-6.97C102.68494,200.83831,101.765,198.59832,99.74493,198.59832Zm-16.04.3h-1.1v5.52h.79c2.46,0,3.33-.75,3.33-2.88C86.725,199.54833,85.965,198.89831,83.705,198.89831Zm-28.98,0h-1.1v5.52h.79c2.46,0,3.32995-.75,3.32995-2.88C57.74493,199.54833,56.98492,198.89831,54.725,198.89831Zm14.53,0h-1.09v5.52h.78c2.46,0,3.33-.75,3.33-2.88C72.275,199.54833,71.525,198.89831,69.25494,198.89831Zm30.49-.3c-1.85,0-2.86,2.49-2.86,7.08,0,4.7.96,7.03,2.89,7.03s2.91-2.33,2.91-6.97C102.68494,200.83831,101.765,198.59832,99.74493,198.59832Zm-16.04.3h-1.1v5.52h.79c2.46,0,3.33-.75,3.33-2.88C86.725,199.54833,85.965,198.89831,83.705,198.89831Zm-14.45,0h-1.09v5.52h.78c2.46,0,3.33-.75,3.33-2.88C72.275,199.54833,71.525,198.89831,69.25494,198.89831Zm-14.53,0h-1.1v5.52h.79c2.46,0,3.32995-.75,3.32995-2.88C57.74493,199.54833,56.98492,198.89831,54.725,198.89831Zm45.01995-.3c-1.85,0-2.86,2.49-2.86,7.08,0,4.7.96,7.03,2.89,7.03s2.91-2.33,2.91-6.97C102.68494,200.83831,101.765,198.59832,99.74493,198.59832Zm-16.04.3h-1.1v5.52h.79c2.46,0,3.33-.75,3.33-2.88C86.725,199.54833,85.965,198.89831,83.705,198.89831Zm-28.98,0h-1.1v5.52h.79c2.46,0,3.32995-.75,3.32995-2.88C57.74493,199.54833,56.98492,198.89831,54.725,198.89831Zm14.53,0h-1.09v5.52h.78c2.46,0,3.33-.75,3.33-2.88C72.275,199.54833,71.525,198.89831,69.25494,198.89831Zm30.49-.3c-1.85,0-2.86,2.49-2.86,7.08,0,4.7.96,7.03,2.89,7.03s2.91-2.33,2.91-6.97C102.68494,200.83831,101.765,198.59832,99.74493,198.59832Zm-16.04.3h-1.1v5.52h.79c2.46,0,3.33-.75,3.33-2.88C86.725,199.54833,85.965,198.89831,83.705,198.89831Zm-14.45,0h-1.09v5.52h.78c2.46,0,3.33-.75,3.33-2.88C72.275,199.54833,71.525,198.89831,69.25494,198.89831Zm-14.53,0h-1.1v5.52h.79c2.46,0,3.32995-.75,3.32995-2.88C57.74493,199.54833,56.98492,198.89831,54.725,198.89831Zm0,0h-1.1v5.52h.79c2.46,0,3.32995-.75,3.32995-2.88C57.74493,199.54833,56.98492,198.89831,54.725,198.89831Zm14.53,0h-1.09v5.52h.78c2.46,0,3.33-.75,3.33-2.88C72.275,199.54833,71.525,198.89831,69.25494,198.89831Zm0,0h-1.09v5.52h.78c2.46,0,3.33-.75,3.33-2.88C72.275,199.54833,71.525,198.89831,69.25494,198.89831Zm-14.53,0h-1.1v5.52h.79c2.46,0,3.32995-.75,3.32995-2.88C57.74493,199.54833,56.98492,198.89831,54.725,198.89831Z" fill="#959ca1"></path><path d="M.39,171.3c-.02-.07-.03-.14-.05-.21a2.00268,2.00268,0,0,1-.04-.24A3.581,3.581,0,0,0,.39,171.3Z" fill="#f39325"></path><path d="M.96,173.31a3.16343,3.16343,0,0,1-.17-.52c.03.11.07.22.11.33A.69652.69652,0,0,0,.96,173.31Z" fill="#f39325"></path><path d="M3.06,177.34a1.36414,1.36414,0,0,1-.15-.21.18669.18669,0,0,0,.06.07C3,177.25,3.03,177.3,3.06,177.34Z" fill="#f39325"></path><path d="M7.25,181.43a14.58283,14.58283,0,0,1-1.86-1.46A15.5355,15.5355,0,0,0,7.25,181.43Z" fill="#f39325"></path><rect x="4.01001" y="128.32001" width="176.25" height="0.06" fill="#959ca1"></rect><path d="M75.41456,34.36647c-.58966-1.86371-1.37189-2.45093-3.33551-2.45093H54.23011c-1.96356,0-2.74591.58722-3.33551,2.45093L30.59168,96.44661a8.94914,8.94914,0,0,0-.48846,2.05981,2.34016,2.34016,0,0,0,2.6466,2.6474h14.712c1.96167,0,2.7478-.58862,3.23626-2.45184l1.86432-7.64892H70.50867l1.767,7.64892c.39117,1.86322,1.2746,2.45184,3.23627,2.45184H93.55933a2.33939,2.33939,0,0,0,2.64661-2.6474,8.94887,8.94887,0,0,0-.48841-2.05981ZM55.602,78.2054,58.64374,65.554c1.66571-6.96307,3.03968-16.28015,3.03968-16.28015H61.88S63.15455,58.5909,64.723,65.554L67.56818,78.2054Z" fill="#959ca1"></path><path d="M151.5102,31.91554H136.11127c-1.96356,0-2.74591.58722-3.23822,2.45093l-6.96289,27.06842c-1.07806,4.31464-1.86432,10.39569-1.86432,10.39569h-.19458s-.687-6.08105-1.66772-10.39569l-6.2779-27.06842c-.39117-1.86371-1.27465-2.45093-3.23632-2.45093H94.0362a2.34077,2.34077,0,0,0-2.64856,2.648,8.89179,8.89179,0,0,0,.49029,2.05927L112.76667,98.702c.58966,1.86322,1.37579,2.45184,3.33545,2.45184h13.33813c1.96356,0,2.7478-.58862,3.33545-2.45184l20.89264-62.07922a8.97928,8.97928,0,0,0,.4884-2.05927A2.34015,2.34015,0,0,0,151.5102,31.91554Z" fill="#959ca1"></path></svg>