<svg xmlns="http://www.w3.org/2000/svg" id="Layer_1" data-name="Layer 1" viewBox="0 0 358.47998 184.23999"><path d="M180.75,180.92c.12.08.24.17.36.26-.12-.09-.23-.18-.35-.27Z" fill="#959ca1"></path><polygon points="237.17 51.53 232.65 41.52 228.13 51.53 217.21 52.73 225.33 60.13 224.83 71.73 232.65 65.45 242.19 70.9 239.96 60.14 248.09 52.74 237.17 51.53" fill="#959ca1"></polygon><polygon points="276.22 51.53 271.7 41.52 267.18 51.53 256.25 52.73 264.38 60.13 263.88 71.73 271.69 65.45 281.24 70.9 279.01 60.14 287.14 52.74 276.22 51.53" fill="#959ca1"></polygon><path d="M298.885,149.81337a3.19116,3.19116,0,0,0-3.08-1.99c-2.77,0-4.07,2.88-4.07,9.1,0,6.25,1.22,8.99,4.04,8.99a3.42531,3.42531,0,0,0,3.22-2.18006c.55-1.3.77-2.88995.77-6.15C299.76489,153.29335,299.54492,151.33339,298.885,149.81337Zm0,0a3.19116,3.19116,0,0,0-3.08-1.99c-2.77,0-4.07,2.88-4.07,9.1,0,6.25,1.22,8.99,4.04,8.99a3.42531,3.42531,0,0,0,3.22-2.18006c.55-1.3.77-2.88995.77-6.15C299.76489,153.29335,299.54492,151.33339,298.885,149.81337Zm-90.03,2.93c-.33-1.52-.44-2.19-.92-5a49.23219,49.23219,0,0,1-.96,5l-1.48,6.32h4.73Zm19.36-5.11h-1.45v7.29h1.04c3.25,0,4.4-1,4.4-3.81C232.2049,148.48335,231.2049,147.63338,228.2149,147.63338Zm70.67005,2.18a3.19116,3.19116,0,0,0-3.08-1.99c-2.77,0-4.07,2.88-4.07,9.1,0,6.25,1.22,8.99,4.04,8.99a3.42531,3.42531,0,0,0,3.22-2.18006c.55-1.3.77-2.88995.77-6.15C299.76489,153.29335,299.54492,151.33339,298.885,149.81337Zm0,0a3.19116,3.19116,0,0,0-3.08-1.99c-2.77,0-4.07,2.88-4.07,9.1,0,6.25,1.22,8.99,4.04,8.99a3.42531,3.42531,0,0,0,3.22-2.18006c.55-1.3.77-2.88995.77-6.15C299.76489,153.29335,299.54492,151.33339,298.885,149.81337Zm-70.67-2.18h-1.45v7.29h1.04c3.25,0,4.4-1,4.4-3.81C232.2049,148.48335,231.2049,147.63338,228.2149,147.63338Zm-19.36,5.11c-.33-1.52-.44-2.19-.92-5a49.23219,49.23219,0,0,1-.96,5l-1.48,6.32h4.73Zm133.2-152.74h-162.31a19.736,19.736,0,0,1,2.3,2,20.6991,20.6991,0,0,1,1.75,2h158.26c6.86,0,12.43,5.94,12.43,13.23V130.66341h-166.23v37.12994a20.36314,20.36314,0,0,1-5.8,14.25,19.474,19.474,0,0,1-2.51,2.2h162.11c.27,0,.54-.01.81-.02.2-.01.39-.02.59-.04a5.13123,5.13123,0,0,0,.55-.06c.27-.03.53-.06.79-.11.02,0,.04-.01.06-.01s.03-.01.05-.01h.02l.15-.03c.22-.04.44-.08.65-.14.14-.03.29-.07.43-.1a.44961.44961,0,0,0,.11-.03c.02,0,.03-.01.05-.01.33-.09.65-.18.97-.3a7.64916,7.64916,0,0,0,.8-.29c.07-.02.13-.05.19-.07.02-.01.05-.02.07-.03a1.03781,1.03781,0,0,0,.1-.04h.01c.07-.03.14-.07.21-.1.06-.03.11-.05.17-.08.12-.05.23-.1.34-.15a1.09224,1.09224,0,0,0,.15-.08c.01,0,.02-.01.03-.01.07-.04.13-.07.19-.1a3.90171,3.90171,0,0,0,.35-.18.21676.21676,0,0,1,.05-.03c.18-.1.35-.2.53-.31a.31247.31247,0,0,0,.1-.05.903.903,0,0,0,.16-.11,5.288,5.288,0,0,0,.5-.32c.09-.06.18-.12.27-.19.11-.07995.22-.15.33-.23.14-.1.28-.21.41-.32a.55286.55286,0,0,0,.08-.06q.405-.315.78-.66c.13-.12.26-.24.38-.36.07-.06.13-.13.19-.19.18-.18.36-.37.54-.56a.0098.0098,0,0,1,.01-.01c.17-.18994.34-.39.51-.59.13-.16.26-.33.38-.49.04-.04.07-.09.11-.13v-.01c.16-.21.31-.42.45-.64.01,0,.01,0,.01-.01.13995-.21.28-.43.42-.65.07-.11.13-.23.19-.34l.21-.36c.02-.04.04-.07.06-.11.04-.08.09-.16.13-.25a1.009,1.009,0,0,0,.06994-.15,1.86429,1.86429,0,0,0,.1-.2,6.62967,6.62967,0,0,0,.3-.66c.01-.02.02-.05.03-.07.1-.24.2-.49.29-.74a4.55223,4.55223,0,0,0,.18-.52,1.82717,1.82717,0,0,0,.08-.25.5665.5665,0,0,0,.04-.12c.06-.21.13-.43.18-.65v-.01c.06-.23.12-.46.17005-.69a.2918.2918,0,0,1,.02-.09c.03-.15.05-.31.08-.46,0-.01.01-.03.01-.04v-.02c0-.01.01-.02,0-.03a.09014.09014,0,0,0,.01-.05.35726.35726,0,0,0,.02-.1c.01-.04.01-.07.02-.11.04-.26.07-.52.1-.78a.1266.1266,0,0,1,.01-.06c.05-.55.08-1.11.08-1.68v-150.56C358.48492,7.71339,351.135.00337,342.05493.00337Zm-124.39,169.24h-4.03c-.63,0-.71-.04-.85-.63l-1.59-6.07h-6.26l-1.59,6.07c-.15.59-.18.63-.81.63h-3.67c-.55,0-.74-.11-.74-.41a2.19385,2.19385,0,0,1,.11-.48l7.29-23.87c.19-.59.23-.62.82-.62h3.85c.59,0,.62994.03.81.62l7.29,23.87a2.19333,2.19333,0,0,1,.11.48C218.40491,169.13338,218.22491,169.24336,217.66492,169.24336Zm10.99-10.14h-1.89v9.36c0,.67-.11.78-.78.78h-3.51c-.7,0-.78-.07-.78-.78v-23.83c0-.7.07995-.77.78-.77h5.99c2.96,0,4.59.29,5.81,1.03a6.8066,6.8066,0,0,1,2.82,5.92C237.09491,155.81337,233.76489,159.10335,228.65491,159.10335Zm28.64,9.77-3.3.93c-.33.11005-.33.11005-.44.11005-.18,0-.3-.11005-.52-.52l-5.21-10.55h-1.97v9.62c0,.67-.11.78-.77.78h-3.41c-.7,0-.77-.07-.77-.89v-23.72c0-.7.07-.77.77-.77h6.03c2.78,0,4.19.26,5.48.96,2.11,1.18,3.15,3.29,3.15,6.33,0,3.4-1.23,5.51-4.15,7.06l5.51,9.66a1.16517,1.16517,0,0,1,.19.56C257.885,168.61336,257.73492,168.76338,257.29492,168.87337Zm25.19-3.77c.67,0,.78.11.78.77v2.59c0,.67-.11.78-.78.78h-13.32c-.37,0-.51-.15-.51-.52v-.29c0-3.08.22-4.48,1.14-6.15,1.08-1.96,2-2.85,5.92-5.88,2.52-1.92005,3.33-3.26,3.33-5.33a2.78716,2.78716,0,0,0-3.03-3.11c-1.81,0-2.74.82-3.74,3.15-.15.37-.32995.55-.55.55a1.47031,1.47031,0,0,1-.41-.07l-2.37-.89a.57457.57457,0,0,1-.44-.55,8.18644,8.18644,0,0,1,1.96-3.89,7.57118,7.57118,0,0,1,5.99-2.4c4.44,0,7.03,2.59,7.03,7.06a8.35523,8.35523,0,0,1-2.18,5.92c-1.11,1.23-1.22,1.26-4.85,4.07-1.92,1.48-2.59,2.62994-2.62,4.18994Zm19.69,1.81006a8.02094,8.02094,0,0,1-6.55,2.96c-5.59,0-8.66-4.52-8.66-12.8,0-4.93.93-8.37,2.85-10.51a8.38787,8.38787,0,0,1,6.36-2.7,7.47035,7.47035,0,0,1,5.67,2.55c1.92,2.22,2.7,5.13995,2.7,10.13995C304.54492,161.8434,303.87494,164.69337,302.17493,166.91341Zm20.05-1.81006c.67,0,.78.11.78.77v2.59c0,.67-.11.78-.78.78h-13.32c-.37,0-.52-.15-.52-.52v-.29c0-3.08.22-4.48,1.15-6.15,1.07-1.96,2-2.85,5.92-5.88,2.52-1.92005,3.33-3.26,3.33-5.33a2.78714,2.78714,0,0,0-3.03-3.11c-1.82,0-2.74.82-3.74,3.15-.15.37-.32995.55-.56.55a1.40273,1.40273,0,0,1-.4-.07l-2.37-.89a.57338.57338,0,0,1-.45-.55,8.21714,8.21714,0,0,1,1.97-3.89,7.57119,7.57119,0,0,1,5.99-2.4c4.44,0,7.03,2.59,7.03,7.06a8.35523,8.35523,0,0,1-2.18,5.92c-1.11,1.23-1.22,1.26-4.85,4.07-1.92005,1.48-2.59,2.62994-2.63,4.18994Zm19.87,3.36c0,.71-.07.78-.78.78h-10.84c-.66,0-.78-.11-.78-.78v-1.88c0-.67.12-.78.78-.78h3.52v-15.54l-3.85,2.11c-.41.22-.41.22-.56.22-.13995,0-.26-.11005-.48-.52l-.96-1.63a.97709.97709,0,0,1-.22-.55c0-.15.11-.26.44-.52l6.96-4.89h2.59c.63,0,.74.12.74.78v20.54h2.66c.71,0,.78.07.78.78Zm-46.29-20.64c-2.77,0-4.07,2.88-4.07,9.1,0,6.25,1.22,8.99,4.04,8.99a3.42531,3.42531,0,0,0,3.22-2.18006c.55-1.3.77-2.88995.77-6.15,0-4.29-.22-6.25-.87994-7.77A3.19116,3.19116,0,0,0,295.80493,147.82338Zm-48.5-.19h-1.45v7.29h1.04c3.26,0,4.4-1,4.4-3.81C251.29492,148.48335,250.29492,147.63338,247.30493,147.63338Zm-19.09,0h-1.45v7.29h1.04c3.25,0,4.4-1,4.4-3.81C232.2049,148.48335,231.2049,147.63338,228.2149,147.63338Zm-20.28.11a49.23219,49.23219,0,0,1-.96,5l-1.48,6.32h4.73l-1.37-6.32C208.5249,151.2234,208.41492,150.55336,207.93494,147.74336Zm.92,5c-.33-1.52-.44-2.19-.92-5a49.23219,49.23219,0,0,1-.96,5l-1.48,6.32h4.73Zm90.03-2.93a3.19116,3.19116,0,0,0-3.08-1.99c-2.77,0-4.07,2.88-4.07,9.1,0,6.25,1.22,8.99,4.04,8.99a3.42531,3.42531,0,0,0,3.22-2.18006c.55-1.3.77-2.88995.77-6.15C299.76489,153.29335,299.54492,151.33339,298.885,149.81337Zm0,0a3.19116,3.19116,0,0,0-3.08-1.99c-2.77,0-4.07,2.88-4.07,9.1,0,6.25,1.22,8.99,4.04,8.99a3.42531,3.42531,0,0,0,3.22-2.18006c.55-1.3.77-2.88995.77-6.15C299.76489,153.29335,299.54492,151.33339,298.885,149.81337Zm-90.03,2.93c-.33-1.52-.44-2.19-.92-5a49.23219,49.23219,0,0,1-.96,5l-1.48,6.32h4.73Zm90.03-2.93a3.19116,3.19116,0,0,0-3.08-1.99c-2.77,0-4.07,2.88-4.07,9.1,0,6.25,1.22,8.99,4.04,8.99a3.42531,3.42531,0,0,0,3.22-2.18006c.55-1.3.77-2.88995.77-6.15C299.76489,153.29335,299.54492,151.33339,298.885,149.81337Zm0,0a3.19116,3.19116,0,0,0-3.08-1.99c-2.77,0-4.07,2.88-4.07,9.1,0,6.25,1.22,8.99,4.04,8.99a3.42531,3.42531,0,0,0,3.22-2.18006c.55-1.3.77-2.88995.77-6.15C299.76489,153.29335,299.54492,151.33339,298.885,149.81337Z" fill="#959ca1"></path><path d="M218.62494,80.64339a7.13159,7.13159,0,0,0-3.77-.67h-3.89c-.46,0-.5.04-.5.5v15.46c0,.45.04.5.5.5h2.28c.43,0,.51-.07.51-.5v-6.07h1.22a5.10518,5.10518,0,0,0,5.47-5.38A4.40477,4.40477,0,0,0,218.62494,80.64339Zm-4.2,6.5h-.67v-4.72h.93c1.95,0,2.59.55,2.59,2.25C217.2749,86.50337,216.53491,87.14339,214.42493,87.14339Z" fill="#959ca1"></path><path d="M231.67493,90.7234q0-6.55507-4.75-6.55c-3.17,0-5.26,2.57-5.26,6.43a6.79541,6.79541,0,0,0,1.8,5.06006,5.12886,5.12886,0,0,0,3.58,1.18,8.23012,8.23012,0,0,0,3.31-.67c.8-.34.99-.48.99-.75a.43821.43821,0,0,0-.07-.26l-.6-1.44c-.08-.14-.15-.22-.27-.22a.683.683,0,0,0-.31.1,5.9373,5.9373,0,0,1-2.74.74c-1.77,0-2.61-.96-2.66-3.02h6.46C231.5849,91.32338,231.67493,91.20338,231.67493,90.7234Zm-6.93-1.63c.21-1.97.76-2.74,1.99-2.74,1.22,0,1.7.75,1.75,2.74Z" fill="#959ca1"></path><path d="M239.81494,84.17336a3.07588,3.07588,0,0,0-2.19.93c-.24.24-.31.36-.81.94-.27-1.15-.63-1.87-.91-1.87a.59908.59908,0,0,0-.29.07l-1.95.7c-.14.04-.24.14-.24.24a.80161.80161,0,0,0,.05.21,6.79709,6.79709,0,0,1,.72,3.34v7.29c0,.36.05.41.41.41h2.23c.36005,0,.41-.05.41-.41v-7.99a2.79374,2.79374,0,0,1,1.82-1.15,2.9171,2.9171,0,0,1,.96.19.50706.50706,0,0,0,.17005.05c.06994,0,.15-.07.19-.22l.75-1.94a1.66494,1.66494,0,0,0,.05-.26C241.18494,84.43337,240.53491,84.17336,239.81494,84.17336Z" fill="#959ca1"></path><path d="M247.92493,79.05336a3.70952,3.70952,0,0,0-3.05,1.32,4.71138,4.71138,0,0,0-.79,3.2v1.01h-1.82c-.31994,0-.41.07-.41.33v1.31994c0,.58,0,.58.41.58h1.82v9.21c0,.36.05.41.41.41h2.23c.36,0,.41-.05.41-.41v-9.21h2.3a.40821.40821,0,0,0,.46-.36l.33-1.39a1.12461,1.12461,0,0,0,.05-.24c0-.17-.12-.24-.41-.24h-2.73v-1.01c0-.96.02-1.18.18994-1.44a1.26013,1.26013,0,0,1,1.15-.51,3.31872,3.31872,0,0,1,1.44.34.52508.52508,0,0,0,.24.07c.1,0,.17-.09.22-.21l.43-1.71c.05-.14.05-.14.05-.19C250.85492,79.49336,249.385,79.05336,247.92493,79.05336Z" fill="#959ca1"></path><path d="M256.30493,84.17336a4.68788,4.68788,0,0,0-3.94,1.75,6.86724,6.86724,0,0,0-1.39,4.58c0,3.99,1.94,6.34,5.23,6.34,3.22,0,5.21-2.45,5.21-6.36005C261.41492,86.5934,259.445,84.17336,256.30493,84.17336Zm-.12,10.25c-1.4,0-1.97-1.13-1.97-3.92,0-2.76.57-3.91,1.94-3.91,1.44,0,2.02,1.11,2.02,3.94C258.17493,93.26338,257.59491,94.42336,256.18494,94.42336Z" fill="#959ca1"></path><path d="M269.57489,84.17336a3.07585,3.07585,0,0,0-2.18994.93c-.24.24-.31006.36-.81006.94-.27-1.15-.62994-1.87-.91-1.87a.59908.59908,0,0,0-.29.07l-1.95.7c-.14.04-.24.14-.24.24a.80121.80121,0,0,0,.05.21,6.797,6.797,0,0,1,.72,3.34v7.29c0,.36.05.41.41.41h2.23c.36,0,.41-.05.41-.41v-7.99a2.79364,2.79364,0,0,1,1.82-1.15,2.91743,2.91743,0,0,1,.96.19.50719.50719,0,0,0,.17.05c.07,0,.15-.07.19-.22l.75-1.94a1.659,1.659,0,0,0,.05-.26C270.945,84.43337,270.29492,84.17336,269.57489,84.17336Z" fill="#959ca1"></path><path d="M287.59491,85.37337a2.437,2.437,0,0,0-2.3-1.2,5.03974,5.03974,0,0,0-3.7,1.68,2.62993,2.62993,0,0,0-2.61-1.68,4.87953,4.87953,0,0,0-3.58,1.68c-.22-1.06-.5-1.73-.77-1.73a1.26283,1.26283,0,0,0-.24.05l-1.94.65a.31373.31373,0,0,0-.27.28.62854.62854,0,0,0,.07995.27,6.0042,6.0042,0,0,1,.43006,2.59v8.06c0,.36.05.41.41.41h2.18c.36,0,.41-.05.41-.41v-8.37a3.19187,3.19187,0,0,1,2.06-1.03c.87,0,1.11.45,1.11,2.04v7.36c0,.36.04.41.4.41h2.19c.36,0,.41-.05.41-.41v-8.37a3.0194,3.0194,0,0,1,2.06-1.08c.79,0,1.08.5,1.08,1.85v7.6c0,.36.05.41.41.41h2.21c.36,0,.4-.05.4-.41v-7.89A5.53532,5.53532,0,0,0,287.59491,85.37337Z" fill="#959ca1"></path><path d="M300.05493,95.50337a5.347,5.347,0,0,1-.55-2.6v-4.89a4.42347,4.42347,0,0,0-.34-1.99c-.55-1.23-1.85-1.85-3.74-1.85-1.92,0-4.11.6-4.11,1.1a1.40721,1.40721,0,0,0,.05.27l.5,1.44c.05.16.12.24.24.24a.62909.62909,0,0,0,.27-.08,8.00624,8.00624,0,0,1,2.69-.62c1.2,0,1.58.43,1.58,1.8v.74a16.07582,16.07582,0,0,0-2.69.22c-2.42.48-3.57,1.73-3.57,3.86a3.37358,3.37358,0,0,0,3.6,3.63,3.91937,3.91937,0,0,0,3.07-1.37c.26.96.5,1.42.72,1.42a.66922.66922,0,0,0,.29-.08l1.87-.74a.27156.27156,0,0,0,.19-.24A.56486.56486,0,0,0,300.05493,95.50337Zm-3.41-1.8a2.49636,2.49636,0,0,1-1.82.93,1.57388,1.57388,0,0,1-1.54-1.65c0-1.4.96-1.92,3.36-1.92Z" fill="#959ca1"></path><path d="M309.385,84.17336a4.93335,4.93335,0,0,0-3.6,1.53c-.26-1.05-.57-1.65-.86-1.65a.79291.79291,0,0,0-.24.05l-2.14.79a.27349.27349,0,0,0-.19.21.59024.59024,0,0,0,.07.24,6.09073,6.09073,0,0,1,.51,2.62v8.06c0,.36.05.41.41.41h2.23c.36005,0,.41-.05.41-.41v-8.42a3.05235,3.05235,0,0,1,2.08-.98c.96,0,1.37.6,1.37,2.01v7.39c0,.36.05.41.41.41h2.23c.36005,0,.41-.05.41-.41v-8.06C312.48492,85.3434,311.5249,84.17336,309.385,84.17336Z" fill="#959ca1"></path><path d="M320.385,86.5934a3.03481,3.03481,0,0,1,2.04.82.36154.36154,0,0,0,.24.09.2904.2904,0,0,0,.21-.16l.84-1.54a.59673.59673,0,0,0,.07-.26c0-.6-1.94-1.37-3.4-1.37-3.44,0-5.55,2.49-5.55,6.57,0,3.87,1.9,6.1,5.16,6.1,1.63,0,3.48-.7,3.48-1.3,0-.09,0-.09-.07-.28l-.58-1.47c-.04-.09-.12-.17-.18994-.17a.49821.49821,0,0,0-.26.12,3.47252,3.47252,0,0,1-1.97.68c-1.66,0-2.4-1.18-2.4-3.8C318.00494,87.8434,318.74493,86.5934,320.385,86.5934Z" fill="#959ca1"></path><path d="M334.61493,90.7234c0-4.37-1.59-6.55-4.75-6.55-3.17,0-5.26,2.57-5.26,6.43a6.79537,6.79537,0,0,0,1.8,5.06006,5.12883,5.12883,0,0,0,3.58,1.18,8.29965,8.29965,0,0,0,3.31-.67c.79-.34.98-.48.98-.75a.43826.43826,0,0,0-.07-.26l-.6-1.44c-.07-.14-.14-.22-.26-.22a.68189.68189,0,0,0-.32.1,5.89906,5.89906,0,0,1-2.73.74c-1.78,0-2.62-.96-2.67-3.02h6.46C334.51489,91.32338,334.61493,91.20338,334.61493,90.7234Zm-6.94-1.63c.22-1.97.77-2.74,1.99-2.74,1.23,0,1.71.75,1.76,2.74Z" fill="#959ca1"></path><path d="M262.195,100.9734h-9.91c-.46,0-.51.07-.51.5v1.87c0,.44.05.48.51.48h3.02v13.11c0,.45.05.5.5.5h2.33c.46,0,.51-.05.51-.5v-13.11h2.95c.36,0,.43-.04.53-.4l.5-1.9a1.47151,1.47151,0,0,0,.05-.29C262.67493,101.04335,262.55493,100.9734,262.195,100.9734Z" fill="#959ca1"></path><path d="M271.74493,111.7234q0-6.55507-4.75-6.55c-3.17,0-5.26,2.57-5.26,6.43a6.79541,6.79541,0,0,0,1.8,5.06006,5.12876,5.12876,0,0,0,3.58,1.18,8.29969,8.29969,0,0,0,3.31-.67c.79-.34.98-.48.98-.75a.43821.43821,0,0,0-.07-.26l-.6-1.44c-.07-.14-.14-.22-.26-.22a.683.683,0,0,0-.31.1,5.96921,5.96921,0,0,1-2.74.74c-1.78,0-2.62-.96-2.66-3.02h6.45C271.65491,112.32338,271.74493,112.20338,271.74493,111.7234Zm-6.94-1.63c.22-1.97.77-2.74,2-2.74,1.22,0,1.7.75,1.75,2.74Z" fill="#959ca1"></path><path d="M280.93494,111.50337a7.76288,7.76288,0,0,0-2.78-1.44c-1.32-.5-1.59-.74-1.59-1.39,0-.79.56-1.22,1.54-1.22a6.1647,6.1647,0,0,1,2.42.62.643.643,0,0,0,.2.05c.09,0,.16-.07.24-.22l.6-1.36005a.82841.82841,0,0,0,.07-.27c0-.45-2.16-1.1-3.67005-1.1-2.5,0-4.28,1.61-4.28,3.91a3.18759,3.18759,0,0,0,.96,2.35,6.9134,6.9134,0,0,0,2.5,1.3c1.56.6,1.85.84,1.85,1.51a1.25421,1.25421,0,0,1-1.39,1.25,7.09251,7.09251,0,0,1-3.27-1.03.56118.56118,0,0,0-.21-.08c-.1,0-.17.08-.24.24l-.56006,1.47a.9966.9966,0,0,0-.07.29c0,.16.1.24.53.45a9.14547,9.14547,0,0,0,4.08,1.01,3.88467,3.88467,0,0,0,2.95-1.1,4.072,4.072,0,0,0,1.11-2.79A3.42015,3.42015,0,0,0,280.93494,111.50337Z" fill="#959ca1"></path><path d="M291.445,116.64339l-.38-1.68c-.05-.14-.12-.24-.24-.24a.63024.63024,0,0,0-.22.05,3.46017,3.46017,0,0,1-1.58.41c-.72,0-.88995-.27-.88995-1.54v-5.83h2.37994c.29,0,.36005-.07.43006-.36l.31-1.42a.5111.5111,0,0,0,.03-.21c0-.2-.1-.24-.41-.24h-2.74v-3.39c0-.29-.07-.38-.24-.38h-.21l-2.21.31c-.34.05-.39.09-.39.43v3.03h-1.65c-.36005,0-.41.04-.41.4v1.42005c0,.36.05.41.41.41h1.65v6.26a4.04877,4.04877,0,0,0,.53,2.55,3.05862,3.05862,0,0,0,2.71,1.22,7.74592,7.74592,0,0,0,2.43-.41c.6-.19.74-.29.74-.53A.70845.70845,0,0,0,291.445,116.64339Z" fill="#959ca1"></path><path d="M226.48492,32.2834l-4.73-15.48c-.12-.38-.14-.41-.52-.41h-2.5c-.39,0-.41.03-.53.41l-4.73,15.48a1.18247,1.18247,0,0,0-.07.31c0,.19995.12.27.48.27h2.37994c.4,0,.43006-.02.52-.41l1.04-3.94h4.05l1.03,3.94c.1.39.15.41.56.41h2.61c.36005,0,.48-.07.48-.27A1.18221,1.18221,0,0,0,226.48492,32.2834Zm-8.3-6.02.96-4.11c.31-1.29.4-1.84.62-3.24.31,1.83.39,2.26.6,3.24l.89,4.11Z" fill="#959ca1"></path><path d="M235.4649,16.54335a10.765,10.765,0,0,0-2.5-.15H229.195c-.43006,0-.5.07-.5.51V32.35335c0,.44.06994.51.5.51h3.76995c2.28,0,2.95-.12,3.91-.6,2.07-1.06,3.05-3.53,3.05-7.61C239.92493,19.71339,238.50494,17.11336,235.4649,16.54335Zm-.15,13.08a3.4946,3.4946,0,0,1-2.49.62h-.84v-11.23h.84a3.16761,3.16761,0,0,1,2.13.48c1.08.72,1.51,2.21,1.51,5.3C236.4649,27.48335,236.135,28.9034,235.31494,29.62337Z" fill="#959ca1"></path><path d="M252.9549,16.54335l-2.33-.27-.24-.02c-.19,0-.26.09-.33.41l-2.26,9.67c-.33,1.46-.43,1.87-.74,3.55-.12-.67-.22-1.34-.34-2.04l-.29-1.51-2.08-9.77c-.08-.33-.12-.43-.32-.43h-.07a.79831.79831,0,0,0-.19.02l-2.52.46c-.34.07-.43.12-.43.29a1.34561,1.34561,0,0,0,.05.29l4.24,15.6c.1.38.12.4.53.4h2.81c.36,0,.43-.04.53-.4l4.39-15.65a1.13685,1.13685,0,0,0,.05-.29C253.41492,16.66341,253.29492,16.5934,252.9549,16.54335Z" fill="#959ca1"></path><path d="M266.49493,32.2834l-4.73-15.48c-.12-.38-.13995-.41-.53-.41h-2.49c-.39,0-.41.03-.53.41l-4.73,15.48a1.18247,1.18247,0,0,0-.07.31c0,.19995.12.27.48.27h2.37c.41,0,.44-.02.53-.41l1.03-3.94H261.885l1.03,3.94c.1.39.15.41.55.41h2.62c.36005,0,.48-.07.48-.27A1.18221,1.18221,0,0,0,266.49493,32.2834Zm-8.31-6.02.96-4.11a30.48268,30.48268,0,0,0,.63-3.24c.31,1.83.38,2.26.6,3.24l.88995,4.11Z" fill="#959ca1"></path><path d="M279.06494,16.39339h-1.8c-.43,0-.5.07-.5.51v7.63c0,.91,0,1.2.05,3.02a23.20086,23.20086,0,0,0-1.54-3.69l-3.79-7.06c-.22-.38-.24-.41-.7-.41h-1.87c-.45,0-.5.05-.5.51V32.35335c0,.46.05.51.5.51h1.8c.43,0,.51-.07.51-.51V24.1534c0-1.25,0-1.25-.08-2.93a22.45371,22.45371,0,0,0,1.54,3.41l4.13,7.77c.21.41.29.46.72.46h1.53c.46,0,.51-.05.51-.51V16.9034C279.57489,16.44337,279.5249,16.39339,279.06494,16.39339Z" fill="#959ca1"></path><path d="M292.41492,31.42336l-.96-1.68c-.07-.15-.15-.22-.22-.22a.64567.64567,0,0,0-.24.1,3.1526,3.1526,0,0,1-2.16.86,2.38741,2.38741,0,0,1-2.16-1.22,11.87607,11.87607,0,0,1-.93-5.35c0-3.44.91-5.14,2.76-5.14a3.17342,3.17342,0,0,1,1.94.74c.53.41.6.44.72.44.1,0,.17-.05.24-.2l.98-1.77a.33138.33138,0,0,0,.05-.19c0-.15-.14-.31995-.5-.58a6.16761,6.16761,0,0,0-3.63-1.22,5.29407,5.29407,0,0,0-4.12,1.89c-1.3,1.51-1.9,3.55-1.9,6.51,0,3.19.72,5.68,2.09,7.24a5.20015,5.20015,0,0,0,4.1,1.64,5.976,5.976,0,0,0,3.48-.99c.39-.26.53-.43005.53-.65A.35246.35246,0,0,0,292.41492,31.42336Z" fill="#959ca1"></path><path d="M302.82489,19.01338c.34,0,.44-.1.53-.41l.48-1.62995a1.49616,1.49616,0,0,0,.05-.31c0-.2-.12006-.27-.48-.27h-8.02c-.45,0-.5.05-.5.51V32.35335c0,.46.05.51.5.51h7.82995c.45,0,.5-.05.5-.51v-1.6c0-.44-.07-.51-.5-.51h-5.04v-4.68h4.01c.43,0,.5-.07.5-.5v-1.61c0-.43-.07-.5-.5-.5h-4.01v-3.94Z" fill="#959ca1"></path><path d="M313.22491,16.54335a10.7653,10.7653,0,0,0-2.5-.15h-3.77c-.43,0-.5.07-.5.51V32.35335c0,.44.07.51.5.51h3.77c2.28,0,2.95-.12,3.91-.6,2.07-1.06,3.05-3.53,3.05-7.61C317.68494,19.71339,316.26489,17.11336,313.22491,16.54335Zm-.15,13.08a3.49442,3.49442,0,0,1-2.49.62h-.84v-11.23h.84a3.16756,3.16756,0,0,1,2.13.48c1.08.72,1.51,2.21,1.51,5.3C314.22491,27.48335,313.8949,28.9034,313.07489,29.62337Z" fill="#959ca1"></path><path d="M329.61493,23.5934h-3.67v-3.72c0-.43-.08-.5-.51-.5h-1.61005c-.4,0-.48.07-.48.5v3.72h-3.67c-.43,0-.5.08-.5.50995v1.51c0,.43.07.48.5.48h3.67v3.72c0,.41.08.48.48.48h1.61005c.43,0,.51-.06995.51-.48v-3.72h3.67c.43,0,.5-.07.5-.48v-1.51C330.11493,23.67336,330.04492,23.5934,329.61493,23.5934Z" fill="#959ca1"></path><polygon points="239.96 60.14 242.19 70.9 232.65 65.45 224.83 71.73 225.33 60.13 217.21 52.73 228.13 51.53 232.65 41.52 237.17 51.53 248.09 52.74 239.96 60.14" fill="#959ca1"></polygon><polygon points="279.01 60.14 281.24 70.9 271.69 65.45 263.88 71.73 264.38 60.13 256.25 52.73 267.18 51.53 271.7 41.52 276.22 51.53 287.14 52.74 279.01 60.14" fill="#959ca1"></polygon><polygon points="318.05 60.14 320.28 70.9 310.73 65.45 302.92 71.73 303.42 60.13 295.29 52.73 306.22 51.53 310.74 41.52 315.26 51.53 326.18 52.74 318.05 60.14" fill="#959ca1"></polygon><path d="M180.75,180.92c.12.08.24.17.36.26-.12-.09-.23-.18-.35-.27Z" fill="#959ca1"></path><path d="M32.09491,152.12337c-1.59,0-2.27,1.35-2.27,4.57,0,3.25.68005,4.56,2.30005,4.56,1.65,0,2.32-1.34,2.32-4.53C34.445,153.41341,33.7749,152.12337,32.09491,152.12337Zm0,0c-1.59,0-2.27,1.35-2.27,4.57,0,3.25.68005,4.56,2.30005,4.56,1.65,0,2.32-1.34,2.32-4.53C34.445,153.41341,33.7749,152.12337,32.09491,152.12337Zm0,0c-1.59,0-2.27,1.35-2.27,4.57,0,3.25.68005,4.56,2.30005,4.56,1.65,0,2.32-1.34,2.32-4.53C34.445,153.41341,33.7749,152.12337,32.09491,152.12337Zm36.62,0a3.05371,3.05371,0,0,0-2.18,1.01v7.73a3.64519,3.64519,0,0,0,1.96.53c1.82,0,2.46-1.23,2.46-4.81C70.9549,153.50337,70.25494,152.12337,68.7149,152.12337Zm0,0a3.05371,3.05371,0,0,0-2.18,1.01v7.73a3.64519,3.64519,0,0,0,1.96.53c1.82,0,2.46-1.23,2.46-4.81C70.9549,153.50337,70.25494,152.12337,68.7149,152.12337Zm-36.62,0c-1.59,0-2.27,1.35-2.27,4.57,0,3.25.68005,4.56,2.30005,4.56,1.65,0,2.32-1.34,2.32-4.53C34.445,153.41341,33.7749,152.12337,32.09491,152.12337Zm0,0c-1.59,0-2.27,1.35-2.27,4.57,0,3.25.68005,4.56,2.30005,4.56,1.65,0,2.32-1.34,2.32-4.53C34.445,153.41341,33.7749,152.12337,32.09491,152.12337Zm36.62,0a3.05371,3.05371,0,0,0-2.18,1.01v7.73a3.64519,3.64519,0,0,0,1.96.53c1.82,0,2.46-1.23,2.46-4.81C70.9549,153.50337,70.25494,152.12337,68.7149,152.12337Zm11.04,7.45a1.83541,1.83541,0,0,0,1.79,1.93,2.89232,2.89232,0,0,0,2.13-1.09v-3.08C80.87494,157.33339,79.75494,157.95338,79.75494,159.57338Zm0,0a1.83541,1.83541,0,0,0,1.79,1.93,2.89232,2.89232,0,0,0,2.13-1.09v-3.08C80.87494,157.33339,79.75494,157.95338,79.75494,159.57338Zm-11.04-7.45a3.05371,3.05371,0,0,0-2.18,1.01v7.73a3.64519,3.64519,0,0,0,1.96.53c1.82,0,2.46-1.23,2.46-4.81C70.9549,153.50337,70.25494,152.12337,68.7149,152.12337Zm-36.62,0c-1.59,0-2.27,1.35-2.27,4.57,0,3.25.68005,4.56,2.30005,4.56,1.65,0,2.32-1.34,2.32-4.53C34.445,153.41341,33.7749,152.12337,32.09491,152.12337Zm0,0c-1.59,0-2.27,1.35-2.27,4.57,0,3.25.68005,4.56,2.30005,4.56,1.65,0,2.32-1.34,2.32-4.53C34.445,153.41341,33.7749,152.12337,32.09491,152.12337Zm36.62,0a3.05371,3.05371,0,0,0-2.18,1.01v7.73a3.64519,3.64519,0,0,0,1.96.53c1.82,0,2.46-1.23,2.46-4.81C70.9549,153.50337,70.25494,152.12337,68.7149,152.12337Zm11.04,7.45a1.83541,1.83541,0,0,0,1.79,1.93,2.89232,2.89232,0,0,0,2.13-1.09v-3.08C80.87494,157.33339,79.75494,157.95338,79.75494,159.57338Zm23.35,0a1.83545,1.83545,0,0,0,1.79,1.93,2.87605,2.87605,0,0,0,2.13-1.09v-3.08C104.22491,157.33339,103.10492,157.95338,103.10492,159.57338Zm0,0a1.83545,1.83545,0,0,0,1.79,1.93,2.87605,2.87605,0,0,0,2.13-1.09v-3.08C104.22491,157.33339,103.10492,157.95338,103.10492,159.57338Zm-23.35,0a1.83541,1.83541,0,0,0,1.79,1.93,2.89232,2.89232,0,0,0,2.13-1.09v-3.08C80.87494,157.33339,79.75494,157.95338,79.75494,159.57338Zm-11.04-7.45a3.05371,3.05371,0,0,0-2.18,1.01v7.73a3.64519,3.64519,0,0,0,1.96.53c1.82,0,2.46-1.23,2.46-4.81C70.9549,153.50337,70.25494,152.12337,68.7149,152.12337Zm-36.62,0c-1.59,0-2.27,1.35-2.27,4.57,0,3.25.68005,4.56,2.30005,4.56,1.65,0,2.32-1.34,2.32-4.53C34.445,153.41341,33.7749,152.12337,32.09491,152.12337Zm0,0c-1.59,0-2.27,1.35-2.27,4.57,0,3.25.68005,4.56,2.30005,4.56,1.65,0,2.32-1.34,2.32-4.53C34.445,153.41341,33.7749,152.12337,32.09491,152.12337Zm36.62,0a3.05371,3.05371,0,0,0-2.18,1.01v7.73a3.64519,3.64519,0,0,0,1.96.53c1.82,0,2.46-1.23,2.46-4.81C70.9549,153.50337,70.25494,152.12337,68.7149,152.12337Zm11.04,7.45a1.83541,1.83541,0,0,0,1.79,1.93,2.89232,2.89232,0,0,0,2.13-1.09v-3.08C80.87494,157.33339,79.75494,157.95338,79.75494,159.57338Zm23.35,0a1.83545,1.83545,0,0,0,1.79,1.93,2.87605,2.87605,0,0,0,2.13-1.09v-3.08C104.22491,157.33339,103.10492,157.95338,103.10492,159.57338Zm0,0a1.83545,1.83545,0,0,0,1.79,1.93,2.87605,2.87605,0,0,0,2.13-1.09v-3.08C104.22491,157.33339,103.10492,157.95338,103.10492,159.57338Zm-23.35,0a1.83541,1.83541,0,0,0,1.79,1.93,2.89232,2.89232,0,0,0,2.13-1.09v-3.08C80.87494,157.33339,79.75494,157.95338,79.75494,159.57338Zm-11.04-7.45a3.05371,3.05371,0,0,0-2.18,1.01v7.73a3.64519,3.64519,0,0,0,1.96.53c1.82,0,2.46-1.23,2.46-4.81C70.9549,153.50337,70.25494,152.12337,68.7149,152.12337Zm-36.62,0c-1.59,0-2.27,1.35-2.27,4.57,0,3.25.68005,4.56,2.30005,4.56,1.65,0,2.32-1.34,2.32-4.53C34.445,153.41341,33.7749,152.12337,32.09491,152.12337Zm0,0c-1.59,0-2.27,1.35-2.27,4.57,0,3.25.68005,4.56,2.30005,4.56,1.65,0,2.32-1.34,2.32-4.53C34.445,153.41341,33.7749,152.12337,32.09491,152.12337Zm36.62,0a3.05371,3.05371,0,0,0-2.18,1.01v7.73a3.64519,3.64519,0,0,0,1.96.53c1.82,0,2.46-1.23,2.46-4.81C70.9549,153.50337,70.25494,152.12337,68.7149,152.12337Zm11.04,7.45a1.83541,1.83541,0,0,0,1.79,1.93,2.89232,2.89232,0,0,0,2.13-1.09v-3.08C80.87494,157.33339,79.75494,157.95338,79.75494,159.57338Zm23.35,0a1.83545,1.83545,0,0,0,1.79,1.93,2.87605,2.87605,0,0,0,2.13-1.09v-3.08C104.22491,157.33339,103.10492,157.95338,103.10492,159.57338Zm47.37-7.73c-1.42,0-2.07.9-2.32,3.2h4.37C152.4649,152.71339,151.90491,151.8434,150.47491,151.8434Zm0,0c-1.42,0-2.07.9-2.32,3.2h4.37C152.4649,152.71339,151.90491,151.8434,150.47491,151.8434Zm-47.37,7.73a1.83545,1.83545,0,0,0,1.79,1.93,2.87605,2.87605,0,0,0,2.13-1.09v-3.08C104.22491,157.33339,103.10492,157.95338,103.10492,159.57338Zm-23.35,0a1.83541,1.83541,0,0,0,1.79,1.93,2.89232,2.89232,0,0,0,2.13-1.09v-3.08C80.87494,157.33339,79.75494,157.95338,79.75494,159.57338Zm-11.04-7.45a3.05371,3.05371,0,0,0-2.18,1.01v7.73a3.64519,3.64519,0,0,0,1.96.53c1.82,0,2.46-1.23,2.46-4.81C70.9549,153.50337,70.25494,152.12337,68.7149,152.12337Zm-36.62,0c-1.59,0-2.27,1.35-2.27,4.57,0,3.25.68005,4.56,2.30005,4.56,1.65,0,2.32-1.34,2.32-4.53C34.445,153.41341,33.7749,152.12337,32.09491,152.12337Zm146.26-148.12a15.98653,15.98653,0,0,0-2.84-2,15.73143,15.73143,0,0,0-7.69-2H16.445c-9.08,0-16.44,7.71-16.44,17.23v150.64a1.09214,1.09214,0,0,0,.01.18v.23c0,.16.01.31.02.48a.48639.48639,0,0,0,.01.12c0,.14.02.29.03.43,0,.06.01.12.01.18a2.16124,2.16124,0,0,0,.04.25v.04c0,.03.01.06.01.08l.06.45c.01995.13.05.26.06994.39a.12672.12672,0,0,0,.01.06v.02c.02.11.04.21.06.32.01.01.01.01,0,.02.03.12.05005.23.09.35,0,.02.01.04.01.06.01.06.03.12.04.18l.03.12c.06995.29.15.57.24.85.08.26.17.51.26.76a.48393.48393,0,0,0,.04.11.07589.07589,0,0,0,.02.04.03685.03685,0,0,0,.00995.03c.01.01.01.02.02.04a1.17439,1.17439,0,0,1,.07.2.48993.48993,0,0,1,.03.07.60605.60605,0,0,0,.05.12.57759.57759,0,0,0,.05.14c.04.08.07.16.11.24.07.17.15.33.22.49l.12.24a.25153.25153,0,0,1,.04.06994l.03.06a.21676.21676,0,0,0,.03.05c0,.02.02.04.03.06a.66965.66965,0,0,0,.06.12.076.076,0,0,0,.02.04v.01c.01.01.01.02.02.03,0,.01.01.02.01.03l.01.01c.13.23.26.45.39.68.14.23.29.45.43.67a.61042.61042,0,0,1,.07.1c.04.05.06995.1.1.13995.09.14.19.27.29.4.05.07.1.14.15.2a1.06017,1.06017,0,0,0,.09.11,3.77138,3.77138,0,0,0,.25.31c.09.11.18006.22.28.33.03.04.07.08.1.12l.02.02a.00976.00976,0,0,0,.01.01,1.05249,1.05249,0,0,0,.1.12c.18.19.36005.38.55.57.04.04.07.08.11005.12.15.15.3.29.46.43.16.15.32.29.49005.43.00995.01.03.02.04.03a.432.432,0,0,0,.07.06c.02.01.04.03.06.04a1.24442,1.24442,0,0,0,.19.15.18684.18684,0,0,0,.07.06c.00995.01.02.02.03.02a1.064,1.064,0,0,0,.12.1l.02.02a1.45722,1.45722,0,0,0,.13.1h.01l.12.09.51.36c.22.15.44.29.67.43.45.27.91.53,1.39.76a5.61281,5.61281,0,0,0,.56.25,2.87093,2.87093,0,0,0,.31.13,6.42554,6.42554,0,0,0,.61.24c.23.09.46.16.69.24.06.02.11.03.17.05a5.42636,5.42636,0,0,0,.54.15c.22.06.44.12.67.17.03.01.05.01.08.02.03.01.06.01.09.02.06.01.13.02.19.03.1.02.19.04.28.05a2.056,2.056,0,0,0,.24.05c.27.04.54.08.81.11.14.02.29.03.43.05l.51.03c.31.02.63.03.95.03H167.82489c.32,0,.64-.01.95-.03l.51-.03c.14-.02.29-.03.43-.05.27-.03.54-.07.81-.11a2.05516,2.05516,0,0,0,.24-.05c.09-.01.18006-.03.28-.05.06-.01.13-.02.19-.03.03-.01.06-.01.09-.02.03-.01.05-.01.08-.02.21-.05.41-.1.61-.15.19-.05.38-.1.56-.16a13.02625,13.02625,0,0,0,1.52-.54c.08-.03.16-.07.24-.1.21-.09.41-.18.61005-.28.48-.23.95-.49,1.4-.76.22-.14.45-.28.67-.43.13-.09.27-.19.4-.28a1.42308,1.42308,0,0,1,.15-.11005c.08-.07.16-.12994.24-.19h.01l.01-.01a.21835.21835,0,0,0,.05-.04,1.55693,1.55693,0,0,0,.2-.16,1.915,1.915,0,0,0,.22-.18h.01a.0098.0098,0,0,1,.01-.01l.01-.01a1.13679,1.13679,0,0,1,.13-.1l.03-.03c.13-.11.26-.23.39-.34.12-.12.25-.24.37-.35v-.01c.07-.06.14-.13.2-.19a16.42573,16.42573,0,0,0,4.81-11.63v-150.56A17.51991,17.51991,0,0,0,178.35492,4.00337Zm-153.34,147.2-.98,1.79a.35685.35685,0,0,1-.26.2.45347.45347,0,0,1-.27-.11,3.54157,3.54157,0,0,0-2.38-.96c-1.91,0-2.78,1.46-2.78,4.71,0,3.05.87,4.42,2.8,4.42a4.0482,4.0482,0,0,0,2.3-.78.52889.52889,0,0,1,.31-.14.28933.28933,0,0,1,.22.19l.67,1.71c.09.23.09.23.09.34,0,.7-2.16,1.51-4.06,1.51-3.81,0-6.02-2.6-6.02-7.11,0-4.76,2.46-7.67,6.47-7.67,1.7,0,3.97.89,3.97,1.59A.79.79,0,0,1,25.01489,151.20338Zm7.14,12.88c-3.84,0-6.11-2.74-6.11-7.39a8.0475,8.0475,0,0,1,1.63-5.35,5.43328,5.43328,0,0,1,4.59-2.04c3.67,0,5.96,2.82,5.96,7.36005C38.22491,161.2234,35.90491,164.08339,32.15491,164.08339Zm26.93-.95c0,.42-.05.47-.47.47h-2.58c-.42,0-.47-.05-.47-.47v-8.88c0-1.57-.34-2.15-1.27-2.15a3.50961,3.50961,0,0,0-2.4,1.26v9.77c0,.42-.06.47-.48.47h-2.55c-.42,0-.47-.05-.47-.47v-8.6c0-1.85-.28-2.38-1.29-2.38a3.75176,3.75176,0,0,0-2.41,1.21v9.77c0,.42-.05.47-.47.47h-2.55c-.42,0-.48-.05-.48-.47v-9.41a6.89855,6.89855,0,0,0-.5-3.02.74419.74419,0,0,1-.09-.31.39587.39587,0,0,1,.31-.34l2.27-.75a2.07364,2.07364,0,0,1,.28-.06c.31,0,.64.78.9,2.02,1.54-1.43,2.66-1.96,4.17-1.96a3.06229,3.06229,0,0,1,3.05,1.96c1.6-1.46,2.74-1.96,4.31-1.96a2.85277,2.85277,0,0,1,2.69,1.4,6.54716,6.54716,0,0,1,.5,3.22Zm10.31.95a5.40048,5.40048,0,0,1-2.86-.73v5.07c0,.39-.03.42-.42.5l-2.6.56-.28.03c-.2,0-.26-.11-.26-.45v-15.4a6.383,6.383,0,0,0-.55-2.77.81429.81429,0,0,1-.06-.22c0-.11.06-.17.28-.25l2.43-1.04a.6032.6032,0,0,1,.26-.08c.25,0,.56.58.78,1.45a4.923,4.923,0,0,1,3.56-1.45c3.16,0,4.84,2.52,4.84,7.16C74.51489,161.5334,72.80493,164.08339,69.3949,164.08339Zm18.11-.98-2.18005.87a.84414.84414,0,0,1-.34.08c-.25,0-.53-.53-.84-1.65a4.53138,4.53138,0,0,1-3.58,1.6,3.93527,3.93527,0,0,1-4.2-4.23c0-2.49,1.34-3.95,4.17-4.51a18.35788,18.35788,0,0,1,3.14-.25v-.87c0-1.6-.45-2.1-1.85-2.1a9.13811,9.13811,0,0,0-3.13995.73.79193.79193,0,0,1-.3.08c-.15,0-.23-.08-.28-.28l-.59-1.68a1.067,1.067,0,0,1-.06-.31c0-.58,2.55-1.28,4.79-1.28,2.21,0,3.72.72,4.37,2.15a5.2077,5.2077,0,0,1,.39,2.33v5.71a6.29756,6.29756,0,0,0,.64,3.02.70665.70665,0,0,1,.09.31A.3362.3362,0,0,1,87.50494,163.10335Zm11.59-12.88-.86,2.27c-.06.17005-.14.25-.23.25a.66485.66485,0,0,1-.19-.06,3.51471,3.51471,0,0,0-1.12-.22,3.25826,3.25826,0,0,0-2.13,1.34v9.33c0,.42-.06.47-.48.47h-2.6c-.42,0-.48-.05-.48-.47v-8.51a8.02169,8.02169,0,0,0-.84-3.9.69709.69709,0,0,1-.05-.25c0-.11.11-.22.28-.28l2.26-.81a.75032.75032,0,0,1,.34-.08c.34,0,.76.84,1.06,2.18.59-.67.68-.81.96-1.09a3.57132,3.57132,0,0,1,2.54-1.09c.84,0,1.6.3,1.6.61005A1.29483,1.29483,0,0,1,99.09491,150.2234Zm11.76,12.88-2.18.87a.80774.80774,0,0,1-.34.08c-.25,0-.53-.53-.84-1.65a4.53139,4.53139,0,0,1-3.58,1.6,3.93528,3.93528,0,0,1-4.2-4.23c0-2.49,1.34-3.95,4.17005-4.51a18.3569,18.3569,0,0,1,3.13995-.25v-.87c0-1.6-.45-2.1-1.85-2.1a9.13814,9.13814,0,0,0-3.14.73.79129.79129,0,0,1-.3.08c-.14,0-.23-.08-.28-.28l-.59-1.68a1.06506,1.06506,0,0,1-.06-.31c0-.58,2.55-1.28,4.79-1.28,2.21,0,3.72.72,4.37,2.15a5.20684,5.20684,0,0,1,.39,2.33v5.71a6.29688,6.29688,0,0,0,.64,3.02.7065.7065,0,0,1,.09.31A.33612.33612,0,0,1,110.85492,163.10335Zm10.81.5a9.13753,9.13753,0,0,1-2.83.48,3.552,3.552,0,0,1-3.16-1.43,4.70357,4.70357,0,0,1-.62-2.97v-7.3h-1.93c-.42,0-.47-.06-.47-.48v-1.65c0-.42.05-.48.47-.48h1.93v-3.53c0-.39.06-.44.45-.5l2.58-.36h.25c.2,0,.28.11.28.44v3.95h3.19c.37,0,.48.06.48.28a.68824.68824,0,0,1-.03.25l-.36,1.66c-.09.33-.17.42-.51.42h-2.77v6.8c0,1.48.2,1.79,1.04,1.79a3.99524,3.99524,0,0,0,1.84-.47.81765.81765,0,0,1,.26-.06c.14,0,.22.11.28.28l.44,1.96a.81259.81259,0,0,1,.06.31C122.53491,163.27339,122.36493,163.38338,121.66492,163.60335Zm7.45-.47c0,.42-.06.47-.48.47h-2.6c-.42,0-.48-.05-.48-.47v-10.75h-2.12c-.42005,0-.48-.06-.48-.48v-1.65c0-.42.06-.48.48-.48h5.2c.42,0,.48.06.48.48Zm-1.88-15.21a2.26506,2.26506,0,1,1,2.27-2.26A2.25182,2.25182,0,0,1,127.23492,147.92336Zm16.5,2.55-4.65,13.3c-.11.34-.17.37-.53.37h-2.3c-.36,0-.42-.03-.53-.37l-4.57-13.3a.93946.93946,0,0,1-.08-.31c0-.16.11005-.25.45-.28l2.74-.28.23-.02c.16,0,.25.08.33.39l1.79,6.41c.31,1.06.59,2.35.93,4.03.31-1.48.67-3.02.98-4.03l1.96-6.41c.08-.31.17-.39.33-.39a1.49067,1.49067,0,0,1,.23.02l2.32.28c.31.03.42.12.42.28A1.98076,1.98076,0,0,1,143.73492,150.4734Zm11.9,7.17h-7.54c.06,2.41,1.04,3.53,3.11,3.53a6.90254,6.90254,0,0,0,3.19-.87.7932.7932,0,0,1,.37-.11c.14,0,.22.08.31.25l.7,1.68a.541.541,0,0,1,.08.31c0,.31-.22.47-1.15.87a9.54811,9.54811,0,0,1-3.86.78,6.01448,6.01448,0,0,1-4.17-1.37,7.90854,7.90854,0,0,1-2.1-5.91c0-4.51,2.43-7.5,6.13-7.5q5.535,0,5.54,7.64C156.24493,157.50337,156.135,157.64339,155.635,157.64339Zm11.18994,5.15a4.50929,4.50929,0,0,1-3.43994,1.29,10.63274,10.63274,0,0,1-4.76-1.18c-.5-.25-.62-.33-.62-.53a.86355.86355,0,0,1,.09-.33l.64-1.71c.09-.2.17-.28.28-.28a.693.693,0,0,1,.25.08,8.29807,8.29807,0,0,0,3.81,1.21,1.468,1.468,0,0,0,1.63-1.46c0-.78-.34-1.06-2.16-1.76a7.96433,7.96433,0,0,1-2.91-1.52,3.70018,3.70018,0,0,1-1.12006-2.74c0-2.69,2.07-4.56,4.98-4.56,1.77,0,4.29.75,4.29,1.28a.67271.67271,0,0,1-.09.31l-.7,1.6c-.08.17005-.17.25-.28.25a.81427.81427,0,0,1-.22-.06,7.3992,7.3992,0,0,0-2.83-.72c-1.15,0-1.79.5-1.79,1.42,0,.76.31,1.04,1.85,1.63,2.07.81,2.66,1.12,3.24,1.68a3.97831,3.97831,0,0,1,1.15,2.85A4.7032,4.7032,0,0,1,166.82489,162.79335Zm13.43-32.12994H4.00494V17.23335c0-7.29,5.58-13.23,12.44-13.23H167.82489c6.86005,0,12.43,5.94,12.43,13.23Zm-29.78,21.18c-1.42,0-2.07.9-2.32,3.2h4.37C152.4649,152.71339,151.90491,151.8434,150.47491,151.8434Zm-47.37,7.73a1.83545,1.83545,0,0,0,1.79,1.93,2.87605,2.87605,0,0,0,2.13-1.09v-3.08C104.22491,157.33339,103.10492,157.95338,103.10492,159.57338Zm-23.35,0a1.83541,1.83541,0,0,0,1.79,1.93,2.89232,2.89232,0,0,0,2.13-1.09v-3.08C80.87494,157.33339,79.75494,157.95338,79.75494,159.57338Zm-11.04-7.45a3.05371,3.05371,0,0,0-2.18,1.01v7.73a3.64519,3.64519,0,0,0,1.96.53c1.82,0,2.46-1.23,2.46-4.81C70.9549,153.50337,70.25494,152.12337,68.7149,152.12337Zm-36.62,0c-1.59,0-2.27,1.35-2.27,4.57,0,3.25.68005,4.56,2.30005,4.56,1.65,0,2.32-1.34,2.32-4.53C34.445,153.41341,33.7749,152.12337,32.09491,152.12337Zm0,0c-1.59,0-2.27,1.35-2.27,4.57,0,3.25.68005,4.56,2.30005,4.56,1.65,0,2.32-1.34,2.32-4.53C34.445,153.41341,33.7749,152.12337,32.09491,152.12337Zm36.62,0a3.05371,3.05371,0,0,0-2.18,1.01v7.73a3.64519,3.64519,0,0,0,1.96.53c1.82,0,2.46-1.23,2.46-4.81C70.9549,153.50337,70.25494,152.12337,68.7149,152.12337Zm11.04,7.45a1.83541,1.83541,0,0,0,1.79,1.93,2.89232,2.89232,0,0,0,2.13-1.09v-3.08C80.87494,157.33339,79.75494,157.95338,79.75494,159.57338Zm23.35,0a1.83545,1.83545,0,0,0,1.79,1.93,2.87605,2.87605,0,0,0,2.13-1.09v-3.08C104.22491,157.33339,103.10492,157.95338,103.10492,159.57338Zm0,0a1.83545,1.83545,0,0,0,1.79,1.93,2.87605,2.87605,0,0,0,2.13-1.09v-3.08C104.22491,157.33339,103.10492,157.95338,103.10492,159.57338Zm-23.35,0a1.83541,1.83541,0,0,0,1.79,1.93,2.89232,2.89232,0,0,0,2.13-1.09v-3.08C80.87494,157.33339,79.75494,157.95338,79.75494,159.57338Zm-11.04-7.45a3.05371,3.05371,0,0,0-2.18,1.01v7.73a3.64519,3.64519,0,0,0,1.96.53c1.82,0,2.46-1.23,2.46-4.81C70.9549,153.50337,70.25494,152.12337,68.7149,152.12337Zm-36.62,0c-1.59,0-2.27,1.35-2.27,4.57,0,3.25.68005,4.56,2.30005,4.56,1.65,0,2.32-1.34,2.32-4.53C34.445,153.41341,33.7749,152.12337,32.09491,152.12337Zm0,0c-1.59,0-2.27,1.35-2.27,4.57,0,3.25.68005,4.56,2.30005,4.56,1.65,0,2.32-1.34,2.32-4.53C34.445,153.41341,33.7749,152.12337,32.09491,152.12337Zm36.62,0a3.05371,3.05371,0,0,0-2.18,1.01v7.73a3.64519,3.64519,0,0,0,1.96.53c1.82,0,2.46-1.23,2.46-4.81C70.9549,153.50337,70.25494,152.12337,68.7149,152.12337Zm11.04,7.45a1.83541,1.83541,0,0,0,1.79,1.93,2.89232,2.89232,0,0,0,2.13-1.09v-3.08C80.87494,157.33339,79.75494,157.95338,79.75494,159.57338Zm23.35,0a1.83545,1.83545,0,0,0,1.79,1.93,2.87605,2.87605,0,0,0,2.13-1.09v-3.08C104.22491,157.33339,103.10492,157.95338,103.10492,159.57338Zm0,0a1.83545,1.83545,0,0,0,1.79,1.93,2.87605,2.87605,0,0,0,2.13-1.09v-3.08C104.22491,157.33339,103.10492,157.95338,103.10492,159.57338Zm-23.35,0a1.83541,1.83541,0,0,0,1.79,1.93,2.89232,2.89232,0,0,0,2.13-1.09v-3.08C80.87494,157.33339,79.75494,157.95338,79.75494,159.57338Zm-11.04-7.45a3.05371,3.05371,0,0,0-2.18,1.01v7.73a3.64519,3.64519,0,0,0,1.96.53c1.82,0,2.46-1.23,2.46-4.81C70.9549,153.50337,70.25494,152.12337,68.7149,152.12337Zm-36.62,0c-1.59,0-2.27,1.35-2.27,4.57,0,3.25.68005,4.56,2.30005,4.56,1.65,0,2.32-1.34,2.32-4.53C34.445,153.41341,33.7749,152.12337,32.09491,152.12337Zm0,0c-1.59,0-2.27,1.35-2.27,4.57,0,3.25.68005,4.56,2.30005,4.56,1.65,0,2.32-1.34,2.32-4.53C34.445,153.41341,33.7749,152.12337,32.09491,152.12337Zm36.62,0a3.05371,3.05371,0,0,0-2.18,1.01v7.73a3.64519,3.64519,0,0,0,1.96.53c1.82,0,2.46-1.23,2.46-4.81C70.9549,153.50337,70.25494,152.12337,68.7149,152.12337Zm11.04,7.45a1.83541,1.83541,0,0,0,1.79,1.93,2.89232,2.89232,0,0,0,2.13-1.09v-3.08C80.87494,157.33339,79.75494,157.95338,79.75494,159.57338Zm23.35,0a1.83545,1.83545,0,0,0,1.79,1.93,2.87605,2.87605,0,0,0,2.13-1.09v-3.08C104.22491,157.33339,103.10492,157.95338,103.10492,159.57338Zm0,0a1.83545,1.83545,0,0,0,1.79,1.93,2.87605,2.87605,0,0,0,2.13-1.09v-3.08C104.22491,157.33339,103.10492,157.95338,103.10492,159.57338Zm-23.35,0a1.83541,1.83541,0,0,0,1.79,1.93,2.89232,2.89232,0,0,0,2.13-1.09v-3.08C80.87494,157.33339,79.75494,157.95338,79.75494,159.57338Zm-11.04-7.45a3.05371,3.05371,0,0,0-2.18,1.01v7.73a3.64519,3.64519,0,0,0,1.96.53c1.82,0,2.46-1.23,2.46-4.81C70.9549,153.50337,70.25494,152.12337,68.7149,152.12337Zm-36.62,0c-1.59,0-2.27,1.35-2.27,4.57,0,3.25.68005,4.56,2.30005,4.56,1.65,0,2.32-1.34,2.32-4.53C34.445,153.41341,33.7749,152.12337,32.09491,152.12337Zm0,0c-1.59,0-2.27,1.35-2.27,4.57,0,3.25.68005,4.56,2.30005,4.56,1.65,0,2.32-1.34,2.32-4.53C34.445,153.41341,33.7749,152.12337,32.09491,152.12337Zm36.62,0a3.05371,3.05371,0,0,0-2.18,1.01v7.73a3.64519,3.64519,0,0,0,1.96.53c1.82,0,2.46-1.23,2.46-4.81C70.9549,153.50337,70.25494,152.12337,68.7149,152.12337Zm11.04,7.45a1.83541,1.83541,0,0,0,1.79,1.93,2.89232,2.89232,0,0,0,2.13-1.09v-3.08C80.87494,157.33339,79.75494,157.95338,79.75494,159.57338Zm0,0a1.83541,1.83541,0,0,0,1.79,1.93,2.89232,2.89232,0,0,0,2.13-1.09v-3.08C80.87494,157.33339,79.75494,157.95338,79.75494,159.57338Zm-11.04-7.45a3.05371,3.05371,0,0,0-2.18,1.01v7.73a3.64519,3.64519,0,0,0,1.96.53c1.82,0,2.46-1.23,2.46-4.81C70.9549,153.50337,70.25494,152.12337,68.7149,152.12337Zm-36.62,0c-1.59,0-2.27,1.35-2.27,4.57,0,3.25.68005,4.56,2.30005,4.56,1.65,0,2.32-1.34,2.32-4.53C34.445,153.41341,33.7749,152.12337,32.09491,152.12337Zm0,0c-1.59,0-2.27,1.35-2.27,4.57,0,3.25.68005,4.56,2.30005,4.56,1.65,0,2.32-1.34,2.32-4.53C34.445,153.41341,33.7749,152.12337,32.09491,152.12337Zm0,0c-1.59,0-2.27,1.35-2.27,4.57,0,3.25.68005,4.56,2.30005,4.56,1.65,0,2.32-1.34,2.32-4.53C34.445,153.41341,33.7749,152.12337,32.09491,152.12337Z" fill="#959ca1"></path><path d="M95.7149,96.45338l-20.3-62.08c-.59-1.87-1.37-2.45-3.33-2.45h-17.85c-1.97,0-2.75.58-3.34,2.45l-20.3,62.08a8.61473,8.61473,0,0,0-.49,2.06,2.33657,2.33657,0,0,0,2.65,2.64h14.71c1.96,0,2.75-.58,3.24-2.45l1.86-7.65H70.51489l1.76,7.65c.39,1.87,1.28,2.45,3.24,2.45H93.56494a2.33345,2.33345,0,0,0,2.64-2.64A8.6143,8.6143,0,0,0,95.7149,96.45338Zm-40.11-18.24,3.04-12.66c1.67-6.96,3.04-16.28,3.04-16.28h.2s1.27,9.32,2.84,16.28l2.85,12.66Z" fill="#959ca1"></path><path d="M152.23,31.98a4.034,4.034,0,0,0-.72-.06h-15.4c-1.96,0-2.75.58-3.24,2.45l-6.96,27.07c-1.08,4.31-1.87,10.39-1.87,10.39h-.19s-.69-6.08-1.67-10.39L115.9,34.37c-.39-1.87-1.27-2.45-3.23-2.45H94.03a2.33347,2.33347,0,0,0-2.64,2.64,8.61569,8.61569,0,0,0,.49,2.06L112.76,98.7c.59,1.87,1.38,2.45,3.34,2.45h13.34c1.96,0,2.75-.58,3.33-2.45l11.46-34.04,8-23.76,1.44-4.28a9.07065,9.07065,0,0,0,.48-2.06Q154.15,32.31,152.23,31.98Z" fill="#959ca1"></path></svg>