<svg xmlns="http://www.w3.org/2000/svg" viewBox="0 0 195 96"><path d="M47.606,67.268V65.049h.9V64.1h-.9v-1.74l-1.006.5V64.1h-.554v.954H46.6v2.243c0,.981.359,1.373,1.083,1.373a1.571,1.571,0,0,0,.767-.2l.119-.971a1.007,1.007,0,0,1-.6.213C47.735,67.711,47.606,67.6,47.606,67.268Z" fill="#95999c"></path><path d="M44.5,65.877c-.615-.29-.751-.418-.751-.614,0-.179.146-.307.376-.307a1.779,1.779,0,0,1,.937.274l.351-.819A2.149,2.149,0,0,0,44.152,64a1.262,1.262,0,0,0-1.382,1.288,1.412,1.412,0,0,0,.973,1.38c.63.308.81.428.81.676,0,.22-.154.365-.47.365a1.827,1.827,0,0,1-1.073-.392l-.359.862a2.151,2.151,0,0,0,1.415.485,1.332,1.332,0,0,0,1.468-1.406C45.534,66.558,45.158,66.193,44.5,65.877Z" fill="#95999c"></path><polygon points="37.698 48.249 40.807 48.249 40.807 45.473 37.698 45.473 37.698 43.126 42.469 43.126 42.469 40.329 34.451 40.329 34.451 54.017 42.605 54.017 42.605 51.221 37.698 51.221 37.698 48.249" fill="#95999c"></polygon><path d="M49.944,67.251a.707.707,0,1,0,.707.706A.716.716,0,0,0,49.944,67.251Z" fill="#95999c"></path><polygon points="58.355 54.017 58.355 43.184 60.342 43.184 61.709 40.329 52.312 40.329 52.312 43.184 55.089 43.184 55.089 54.017 58.355 54.017" fill="#95999c"></polygon><polygon points="41.782 37.189 24.584 6.484 7.386 37.189 17.497 37.189 24.84 24.309 31.71 37.154 41.782 37.189" fill="#95999c"></polygon><path d="M40.467,64c-.973,0-1.654.836-1.654,2.338,0,1.381.6,2.325,1.713,2.325a1.612,1.612,0,0,0,1.433-.808l-.716-.537a.752.752,0,0,1-.7.392c-.393,0-.674-.307-.716-1h2.259c.008-.119.017-.256.017-.374C42.1,65.11,41.592,64,40.467,64Zm-.639,1.885c.05-.657.255-.981.63-.981.435,0,.589.436.639.981Z" fill="#95999c"></path><polygon points="62.039 6.326 51.929 6.326 44.587 19.205 37.715 6.361 27.644 6.326 44.844 37.031 62.039 6.326" fill="#95999c"></polygon><path d="M48.386,45.571c-1.388-.607-1.74-1.017-1.74-1.742a.944.944,0,0,1,.978-.977c.861,0,1.193.352,2.131,1.467l2.268-2.033a4.869,4.869,0,0,0-4.3-2.171A3.941,3.941,0,0,0,43.479,44.1c0,2.153,1,3.188,3.715,4.38,1.543.685,1.759,1.154,1.759,1.917a1.038,1.038,0,0,1-1.172,1.094c-.667,0-1.408-.567-2.328-1.661l-2.229,2.014a5.141,5.141,0,0,0,4.5,2.385c2.544,0,4.44-1.465,4.44-4.028C52.161,47.917,51.143,46.783,48.386,45.571Z" fill="#95999c"></path><path d="M52.87,64c-1.006,0-1.7.835-1.7,2.346s.691,2.318,1.7,2.318,1.7-.827,1.7-2.336S53.868,64,52.87,64Zm0,3.709c-.485,0-.682-.545-.682-1.381s.179-1.373.666-1.373.681.564.681,1.391C53.535,67.1,53.347,67.71,52.87,67.71Z" fill="#95999c"></path><polygon points="58.031 37.283 52.727 27.812 47.718 37.283 58.031 37.283" fill="#95999c"></polygon><path d="M27.089,64a2.319,2.319,0,0,0-1.381.435l.409.734a1.473,1.473,0,0,1,.9-.274.486.486,0,0,1,.537.555v.342a1.224,1.224,0,0,0-.751-.179,1.363,1.363,0,0,0-1.372,1.491c0,.964.537,1.56,1.322,1.56a1.048,1.048,0,0,0,.8-.4v.306h1.007V65.493C28.565,64.512,28.13,64,27.089,64Zm.469,3.393a.72.72,0,0,1-.588.377c-.333,0-.512-.247-.512-.683,0-.375.205-.623.486-.623a.825.825,0,0,1,.614.214Z" fill="#95999c"></path><polygon points="27.717 53.946 31.38 53.946 31.38 43.115 33.758 43.115 33.758 40.259 26.406 40.259 24.924 43.115 27.717 43.115 27.717 53.946" fill="#95999c"></polygon><path d="M31.047,66.03c-.067.334-.23,1.152-.273,1.39-.042-.238-.2-1.024-.272-1.39L30.084,64.1H29.078l1.142,4.476h1.092L32.454,64.1h-.989Z" fill="#95999c"></path><rect x="32.959" y="64.956" width="2.174" height="1.041" fill="#95999c"></rect><path d="M56.334,64.4V64.1H55.328v4.476h1.006v-3.2a.773.773,0,0,1,.648-.383.9.9,0,0,1,.589.22l.29-.98a1.112,1.112,0,0,0-.708-.23A1.159,1.159,0,0,0,56.334,64.4Z" fill="#95999c"></path><path d="M194.889,47.009,195,5.363A5.222,5.222,0,0,0,189.781.127L62.081.04H23.8A5.15,5.15,0,0,0,19.71,2.4L.579,35.538A5.2,5.2,0,0,0,.56,40.269L31.248,93.586a5.1,5.1,0,0,0,4.076,2.375l24.868-.046a3.752,3.752,0,0,0,.554.046l129.01-.088A5.248,5.248,0,0,0,195,90.612ZM22.432,70.893,4.008,38.981a2.908,2.908,0,0,1,0-2.618L22.432,4.449A2.907,2.907,0,0,1,24.7,3.14H61.55a2.9,2.9,0,0,1,2.266,1.309L82.244,36.363a2.9,2.9,0,0,1,0,2.618L63.816,70.893A2.9,2.9,0,0,1,61.55,72.2H24.7A2.9,2.9,0,0,1,22.432,70.893Zm47.883,7.842v1.43h-1.9v2.352h2.946v1.455H66.9V75.485h4.352V76.94H68.412v1.8ZM69.3,71.228c-1.3-.764-2.1-1.76-1.482-2.807s1.858-.822,3.151-.063,2.1,1.761,1.483,2.8S70.6,71.987,69.3,71.228Zm2.976-2.974a1.287,1.287,0,0,1-.708-1.282,1.106,1.106,0,0,1-1.131-.035,1.432,1.432,0,1,1,1.453-2.466,1.092,1.092,0,0,1,.579.971,1.289,1.289,0,0,1,1.464,0,1.633,1.633,0,1,1-1.657,2.815Zm-.988-6.9.473-.8,4.616,5.1-.472.8Zm1.38,14.135h1.914c2.038,0,3.238,1.251,3.238,4.232s-1.285,4.255-3.272,4.255H72.67Zm4.352-12.258A3.233,3.233,0,0,1,75.241,60.4a.92.92,0,0,0-.431-.825.537.537,0,0,0-.83.2,1.121,1.121,0,0,0-.019.957l-.879.16a1.775,1.775,0,0,1,.114-1.62,1.346,1.346,0,0,1,1.978-.585,1.822,1.822,0,0,1,.9,1.521c.1.879.238,1.333.7,1.648l.983-1.672.784.461Zm-.3-4.634c-1.3-.763-2.1-1.758-1.48-2.807s1.856-.821,3.149-.061,2.1,1.761,1.484,2.8S78.019,59.353,76.726,58.593Zm2.481-4.939a.927.927,0,0,0-.433-.826.537.537,0,0,0-.83.2,1.117,1.117,0,0,0-.019.957l-.878.158a1.776,1.776,0,0,1,.113-1.619,1.346,1.346,0,0,1,1.978-.586,1.826,1.826,0,0,1,.9,1.523c.1.879.238,1.331.7,1.648l.982-1.672.786.461-1.517,2.579A3.23,3.23,0,0,1,79.207,53.654Zm.67-2.951-.36.611-.5-.3a.909.909,0,0,0-.223-1.107l.4-.688,4.5,2.645-.471.8ZM65.258,75.485v8.487H63.742V75.485Zm-8.84,0v8.487H54.9V75.485Zm-22.6,8.62c-1.879,0-2.751-1.928-2.751-4.364s.9-4.388,2.775-4.388c1.444,0,2.074.921,2.4,2.146l-1.418.459c-.218-.775-.449-1.091-1.007-1.091-.812,0-1.2,1.043-1.2,2.85s.4,2.873,1.224,2.873c.523,0,.789-.292,1.1-1.212l1.309.558C35.856,83.328,35.117,84.105,33.819,84.105Zm8.078-.133H37.436V75.485h4.351V76.94H38.951v1.8h1.9v1.43h-1.9v2.352H41.9Zm4.646,0-1.322-3.226h-.5v3.226H43.209V75.485h2.255a2.43,2.43,0,0,1,2.7,2.643,2.406,2.406,0,0,1-1.43,2.316l1.454,3.528Zm5.445,0H50.472V76.94H48.715V75.485h5.031V76.94H51.988Zm5.944,8.675h-.909l-.5-2.473c-.118-.573-.2-1.077-.261-1.48-.059.411-.142.907-.261,1.48l-.5,2.473h-.883l-.951-5.888h.994l.285,2.195c.059.429.144,1.262.185,1.665.05-.4.194-1.236.277-1.665l.429-2.195h.868l.429,2.195c.083.429.235,1.262.285,1.665.043-.4.126-1.236.185-1.665L57.9,86.76h.984Zm2.759,0H59.64V86.76h1.051Zm.866-12.35H59.569v3.674H58.054V75.486h4.473v1.466H59.569v1.879h1.988Zm3.752,12.35H64.3l-1.085-2.625c-.152-.37-.337-.85-.446-1.194.008.362.017.967.017,1.338v2.481h-.96V86.76h1.061l1.034,2.583c.144.352.354.9.463,1.227-.008-.361-.034-1-.034-1.371V86.76h.959Zm2.4,0H66.4V86.76h1.329c1.413,0,2.247.866,2.247,2.935S69.086,92.648,67.706,92.648Zm4.9.093c-1.37,0-1.951-1.338-1.951-3.029s.6-3.045,1.969-3.045,1.943,1.338,1.943,3.028S73.966,92.741,72.6,92.741Zm6.722-.093h-.909l-.5-2.473c-.117-.573-.2-1.077-.261-1.48-.058.411-.142.907-.261,1.48l-.5,2.473h-.883l-.951-5.888h.994l.285,2.195c.059.429.144,1.262.185,1.665.051-.4.194-1.236.277-1.665l.429-2.195h.868l.429,2.195c.084.429.235,1.262.286,1.665.042-.4.126-1.236.184-1.665l.287-2.195h.984Zm2.909.093a2.2,2.2,0,0,1-1.757-.925l.715-.767a1.456,1.456,0,0,0,1.085.674.585.585,0,0,0,.656-.639c0-.337-.211-.606-.9-.96-.875-.453-1.4-.9-1.4-1.876a1.56,1.56,0,0,1,1.648-1.581,1.86,1.86,0,0,1,1.607.842l-.7.7c-.344-.388-.53-.522-.933-.522a.512.512,0,0,0-.556.513c0,.353.2.572.842.917,1.018.547,1.463.951,1.463,1.943A1.63,1.63,0,0,1,82.233,92.741Zm106.277.039-101.843.07c0-.017,0-.034,0-.051l-.135-52.635a11.026,11.026,0,0,0-1.246-4.626l-18.71-32.4,121.911.039A3.412,3.412,0,0,1,191.9,6.594L191.8,47.017l.125,42.341A3.412,3.412,0,0,1,188.51,92.78Z" fill="#95999c"></path><path d="M37.293,67.268V65.049h.9V64.1h-.9v-1.74l-1.007.5V64.1h-.555v.954h.555v2.243c0,.981.359,1.373,1.083,1.373a1.577,1.577,0,0,0,.767-.2l.12-.971a1.012,1.012,0,0,1-.6.213C37.42,67.711,37.293,67.6,37.293,67.268Z" fill="#95999c"></path><path d="M60.276,64.343A1.091,1.091,0,0,0,59.5,64c-.98,0-1.39.972-1.39,2.337,0,1.577.469,2.327,1.3,2.327a1.21,1.21,0,0,0,.862-.4c0,.81-.154,1-1.2,1.2l.273.75c1.535-.2,1.936-.767,1.936-2.107V64.1H60.276Zm0,3.01a.849.849,0,0,1-.624.375c-.418,0-.519-.443-.519-1.426,0-1.039.145-1.363.5-1.363a.815.815,0,0,1,.64.383Z" fill="#95999c"></path><path d="M97.9,63.086H92.89V81.947h3.368V75.185h1.509a5.8,5.8,0,0,0,6.143-6.091C103.91,65.134,101.485,63.086,97.9,63.086Zm.027,8.811h-1.67V66.373h1.616c1.968,0,2.668,1.213,2.668,2.775A2.424,2.424,0,0,1,97.928,71.9Z" fill="#95999c"></path><polygon points="90.492 23.071 99.463 23.071 99.463 58.075 110.015 58.075 110.015 23.071 118.988 23.071 118.988 13.846 90.492 13.846 90.492 23.071" fill="#95999c"></polygon><path d="M117.33,68.96c0-3.907-2.344-5.874-6.009-5.874h-5.012V81.947h3.368V74.78h1.1l2.937,7.167h3.665l-3.234-7.84A5.342,5.342,0,0,0,117.33,68.96Zm-5.982,2.667h-1.671V66.373h1.483c2.02,0,2.8.943,2.8,2.64A2.325,2.325,0,0,1,111.348,71.627Z" fill="#95999c"></path><path d="M77.928,56.549c-1.016-.6-1.652-.721-1.905-.289s.154.913,1.17,1.51,1.654.72,1.91.282C79.352,57.629,78.943,57.146,77.928,56.549Z" fill="#95999c"></path><path d="M72.6,87.718c-.63,0-.874.724-.874,1.977s.261,1.994.892,1.994.866-.723.866-1.977S73.225,87.718,72.6,87.718Z" fill="#95999c"></path><path d="M125.388,62.79c-4.393,0-6.305,4.31-6.305,9.753,0,5.417,1.858,9.7,6.251,9.7,4.365,0,6.279-4.311,6.279-9.755C131.613,67.073,129.753,62.79,125.388,62.79Zm0,16.086c-2.022,0-2.856-2.371-2.856-6.387s.781-6.331,2.8-6.331c1.994,0,2.83,2.371,2.83,6.385S127.382,78.876,125.388,78.876Z" fill="#95999c"></path><path d="M167.9,42.025h3.791c8.467,0,14.469-3.917,14.469-14.4,0-10.236-5.813-13.774-13.711-13.774H157.534V58.075H167.9Zm0-19.586h3.6c2.97,0,4.17,1.516,4.17,5.433,0,3.981-1.326,5.56-4.359,5.56H167.9Z" fill="#95999c"></path><path d="M138.387,58.769c9.983,0,15.923-7.265,15.923-22.872,0-15.544-5.877-22.746-15.8-22.746s-15.859,7.266-15.859,22.872S128.467,58.769,138.387,58.769Zm.064-36.52c3.284,0,4.991,3.1,4.991,13.774s-1.643,13.648-4.929,13.648-4.991-3.1-4.991-13.774S135.1,22.249,138.451,22.249Z" fill="#95999c"></path><path d="M45.391,76.965h-.666V79.33h.751a1.047,1.047,0,0,0,1.176-1.178C46.652,77.389,46.3,76.965,45.391,76.965Z" fill="#95999c"></path><path d="M67.732,87.786h-.277v3.836h.277c.942,0,1.17-.824,1.17-1.91S68.674,87.786,67.732,87.786Z" fill="#95999c"></path><path d="M168.776,78.876c-1.833,0-2.721-2.371-2.721-6.387s.861-6.331,2.667-6.331c1.24,0,1.751.7,2.237,2.425l3.153-1.024c-.728-2.721-2.129-4.769-5.336-4.769-4.177,0-6.17,4.31-6.17,9.753,0,5.417,1.939,9.7,6.116,9.7,2.883,0,4.527-1.725,5.415-4.824l-2.909-1.239C170.527,78.229,169.935,78.876,168.776,78.876Z" fill="#95999c"></path><path d="M70.5,69.182c-1.016-.6-1.652-.719-1.9-.289s.154.915,1.169,1.511,1.654.72,1.91.283S71.519,69.779,70.5,69.182Z" fill="#95999c"></path><path d="M156.486,74.457c0,3.26-.647,4.446-2.209,4.446-1.537,0-2.264-1.186-2.264-4.446V63.086h-3.368V74.457c0,4.688,1.59,7.787,5.6,7.787,4.149,0,5.6-2.937,5.6-7.841V63.086h-3.369Z" fill="#95999c"></path><polygon points="175.54 66.319 179.447 66.319 179.447 81.947 182.815 81.947 182.815 66.319 186.723 66.319 186.723 63.086 175.54 63.086 175.54 66.319" fill="#95999c"></polygon><path d="M71.455,65.2a.585.585,0,1,0-.59,1,.584.584,0,1,0,.59-1Z" fill="#95999c"></path><path d="M138.7,63.086h-4.258V81.947h4.177c4.419,0,7.275-2.829,7.275-9.458S143.227,63.086,138.7,63.086Zm0,15.575h-.89V66.373h.89c3.018,0,3.745,2.694,3.745,6.17S141.719,78.661,138.7,78.661Z" fill="#95999c"></path><path d="M73.78,67.244a.724.724,0,0,0-.3-1.033.739.739,0,1,0-.75,1.272A.723.723,0,0,0,73.78,67.244Z" fill="#95999c"></path><path d="M76.271,79.741c0-1.563-.328-2.776-1.687-2.776h-.4v5.528h.4C75.943,82.493,76.271,81.305,76.271,79.741Z" fill="#95999c"></path></svg>