<svg xmlns="http://www.w3.org/2000/svg" xmlns:xlink="http://www.w3.org/1999/xlink" x="0px" y="0px" width="119.05511px" height="92.23937px" viewBox="0 0 119.05511 92.23937" xml:space="preserve"><g id="bckg"></g><g id="logo"><g><g><path fill="#A4ACB1" d="M18.94873,82.45215c-4.78418,0-7.51416-3.04199-7.51416-7.25391 c0-4.47217,2.7041-7.43652,7.43652-7.43652c1.7417,0,2.93799,0.26025,4.3418,0.80615l-0.57178,1.63818 c-1.35205-0.41602-2.31396-0.65039-3.71826-0.65039c-2.88623-0.02588-5.4082,1.53418-5.4082,5.43457 c0,4.03027,2.62598,5.72021,5.79834,5.72021c1.32568,0,2.52197-0.31201,3.45801-0.57227 c0.05225,0.20801,0.44189,1.4043,0.52002,1.6123C22.38086,82.0625,21.21094,82.45215,18.94873,82.45215z M30.05371,82.37451 c-4.52441,0-7.12451-2.99023-7.12451-7.30615c0-4.49854,3.04199-7.28027,7.48828-7.28027 c4.70605,0,7.09814,3.17188,7.09814,7.30615C37.51563,79.48828,34.70752,82.37451,30.05371,82.37451z M30.23535,69.50391 c-3.50977,0-5.27832,2.39209-5.27832,5.53809c0,3.09424,1.71631,5.64258,5.14844,5.64258 c3.64014,0,5.35645-2.39258,5.35645-5.59033C35.46191,71.896,33.61572,69.50391,30.23535,69.50391z M53.99951,82.19238v-9.85449 l0.104-1.8457l-5.43457,11.7002h-2.62598l-4.96582-11.51855l0.12988,1.71631v9.80225h-1.9502V67.99609h2.72998l5.4082,12.61035 l5.90234-12.61035h2.65186v14.19629H53.99951z M58.78516,67.99609h5.33008c2.91211,0,4.81055,1.6377,4.81055,4.57617 c0,2.7041-1.87207,4.75781-5.85059,4.75781h-2.28809v4.8623h-2.00195V67.99609z M63.20508,75.64014 c2.13232,0,3.58838-0.91016,3.58838-2.99023c0-2.02783-0.98779-2.96387-3.12012-2.96387h-2.88623v5.9541H63.20508z M70.05615,82.19238V67.99609h2.02783v12.4541h7.85254v1.74219H70.05615z M80.96533,82.19238V67.99609h9.51611v1.66406h-7.48828 v4.5498h7.04639v1.69043h-7.04639v4.60205h7.95654v1.68994H80.96533z M98.53613,69.71191v12.48047h-2.00244V69.71191h-5.27783 v-1.71582h12.55811v1.71582H98.53613z M104.85596,82.19238V67.99609h9.51611v1.66406h-7.48828v4.5498h7.04639v1.69043h-7.04639 v4.60205h7.95654v1.68994H104.85596z"></path></g><g><g><path fill="#008EA0" d="M82.80749,9.60053c0-0.03129-0.0061-0.06025-0.0191-0.08644 c-0.01421-0.02632-0.03736-0.04795-0.06907-0.0641c-0.03006-0.01564-0.06378-0.02571-0.10197-0.03008 c-0.03901-0.00487-0.08331-0.00761-0.13003-0.00761h-0.12068v0.42806h0.0902c0.06379,0,0.11703-0.00447,0.16252-0.0134 c0.04675-0.00853,0.08249-0.02297,0.10972-0.04471c0.02601-0.0191,0.04631-0.04479,0.05931-0.07375 C82.80138,9.67915,82.80749,9.6433,82.80749,9.60053 M83.45841,10.67211h-0.47986l-0.46076-0.56093h-0.15116v0.56093h-0.37666 V9.14859h0.57983c0.10726,0,0.19381,0.00458,0.26005,0.01311c0.0642,0.00905,0.1284,0.02906,0.19218,0.0637 c0.06948,0.0393,0.11987,0.08563,0.15197,0.14068c0.03372,0.05517,0.04956,0.12455,0.04956,0.20592 c0,0.11153-0.03046,0.20315-0.09427,0.27355c-0.06216,0.07304-0.14504,0.12953-0.245,0.16832L83.45841,10.67211z M83.79182,9.9461c0-0.32922-0.11762-0.6114-0.34924-0.84667c-0.23365-0.2375-0.51318-0.35493-0.84191-0.35493 c-0.32791,0-0.6103,0.11744-0.8423,0.35493c-0.23365,0.23527-0.34944,0.51745-0.34944,0.84667 c0,0.33003,0.11579,0.61132,0.34944,0.8479c0.232,0.23598,0.51439,0.35493,0.8423,0.35493 c0.32873,0,0.60826-0.11896,0.84191-0.35493C83.67419,10.55742,83.79182,10.27613,83.79182,9.9461 M84.12784,9.9461 c0,0.42157-0.14912,0.78106-0.44817,1.07972c-0.29803,0.30026-0.65723,0.44917-1.07899,0.44917 c-0.42217,0-0.78136-0.14891-1.08001-0.44917C81.222,10.72716,81.0733,10.36767,81.0733,9.9461 c0-0.42055,0.1487-0.77983,0.44736-1.07828c0.29865-0.30007,0.65784-0.4497,1.08001-0.4497 c0.42176,0,0.78096,0.14962,1.07899,0.4497C83.97871,9.16627,84.12784,9.52555,84.12784,9.9461"></path><path fill="#008EA0" d="M75.24375,9.9776c3.76012,0,6.96664,1.93969,8.63947,4.68889 c1.47558,2.55852,1.80307,6.72629,1.80307,9.48625c0,2.7626-0.32749,6.93088-1.80307,9.48869 c-1.67283,2.7486-4.87935,4.6892-8.63947,4.6892H20.41857c-3.76143,0-6.96734-1.9406-8.64018-4.6892 c-1.47688-2.55781-1.80265-6.72486-1.80265-9.48706c0-2.76158,0.32577-6.92936,1.80265-9.48787 c1.67284-2.7492,4.87875-4.68889,8.64018-4.68889H75.24375z M56.90165,22.59428 c0.05182-1.81139,0.39698-2.41012,2.24638-2.41012c1.52209,0,2.36845,0.15828,2.36845,2.26689v0.14323H56.90165 M24.50386,20.32222c-1.79004,0-2.15087,0.55047-2.20104,2.32447h4.52726v-0.10036 C26.83008,20.47123,26.01551,20.32222,24.50386,20.32222 M18.1065,24.23502c0-5.12171,1.14227-6.77984,6.47438-6.77984 c4.97992,0,6.44683,1.35784,6.44683,6.77984v0.64078h-8.72429v0.10117c0,2.3701,0.37158,3.14537,2.27746,3.14537 c1.32054,0,2.2807-0.14507,2.32479-1.56112h4.12205c-0.02193,1.9333-0.67144,3.01616-1.76354,3.64982 c-1.12684,0.62472-2.73843,0.77831-4.68329,0.77831C19.35026,30.98935,18.1065,29.20376,18.1065,24.23502 M33.80708,21.7536 c0-4.21431,2.71954-4.29842,6.47357-4.29842c2.50112,0,5.83318,0.04319,5.83318,3.22328v0.53909h-3.95506 c-0.19148-1.05024-1.03297-1.12624-1.87813-1.12624c-2.30467,0-2.40361,0.28555-2.40361,1.17694 c0,0.75077,0.13348,1.22607,2.40188,1.27677c4.568,0.1031,6.47559,0.36396,6.47559,4.01803 c0,3.83591-2.93619,4.4263-6.47386,4.4263c-0.86679,0-1.71082,0.00529-2.48733-0.05505 c-2.56573-0.20419-3.95404-1.1621-3.98624-4.09028h4.19927c0.05047,1.48552,1.17203,1.5099,2.2743,1.5099 c1.98112,0,2.40392-0.12432,2.40392-1.27769c0-0.6885-0.20134-1.06884-0.63591-1.25817 c-0.46848-0.20317-1.26539-0.17573-1.76801-0.17573C34.72243,25.64234,33.80708,24.40365,33.80708,21.7536 M68.25255,20.47529 h3.06917v10.36617h4.19713V20.47529h3.06571v-3.02011H68.25255V20.47529z M52.7929,24.13974 c0,4.94944,1.22772,6.71187,6.43071,6.71187c1.94466,0,3.54782-0.15522,4.66257-0.77446 c1.06821-0.61821,1.71043-1.6765,1.74211-3.56794h-4.03825c-0.06197,1.41645-1.05929,1.56112-2.36644,1.56112 c-1.94264,0-2.31769-0.81143-2.31769-3.18843v-0.14507h8.7236v-0.59709c0-5.39894-1.44875-6.73819-6.40591-6.73819 C53.91882,17.40155,52.7929,19.036,52.7929,24.13974 M15.03234,33.33101c1.33213,1.43126,3.89158,2.50235,6.08329,2.5064 H49.3881V12.46909H21.11563c-2.1917,0.00426-4.75116,1.07574-6.08329,2.5063c-2.10424,2.25959-2.5638,5.80628-2.5638,9.17898 C12.46854,27.52666,12.9281,31.07142,15.03234,33.33101"></path></g></g><path fill="#A4ACB1" d="M12.89063,49.57208h5.32992c2.91235,0,4.80983,1.63784,4.80983,4.57632 c0,2.70415-1.87135,4.75758-5.85002,4.75758h-2.28775v4.86209h-2.00199V49.57208z M17.311,57.21589 c2.13181,0,3.58757-0.90955,3.58757-2.98992c0-2.0273-0.98793-2.96379-3.11974-2.96379h-2.88623v5.95371H17.311z M24.93142,49.57208h5.22623c2.88623,0,4.78371,1.50802,4.78371,4.4465c0,1.79379-0.90955,3.35324-2.8601,4.10767l4.70614,5.64182 h-2.6519l-4.10767-5.17398c-0.2082,0-0.64991,0.02613-0.91037,0.02613h-2.15793v5.14785h-2.02811V49.57208z M29.22116,56.95625 c2.13262,0,3.58839-0.75442,3.58839-2.83397c0-2.00199-0.98793-2.8601-3.09361-2.8601h-2.75641v5.69407H29.22116z M43.84416,63.95014c-4.52407,0-7.12371-2.98991-7.12371-7.30578c0-4.49794,3.04136-7.27966,7.48786-7.27966 c4.70532,0,7.09758,3.17199,7.09758,7.30579C51.30589,61.06392,48.49805,63.95014,43.84416,63.95014z M44.02623,51.0801 c-3.51001,0-5.27848,2.39226-5.27848,5.53812c0,3.09361,1.71622,5.64182,5.14785,5.64182 c3.64064,0,5.35605-2.39226,5.35605-5.58956C49.25165,53.47237,47.40561,51.0801,44.02623,51.0801z M57.19918,51.2883v12.47976 h-2.00199V51.2883h-4.4416v-1.71622h10.8852v1.71622H57.19918z M63.0469,63.76807V49.57208h8.6799v1.66397h-6.65179v4.55019 h6.21008v1.6901h-6.21008v4.60163h7.11963v1.69009H63.0469z M80.22382,64.0277c-4.78371,0-7.51317-3.04135-7.51317-7.25353 c0-4.47181,2.70334-7.4356,7.43561-7.4356c1.74153,0,2.93766,0.25964,4.342,0.80586l-0.57235,1.63784 c-1.35207-0.41558-2.31388-0.64991-3.71739-0.64991c-2.88623-0.02613-5.40831,1.53415-5.40831,5.43362 c0,4.0301,2.62577,5.7202,5.79777,5.7202c1.32594,0,2.52208-0.31189,3.45776-0.57235 c0.05225,0.2082,0.44253,1.40433,0.52009,1.61253C83.65627,63.63825,82.48626,64.0277,80.22382,64.0277z M91.91161,51.2883 v12.47976h-2.00199V51.2883h-4.4416v-1.71622h10.8852v1.71622H91.91161z"></path></g></g><g id="guides"></g></svg>