<svg xmlns="http://www.w3.org/2000/svg" xmlns:xlink="http://www.w3.org/1999/xlink" viewBox="0 0 229.606 116.22"><path fill="#ffffff" d="M43.353,58.715c0,11.942,2.989,16.233,15.561,16.233c4.674,0,8.548-0.369,11.256-1.871   c2.625-1.523,4.186-4.125,4.238-8.772H64.5c-0.106,3.403-2.414,3.752-5.587,3.752c-4.581,0-5.474-1.863-5.474-7.56v-0.243h20.968   v-1.54c0-13.031-3.526-16.295-15.494-16.295C46.098,42.42,43.353,46.406,43.353,58.715z M58.728,49.311   c3.633,0,5.591,0.358,5.591,5.345v0.241H53.438C53.559,50.634,54.426,49.311,58.728,49.311z M102.424,65.544   c0-1.655-0.484-2.569-1.528-3.024c-1.126-0.488-3.041-0.422-4.249-0.422c-13.359,0-15.559-2.977-15.559-9.346   c0-10.129,6.536-10.331,15.559-10.331c6.011,0,14.019,0.104,14.019,7.747v1.296h-9.506c-0.46-2.524-2.483-2.707-4.514-2.707   c-5.539,0-5.777,0.686-5.777,2.829c0,1.804,0.321,2.947,5.773,3.069c10.979,0.248,15.563,0.875,15.563,9.657   c0,9.219-7.057,10.638-15.559,10.638c-2.083,0-4.112,0.013-5.978-0.132c-6.167-0.491-9.503-2.793-9.581-9.831H91.18   c0.121,3.57,2.817,3.629,5.466,3.629C101.407,68.614,102.424,68.316,102.424,65.544z M147.684,54.427v0.344h-11.091   c0.125-4.353,0.954-5.792,5.399-5.792C145.65,48.979,147.684,49.36,147.684,54.427z M201.441,35.718   c-4.021-6.607-11.727-11.269-20.764-11.269H48.909c-9.04,0-16.745,4.662-20.766,11.269c-3.549,6.149-4.332,16.166-4.332,22.803   c0,6.639,0.783,16.654,4.332,22.801c4.021,6.606,11.726,11.27,20.766,11.27h131.767c9.037,0,16.744-4.664,20.764-11.27   c3.546-6.147,4.333-16.166,4.333-22.805C205.774,51.884,204.987,41.867,201.441,35.718z M118.535,86.6h-67.95   c-5.268-0.01-11.419-2.584-14.621-6.024c-5.057-5.431-6.162-13.95-6.162-22.055c0-8.106,1.104-16.63,6.162-22.061   c3.202-3.438,9.353-6.013,14.621-6.024h67.95V86.6z M157.57,59.921h-20.966v0.349c0,5.713,0.901,7.663,5.57,7.663   c3.142,0,5.539-0.348,5.688-3.752h9.706c-0.076,4.546-1.62,7.089-4.187,8.575c-2.679,1.488-6.532,1.861-11.206,1.861   c-12.505,0-15.456-4.236-15.456-16.131c0-12.266,2.706-16.195,15.456-16.195c11.914,0,15.396,3.219,15.396,16.195V59.921z    M188.706,49.679h-7.368v24.914H171.25V49.679h-7.376V42.42h24.832V49.679z"></path><path fill-rule="evenodd" fill="#ffffff" d="M203.065,18.72c0-0.134-0.031-0.266-0.107-0.391    c-0.042-0.149-0.167-0.239-0.326-0.343c-0.128-0.058-0.293-0.121-0.475-0.121c-0.201-0.04-0.424-0.04-0.644-0.04h-0.577v2.06    h0.448c0.295,0,0.544-0.011,0.774-0.042c0.228-0.065,0.401-0.131,0.535-0.226c0.132-0.102,0.224-0.236,0.287-0.355    C203.034,19.127,203.065,18.933,203.065,18.72 M206.206,23.895h-2.329l-2.198-2.704h-0.743v2.704h-1.786v-7.329h2.777    c0.512,0,0.926,0.012,1.24,0.065c0.32,0.038,0.615,0.123,0.928,0.299c0.339,0.191,0.588,0.408,0.745,0.672    c0.155,0.263,0.226,0.604,0.226,1.014c0,0.523-0.159,0.972-0.456,1.296c-0.299,0.347-0.69,0.627-1.171,0.816L206.206,23.895z"></path><path fill-rule="evenodd" fill="#ffffff" d="M207.804,20.395c0-1.573-0.556-2.946-1.69-4.094c-1.111-1.125-2.451-1.671-4.03-1.671    c-1.608,0-2.934,0.546-4.063,1.671c-1.127,1.148-1.677,2.522-1.677,4.094c0,1.598,0.55,2.953,1.677,4.101    c1.129,1.131,2.455,1.705,4.063,1.705c1.579,0,2.919-0.573,4.03-1.705C207.248,23.348,207.804,21.993,207.804,20.395     M209.429,20.395c0,2.03-0.73,3.779-2.156,5.213c-1.441,1.422-3.176,2.143-5.188,2.143c-2.054,0-3.789-0.722-5.209-2.143    c-1.454-1.435-2.164-3.183-2.164-5.213c0-2.024,0.711-3.747,2.164-5.179c1.42-1.462,3.155-2.169,5.209-2.169    c2.012,0,3.747,0.707,5.188,2.169C208.699,16.647,209.429,18.371,209.429,20.395"></path></svg>