<svg xmlns="http://www.w3.org/2000/svg" xmlns:xlink="http://www.w3.org/1999/xlink" viewBox="0 0 94 122"><g id="container"><path fill="#fff" d="M8.1 89.9L47.6 110l38-20.1V11.3H8.1z"></path><path fill="#f2f3f2" d="M86.4 11.6L7.3 91.3l41 20.3 38.1-19.5z"></path><path d="M5.5 37.5v54.1l1.4.7 39.5 20.1 1.2.6 1.2-.6 38.1-20.1 1.4-.7V8.7H5.5v28.8zm2.6 52.6V11.3h77.6v78.8l-38.1 20.1L8.1 90.1z" fill="#dcdedc"></path><path id="logo" d="M46.9 12.6c.4 0 .8 0 1.2.1L46.9 15c-1.8-.1-3.4 1.3-3.5 3.1-.1 1.8 1.3 3.4 3.1 3.5h.4c.8 0 1.6-.3 2.2-.8l1.3 2.2c-1 .7-2.2 1.1-3.5 1.1-3.2.1-5.9-2.3-6-5.5-.1-3.2 2.3-5.9 5.5-6h.5zm4.1 4.9l1.5 2.5-1.5 2.4-1.4-2.4h-2.9l1.5-2.5H51zm-2.4-.9c0-.4.1-.8.3-1.1.2-.3.6-.6.9-.8l.2-.1c.4-.2.5-.3.5-.5s-.3-.4-.5-.4c-.4 0-.7.2-.9.6l-.5-.5c.1-.2.3-.4.5-.6.3-.2.6-.2.9-.2.3 0 .7.1.9.3.2.2.4.5.4.8 0 .5-.3.9-.9 1.1l-.3.2c-.3.2-.5.3-.6.6h1.8v.7l-2.7-.1zm-1.7 12.5l9.5-5.4v-15H37.3v14.9l9.6 5.5z" fill="#ff492c"></path><path id="banner" d="M90.2 64.5H3.6l-3.2 7 3.2 7h86.6l3.1-7z" fill="#ff492c"></path><path fill="#252530" transform="translate(17.74, 60)" d="M1.31 0L1.31 0Q1.22 0 1.16-0.06L1.16-0.06L1.16-0.06Q1.10-0.13 1.10-0.22L1.10-0.22L1.10-12.38L1.10-12.38Q1.10-12.47 1.16-12.54L1.16-12.54L1.16-12.54Q1.22-12.60 1.31-12.60L1.31-12.60L3.42-12.60L3.42-12.60Q3.51-12.60 3.57-12.54L3.57-12.54L3.57-12.54Q3.64-12.47 3.64-12.38L3.64-12.38L3.64-2.27L3.64-2.27Q3.64-2.18 3.73-2.18L3.73-2.18L9.61-2.18L9.61-2.18Q9.70-2.18 9.77-2.12L9.77-2.12L9.77-2.12Q9.83-2.05 9.83-1.96L9.83-1.96L9.83-0.22L9.83-0.22Q9.83-0.13 9.77-0.06L9.77-0.06L9.77-0.06Q9.70 0 9.61 0L9.61 0L1.31 0ZM19.42-5.58L19.42-5.58Q19.53-4.90 19.49-4.05L19.49-4.05L19.49-4.05Q19.48-3.83 19.26-3.83L19.26-3.83L13.70-3.83L13.70-3.83Q13.59-3.83 13.63-3.74L13.63-3.74L13.63-3.74Q13.68-3.38 13.82-3.02L13.82-3.02L13.82-3.02Q14.29-2.02 15.73-2.02L15.73-2.02L15.73-2.02Q16.88-2.03 17.55-2.95L17.55-2.95L17.55-2.95Q17.62-3.06 17.71-3.06L17.71-3.06L17.71-3.06Q17.77-3.06 17.84-2.99L17.84-2.99L19.13-1.71L19.13-1.71Q19.22-1.62 19.22-1.55L19.22-1.55L19.22-1.55Q19.22-1.51 19.15-1.40L19.15-1.40L19.15-1.40Q18.56-0.67 17.62-0.26L17.62-0.26L17.62-0.26Q16.69 0.14 15.57 0.14L15.57 0.14L15.57 0.14Q14.02 0.14 12.95-0.56L12.95-0.56L12.95-0.56Q11.88-1.26 11.41-2.52L11.41-2.52L11.41-2.52Q11.03-3.42 11.03-4.88L11.03-4.88L11.03-4.88Q11.03-5.87 11.30-6.62L11.30-6.62L11.30-6.62Q11.72-7.90 12.75-8.66L12.75-8.66L12.75-8.66Q13.79-9.41 15.21-9.41L15.21-9.41L15.21-9.41Q17.01-9.41 18.10-8.37L18.10-8.37L18.10-8.37Q19.19-7.33 19.42-5.58L19.42-5.58ZM15.23-7.22L15.23-7.22Q14.09-7.22 13.73-6.16L13.73-6.16L13.73-6.16Q13.66-5.92 13.61-5.58L13.61-5.58L13.61-5.58Q13.61-5.49 13.70-5.49L13.70-5.49L16.81-5.49L16.81-5.49Q16.92-5.49 16.88-5.58L16.88-5.58L16.88-5.58Q16.79-6.10 16.79-6.08L16.79-6.08L16.79-6.08Q16.63-6.62 16.23-6.92L16.23-6.92L16.23-6.92Q15.82-7.22 15.23-7.22L15.23-7.22ZM24.75-9.40L24.75-9.40Q25.92-9.40 26.84-8.99L26.84-8.99L26.84-8.99Q27.76-8.59 28.27-7.88L28.27-7.88L28.27-7.88Q28.78-7.18 28.78-6.32L28.78-6.32L28.78-0.22L28.78-0.22Q28.78-0.13 28.72-0.06L28.72-0.06L28.72-0.06Q28.66 0 28.57 0L28.57 0L26.46 0L26.46 0Q26.37 0 26.31-0.06L26.31-0.06L26.31-0.06Q26.24-0.13 26.24-0.22L26.24-0.22L26.24-0.81L26.24-0.81Q26.24-0.86 26.21-0.88L26.21-0.88L26.21-0.88Q26.17-0.90 26.14-0.85L26.14-0.85L26.14-0.85Q25.38 0.14 23.71 0.14L23.71 0.14L23.71 0.14Q22.30 0.14 21.44-0.54L21.44-0.54L21.44-0.54Q20.57-1.22 20.57-2.56L20.57-2.56L20.57-2.56Q20.57-3.94 21.55-4.71L21.55-4.71L21.55-4.71Q22.52-5.47 24.32-5.47L24.32-5.47L26.15-5.47L26.15-5.47Q26.24-5.47 26.24-5.56L26.24-5.56L26.24-5.96L26.24-5.96Q26.24-6.55 25.88-6.89L25.88-6.89L25.88-6.89Q25.52-7.22 24.80-7.22L24.80-7.22L24.80-7.22Q24.25-7.22 23.88-7.02L23.88-7.02L23.88-7.02Q23.51-6.82 23.40-6.46L23.40-6.46L23.40-6.46Q23.35-6.26 23.17-6.28L23.17-6.28L20.99-6.57L20.99-6.57Q20.77-6.61 20.79-6.73L20.79-6.73L20.79-6.73Q20.86-7.49 21.39-8.10L21.39-8.10L21.39-8.10Q21.92-8.71 22.80-9.05L22.80-9.05L22.80-9.05Q23.67-9.40 24.75-9.40L24.75-9.40ZM24.39-1.75L24.39-1.75Q25.16-1.75 25.70-2.16L25.70-2.16L25.70-2.16Q26.24-2.57 26.24-3.22L26.24-3.22L26.24-3.87L26.24-3.87Q26.24-3.96 26.15-3.96L26.15-3.96L24.86-3.96L24.86-3.96Q24.05-3.96 23.59-3.65L23.59-3.65L23.59-3.65Q23.13-3.35 23.13-2.79L23.13-2.79L23.13-2.79Q23.13-2.30 23.47-2.03L23.47-2.03L23.47-2.03Q23.81-1.75 24.39-1.75L24.39-1.75ZM36.31-12.38L36.31-12.38Q36.31-12.47 36.37-12.54L36.37-12.54L36.37-12.54Q36.43-12.60 36.52-12.60L36.52-12.60L38.63-12.60L38.63-12.60Q38.72-12.60 38.78-12.54L38.78-12.54L38.78-12.54Q38.84-12.47 38.84-12.38L38.84-12.38L38.84-0.22L38.84-0.22Q38.84-0.13 38.78-0.06L38.78-0.06L38.78-0.06Q38.72 0 38.63 0L38.63 0L36.52 0L36.52 0Q36.43 0 36.37-0.06L36.37-0.06L36.37-0.06Q36.31-0.13 36.31-0.22L36.31-0.22L36.31-0.81L36.31-0.81Q36.31-0.86 36.27-0.87L36.27-0.87L36.27-0.87Q36.23-0.88 36.20-0.85L36.20-0.85L36.20-0.85Q35.44 0.14 34.13 0.14L34.13 0.14L34.13 0.14Q32.87 0.14 31.96-0.56L31.96-0.56L31.96-0.56Q31.05-1.26 30.65-2.48L30.65-2.48L30.65-2.48Q30.35-3.42 30.35-4.66L30.35-4.66L30.35-4.66Q30.35-5.94 30.67-6.89L30.67-6.89L30.67-6.89Q31.09-8.05 31.98-8.72L31.98-8.72L31.98-8.72Q32.87-9.40 34.18-9.40L34.18-9.40L34.18-9.40Q35.48-9.40 36.20-8.50L36.20-8.50L36.20-8.50Q36.23-8.44 36.27-8.46L36.27-8.46L36.27-8.46Q36.31-8.48 36.31-8.53L36.31-8.53L36.31-12.38ZM35.93-2.81L35.93-2.81Q36.29-3.47 36.29-4.63L36.29-4.63L36.29-4.63Q36.29-5.83 35.89-6.52L35.89-6.52L35.89-6.52Q35.48-7.22 34.69-7.22L34.69-7.22L34.69-7.22Q33.84-7.22 33.41-6.52L33.41-6.52L33.41-6.52Q32.96-5.81 32.96-4.61L32.96-4.61L32.96-4.61Q32.96-3.53 33.34-2.81L33.34-2.81L33.34-2.81Q33.79-2.03 34.67-2.03L34.67-2.03L34.67-2.03Q35.48-2.03 35.93-2.81L35.93-2.81ZM48.94-5.58L48.94-5.58Q49.05-4.90 49.01-4.05L49.01-4.05L49.01-4.05Q49.00-3.83 48.78-3.83L48.78-3.83L43.22-3.83L43.22-3.83Q43.11-3.83 43.15-3.74L43.15-3.74L43.15-3.74Q43.20-3.38 43.34-3.02L43.34-3.02L43.34-3.02Q43.81-2.02 45.25-2.02L45.25-2.02L45.25-2.02Q46.40-2.03 47.07-2.95L47.07-2.95L47.07-2.95Q47.14-3.06 47.23-3.06L47.23-3.06L47.23-3.06Q47.29-3.06 47.36-2.99L47.36-2.99L48.65-1.71L48.65-1.71Q48.74-1.62 48.74-1.55L48.74-1.55L48.74-1.55Q48.74-1.51 48.67-1.40L48.67-1.40L48.67-1.40Q48.08-0.67 47.14-0.26L47.14-0.26L47.14-0.26Q46.21 0.14 45.09 0.14L45.09 0.14L45.09 0.14Q43.54 0.14 42.47-0.56L42.47-0.56L42.47-0.56Q41.40-1.26 40.93-2.52L40.93-2.52L40.93-2.52Q40.55-3.42 40.55-4.88L40.55-4.88L40.55-4.88Q40.55-5.87 40.82-6.62L40.82-6.62L40.82-6.62Q41.24-7.90 42.27-8.66L42.27-8.66L42.27-8.66Q43.31-9.41 44.73-9.41L44.73-9.41L44.73-9.41Q46.53-9.41 47.62-8.37L47.62-8.37L47.62-8.37Q48.71-7.33 48.94-5.58L48.94-5.58ZM44.75-7.22L44.75-7.22Q43.61-7.22 43.25-6.16L43.25-6.16L43.25-6.16Q43.18-5.92 43.13-5.58L43.13-5.58L43.13-5.58Q43.13-5.49 43.22-5.49L43.22-5.49L46.33-5.49L46.33-5.49Q46.44-5.49 46.40-5.58L46.40-5.58L46.40-5.58Q46.31-6.10 46.31-6.08L46.31-6.08L46.31-6.08Q46.15-6.62 45.75-6.92L45.75-6.92L45.75-6.92Q45.34-7.22 44.75-7.22L44.75-7.22ZM55.19-9.38L55.19-9.38Q55.84-9.38 56.21-9.13L56.21-9.13L56.21-9.13Q56.36-9.05 56.32-8.86L56.32-8.86L55.94-6.80L55.94-6.80Q55.93-6.59 55.69-6.68L55.69-6.68L55.69-6.68Q55.42-6.77 55.06-6.77L55.06-6.77L55.06-6.77Q54.92-6.77 54.67-6.73L54.67-6.73L54.67-6.73Q54.02-6.68 53.57-6.26L53.57-6.26L53.57-6.26Q53.12-5.83 53.12-5.13L53.12-5.13L53.12-0.22L53.12-0.22Q53.12-0.13 53.06-0.06L53.06-0.06L53.06-0.06Q52.99 0 52.90 0L52.90 0L50.80 0L50.80 0Q50.71 0 50.64-0.06L50.64-0.06L50.64-0.06Q50.58-0.13 50.58-0.22L50.58-0.22L50.58-9.04L50.58-9.04Q50.58-9.13 50.64-9.19L50.64-9.19L50.64-9.19Q50.71-9.25 50.80-9.25L50.80-9.25L52.90-9.25L52.90-9.25Q52.99-9.25 53.06-9.19L53.06-9.19L53.06-9.19Q53.12-9.13 53.12-9.04L53.12-9.04L53.12-8.35L53.12-8.35Q53.12-8.30 53.15-8.28L53.15-8.28L53.15-8.28Q53.19-8.26 53.21-8.30L53.21-8.30L53.21-8.30Q53.95-9.38 55.19-9.38L55.19-9.38Z"></path><path fill="#fff" transform="translate(13.75, 75.4)" d="M2.99 0.08L2.99 0.08Q2.21 0.08 1.63-0.17L1.63-0.17L1.63-0.17Q1.05-0.42 0.73-0.87L0.73-0.87L0.73-0.87Q0.42-1.32 0.42-1.93L0.42-1.93L0.42-2.18L0.42-2.18Q0.42-2.23 0.46-2.27L0.46-2.27L0.46-2.27Q0.49-2.30 0.54-2.30L0.54-2.30L1.43-2.30L1.43-2.30Q1.48-2.30 1.52-2.27L1.52-2.27L1.52-2.27Q1.55-2.23 1.55-2.18L1.55-2.18L1.55-1.99L1.55-1.99Q1.55-1.53 1.96-1.23L1.96-1.23L1.96-1.23Q2.37-0.92 3.08-0.92L3.08-0.92L3.08-0.92Q3.69-0.92 4-1.18L4-1.18L4-1.18Q4.31-1.44 4.31-1.85L4.31-1.85L4.31-1.85Q4.31-2.13 4.14-2.33L4.14-2.33L4.14-2.33Q3.97-2.52 3.66-2.68L3.66-2.68L3.66-2.68Q3.34-2.84 2.71-3.08L2.71-3.08L2.71-3.08Q2-3.34 1.56-3.57L1.56-3.57L1.56-3.57Q1.12-3.80 0.83-4.20L0.83-4.20L0.83-4.20Q0.53-4.59 0.53-5.18L0.53-5.18L0.53-5.18Q0.53-6.06 1.17-6.57L1.17-6.57L1.17-6.57Q1.81-7.08 2.88-7.08L2.88-7.08L2.88-7.08Q3.63-7.08 4.21-6.82L4.21-6.82L4.21-6.82Q4.78-6.56 5.10-6.09L5.10-6.09L5.10-6.09Q5.42-5.63 5.42-5.02L5.42-5.02L5.42-4.85L5.42-4.85Q5.42-4.80 5.38-4.76L5.38-4.76L5.38-4.76Q5.35-4.73 5.30-4.73L5.30-4.73L4.40-4.73L4.40-4.73Q4.35-4.73 4.32-4.76L4.32-4.76L4.32-4.76Q4.28-4.80 4.28-4.85L4.28-4.85L4.28-4.96L4.28-4.96Q4.28-5.43 3.90-5.75L3.90-5.75L3.90-5.75Q3.51-6.08 2.83-6.08L2.83-6.08L2.83-6.08Q2.28-6.08 1.98-5.85L1.98-5.85L1.98-5.85Q1.67-5.62 1.67-5.20L1.67-5.20L1.67-5.20Q1.67-4.90 1.83-4.71L1.83-4.71L1.83-4.71Q1.99-4.52 2.31-4.37L2.31-4.37L2.31-4.37Q2.63-4.21 3.30-3.97L3.30-3.97L3.30-3.97Q4.01-3.70 4.44-3.48L4.44-3.48L4.44-3.48Q4.86-3.26 5.17-2.87L5.17-2.87L5.17-2.87Q5.47-2.47 5.47-1.88L5.47-1.88L5.47-1.88Q5.47-0.98 4.80-0.45L4.80-0.45L4.80-0.45Q4.14 0.08 2.99 0.08L2.99 0.08ZM12-5.19L12-5.19Q12.77-5.19 13.21-4.73L13.21-4.73L13.21-4.73Q13.64-4.26 13.64-3.43L13.64-3.43L13.64-0.12L13.64-0.12Q13.64-0.07 13.61-0.04L13.61-0.04L13.61-0.04Q13.57 0 13.52 0L13.52 0L12.61 0L12.61 0Q12.56 0 12.53-0.04L12.53-0.04L12.53-0.04Q12.49-0.07 12.49-0.12L12.49-0.12L12.49-3.19L12.49-3.19Q12.49-3.65 12.25-3.92L12.25-3.92L12.25-3.92Q12-4.19 11.59-4.19L11.59-4.19L11.59-4.19Q11.18-4.19 10.92-3.92L10.92-3.92L10.92-3.92Q10.66-3.65 10.66-3.20L10.66-3.20L10.66-0.12L10.66-0.12Q10.66-0.07 10.63-0.04L10.63-0.04L10.63-0.04Q10.59 0 10.54 0L10.54 0L9.63 0L9.63 0Q9.58 0 9.54-0.04L9.54-0.04L9.54-0.04Q9.51-0.07 9.51-0.12L9.51-0.12L9.51-3.19L9.51-3.19Q9.51-3.65 9.26-3.92L9.26-3.92L9.26-3.92Q9.01-4.19 8.60-4.19L8.60-4.19L8.60-4.19Q8.22-4.19 7.97-3.97L7.97-3.97L7.97-3.97Q7.73-3.75 7.69-3.37L7.69-3.37L7.69-0.12L7.69-0.12Q7.69-0.07 7.66-0.04L7.66-0.04L7.66-0.04Q7.62 0 7.57 0L7.57 0L6.65 0L6.65 0Q6.60 0 6.57-0.04L6.57-0.04L6.57-0.04Q6.53-0.07 6.53-0.12L6.53-0.12L6.53-4.99L6.53-4.99Q6.53-5.04 6.57-5.08L6.57-5.08L6.57-5.08Q6.60-5.11 6.65-5.11L6.65-5.11L7.57-5.11L7.57-5.11Q7.62-5.11 7.66-5.08L7.66-5.08L7.66-5.08Q7.69-5.04 7.69-4.99L7.69-4.99L7.69-4.66L7.69-4.66Q7.69-4.63 7.71-4.62L7.71-4.62L7.71-4.62Q7.73-4.61 7.75-4.64L7.75-4.64L7.75-4.64Q7.97-4.92 8.29-5.05L8.29-5.05L8.29-5.05Q8.62-5.19 9.02-5.19L9.02-5.19L9.02-5.19Q9.51-5.19 9.88-4.99L9.88-4.99L9.88-4.99Q10.25-4.79 10.45-4.41L10.45-4.41L10.45-4.41Q10.48-4.37 10.52-4.41L10.52-4.41L10.52-4.41Q10.74-4.81 11.13-5L11.13-5L11.13-5Q11.52-5.19 12-5.19L12-5.19ZM16.77-5.19L16.77-5.19Q17.40-5.19 17.88-4.97L17.88-4.97L17.88-4.97Q18.36-4.75 18.62-4.37L18.62-4.37L18.62-4.37Q18.88-3.98 18.88-3.49L18.88-3.49L18.88-0.12L18.88-0.12Q18.88-0.07 18.85-0.04L18.85-0.04L18.85-0.04Q18.81 0 18.76 0L18.76 0L17.84 0L17.84 0Q17.79 0 17.76-0.04L17.76-0.04L17.76-0.04Q17.72-0.07 17.72-0.12L17.72-0.12L17.72-0.44L17.72-0.44Q17.72-0.47 17.70-0.48L17.70-0.48L17.70-0.48Q17.68-0.48 17.66-0.46L17.66-0.46L17.66-0.46Q17.17 0.08 16.24 0.08L16.24 0.08L16.24 0.08Q15.49 0.08 15.01-0.30L15.01-0.30L15.01-0.30Q14.52-0.68 14.52-1.43L14.52-1.43L14.52-1.43Q14.52-2.21 15.07-2.65L15.07-2.65L15.07-2.65Q15.61-3.08 16.60-3.08L16.60-3.08L17.67-3.08L17.67-3.08Q17.72-3.08 17.72-3.13L17.72-3.13L17.72-3.37L17.72-3.37Q17.72-3.76 17.49-3.98L17.49-3.98L17.49-3.98Q17.26-4.19 16.80-4.19L16.80-4.19L16.80-4.19Q16.42-4.19 16.19-4.05L16.19-4.05L16.19-4.05Q15.95-3.92 15.89-3.68L15.89-3.68L15.89-3.68Q15.86-3.56 15.75-3.58L15.75-3.58L14.78-3.70L14.78-3.70Q14.73-3.71 14.70-3.73L14.70-3.73L14.70-3.73Q14.66-3.76 14.67-3.80L14.67-3.80L14.67-3.80Q14.75-4.41 15.33-4.80L15.33-4.80L15.33-4.80Q15.90-5.19 16.77-5.19L16.77-5.19ZM16.53-0.84L16.53-0.84Q17.02-0.84 17.37-1.10L17.37-1.10L17.37-1.10Q17.72-1.36 17.72-1.76L17.72-1.76L17.72-2.23L17.72-2.23Q17.72-2.28 17.67-2.28L17.67-2.28L16.83-2.28L16.83-2.28Q16.30-2.28 16.00-2.08L16.00-2.08L16.00-2.08Q15.69-1.88 15.69-1.51L15.69-1.51L15.69-1.51Q15.69-1.19 15.93-1.02L15.93-1.02L15.93-1.02Q16.16-0.84 16.53-0.84L16.53-0.84ZM20.16 0L20.16 0Q20.11 0 20.08-0.04L20.08-0.04L20.08-0.04Q20.04-0.07 20.04-0.12L20.04-0.12L20.04-6.88L20.04-6.88Q20.04-6.93 20.08-6.96L20.08-6.96L20.08-6.96Q20.11-7 20.16-7L20.16-7L21.08-7L21.08-7Q21.13-7 21.17-6.96L21.17-6.96L21.17-6.96Q21.20-6.93 21.20-6.88L21.20-6.88L21.20-0.12L21.20-0.12Q21.20-0.07 21.17-0.04L21.17-0.04L21.17-0.04Q21.13 0 21.08 0L21.08 0L20.16 0ZM22.55 0L22.55 0Q22.50 0 22.47-0.04L22.47-0.04L22.47-0.04Q22.43-0.07 22.43-0.12L22.43-0.12L22.43-6.88L22.43-6.88Q22.43-6.93 22.47-6.96L22.47-6.96L22.47-6.96Q22.50-7 22.55-7L22.55-7L23.47-7L23.47-7Q23.52-7 23.56-6.96L23.56-6.96L23.56-6.96Q23.59-6.93 23.59-6.88L23.59-6.88L23.59-0.12L23.59-0.12Q23.59-0.07 23.56-0.04L23.56-0.04L23.56-0.04Q23.52 0 23.47 0L23.47 0L22.55 0ZM30.84-3.65L30.84-3.65Q30.78-3.62 30.84-3.59L30.84-3.59L30.84-3.59Q31.86-3.11 31.86-1.94L31.86-1.94L31.86-1.94Q31.86-0.99 31.23-0.49L31.23-0.49L31.23-0.49Q30.59 0 29.57 0L29.57 0L27.05 0L27.05 0Q27.00 0 26.97-0.04L26.97-0.04L26.97-0.04Q26.93-0.07 26.93-0.12L26.93-0.12L26.93-6.88L26.93-6.88Q26.93-6.93 26.97-6.96L26.97-6.96L26.97-6.96Q27.00-7 27.05-7L27.05-7L29.49-7L29.49-7Q30.58-7 31.17-6.53L31.17-6.53L31.17-6.53Q31.76-6.06 31.76-5.11L31.76-5.11L31.76-5.11Q31.76-4.06 30.84-3.65L30.84-3.65ZM28.14-6L28.14-6Q28.09-6 28.09-5.95L28.09-5.95L28.09-4.10L28.09-4.10Q28.09-4.05 28.14-4.05L28.14-4.05L29.49-4.05L29.49-4.05Q30.02-4.05 30.33-4.30L30.33-4.30L30.33-4.30Q30.63-4.56 30.63-5.01L30.63-5.01L30.63-5.01Q30.63-5.47 30.33-5.74L30.33-5.74L30.33-5.74Q30.02-6 29.49-6L29.49-6L28.14-6ZM29.57-1.01L29.57-1.01Q30.09-1.01 30.40-1.29L30.40-1.29L30.40-1.29Q30.70-1.57 30.70-2.05L30.70-2.05L30.70-2.05Q30.70-2.54 30.39-2.81L30.39-2.81L30.39-2.81Q30.08-3.09 29.55-3.09L29.55-3.09L28.14-3.09L28.14-3.09Q28.09-3.09 28.09-3.04L28.09-3.04L28.09-1.06L28.09-1.06Q28.09-1.01 28.14-1.01L28.14-1.01L29.57-1.01ZM36.06-4.99L36.06-4.99Q36.06-5.04 36.09-5.08L36.09-5.08L36.09-5.08Q36.13-5.11 36.18-5.11L36.18-5.11L37.09-5.11L37.09-5.11Q37.14-5.11 37.18-5.08L37.18-5.08L37.18-5.08Q37.21-5.04 37.21-4.99L37.21-4.99L37.21-0.12L37.21-0.12Q37.21-0.07 37.18-0.04L37.18-0.04L37.18-0.04Q37.14 0 37.09 0L37.09 0L36.18 0L36.18 0Q36.13 0 36.09-0.04L36.09-0.04L36.09-0.04Q36.06-0.07 36.06-0.12L36.06-0.12L36.06-0.44L36.06-0.44Q36.06-0.47 36.04-0.48L36.04-0.48L36.04-0.48Q36.02-0.49 36-0.46L36-0.46L36-0.46Q35.59 0.07 34.77 0.07L34.77 0.07L34.77 0.07Q34.01 0.07 33.50-0.37L33.50-0.37L33.50-0.37Q32.98-0.81 32.98-1.62L32.98-1.62L32.98-4.99L32.98-4.99Q32.98-5.04 33.02-5.08L33.02-5.08L33.02-5.08Q33.05-5.11 33.10-5.11L33.10-5.11L34.02-5.11L34.02-5.11Q34.07-5.11 34.11-5.08L34.11-5.08L34.11-5.08Q34.14-5.04 34.14-4.99L34.14-4.99L34.14-1.95L34.14-1.95Q34.14-1.48 34.39-1.20L34.39-1.20L34.39-1.20Q34.63-0.92 35.07-0.92L35.07-0.92L35.07-0.92Q35.52-0.92 35.79-1.20L35.79-1.20L35.79-1.20Q36.06-1.48 36.06-1.95L36.06-1.95L36.06-4.99ZM40.35 0.06L40.35 0.06Q39.72 0.06 39.24-0.13L39.24-0.13L39.24-0.13Q38.77-0.31 38.51-0.64L38.51-0.64L38.51-0.64Q38.25-0.96 38.25-1.36L38.25-1.36L38.25-1.45L38.25-1.45Q38.25-1.50 38.28-1.54L38.28-1.54L38.28-1.54Q38.32-1.57 38.37-1.57L38.37-1.57L39.25-1.57L39.25-1.57Q39.30-1.57 39.34-1.54L39.34-1.54L39.34-1.54Q39.37-1.50 39.37-1.45L39.37-1.45L39.37-1.43L39.37-1.43Q39.37-1.18 39.64-0.99L39.64-0.99L39.64-0.99Q39.92-0.81 40.34-0.81L40.34-0.81L40.34-0.81Q40.74-0.81 40.99-0.97L40.99-0.97L40.99-0.97Q41.24-1.14 41.24-1.39L41.24-1.39L41.24-1.39Q41.24-1.62 41.03-1.74L41.03-1.74L41.03-1.74Q40.83-1.85 40.37-1.98L40.37-1.98L39.99-2.10L39.99-2.10Q39.48-2.25 39.13-2.42L39.13-2.42L39.13-2.42Q38.78-2.59 38.54-2.89L38.54-2.89L38.54-2.89Q38.30-3.18 38.30-3.64L38.30-3.64L38.30-3.64Q38.30-4.34 38.85-4.75L38.85-4.75L38.85-4.75Q39.40-5.17 40.30-5.17L40.30-5.17L40.30-5.17Q40.91-5.17 41.37-4.98L41.37-4.98L41.37-4.98Q41.83-4.78 42.08-4.44L42.08-4.44L42.08-4.44Q42.33-4.09 42.33-3.65L42.33-3.65L42.33-3.65Q42.33-3.60 42.30-3.56L42.30-3.56L42.30-3.56Q42.26-3.53 42.21-3.53L42.21-3.53L41.36-3.53L41.36-3.53Q41.31-3.53 41.27-3.56L41.27-3.56L41.27-3.56Q41.24-3.60 41.24-3.65L41.24-3.65L41.24-3.65Q41.24-3.91 40.98-4.08L40.98-4.08L40.98-4.08Q40.73-4.26 40.29-4.26L40.29-4.26L40.29-4.26Q39.90-4.26 39.66-4.12L39.66-4.12L39.66-4.12Q39.41-3.97 39.41-3.71L39.41-3.71L39.41-3.71Q39.41-3.47 39.64-3.35L39.64-3.35L39.64-3.35Q39.88-3.22 40.43-3.07L40.43-3.07L40.65-3.01L40.65-3.01Q41.18-2.85 41.54-2.69L41.54-2.69L41.54-2.69Q41.90-2.52 42.15-2.23L42.15-2.23L42.15-2.23Q42.40-1.93 42.40-1.46L42.40-1.46L42.40-1.46Q42.40-0.75 41.84-0.35L41.84-0.35L41.84-0.35Q41.28 0.06 40.35 0.06L40.35 0.06ZM44.04-5.81L44.04-5.81Q43.73-5.81 43.53-6.01L43.53-6.01L43.53-6.01Q43.33-6.21 43.33-6.52L43.33-6.52L43.33-6.52Q43.33-6.83 43.53-7.03L43.53-7.03L43.53-7.03Q43.73-7.23 44.04-7.23L44.04-7.23L44.04-7.23Q44.35-7.23 44.55-7.03L44.55-7.03L44.55-7.03Q44.75-6.83 44.75-6.52L44.75-6.52L44.75-6.52Q44.75-6.21 44.55-6.01L44.55-6.01L44.55-6.01Q44.35-5.81 44.04-5.81L44.04-5.81ZM43.56 0L43.56 0Q43.51 0 43.48-0.04L43.48-0.04L43.48-0.04Q43.44-0.07 43.44-0.12L43.44-0.12L43.44-5L43.44-5Q43.44-5.05 43.48-5.08L43.48-5.08L43.48-5.08Q43.51-5.12 43.56-5.12L43.56-5.12L44.48-5.12L44.48-5.12Q44.53-5.12 44.56-5.08L44.56-5.08L44.56-5.08Q44.60-5.05 44.60-5L44.60-5L44.60-0.12L44.60-0.12Q44.60-0.07 44.56-0.04L44.56-0.04L44.56-0.04Q44.53 0 44.48 0L44.48 0L43.56 0ZM48.38-5.19L48.38-5.19Q49.19-5.19 49.67-4.71L49.67-4.71L49.67-4.71Q50.16-4.23 50.16-3.40L50.16-3.40L50.16-0.12L50.16-0.12Q50.16-0.07 50.12-0.04L50.12-0.04L50.12-0.04Q50.09 0 50.04 0L50.04 0L49.12 0L49.12 0Q49.07 0 49.03-0.04L49.03-0.04L49.03-0.04Q49.00-0.07 49.00-0.12L49.00-0.12L49.00-3.16L49.00-3.16Q49.00-3.62 48.74-3.91L48.74-3.91L48.74-3.91Q48.48-4.19 48.05-4.19L48.05-4.19L48.05-4.19Q47.62-4.19 47.35-3.91L47.35-3.91L47.35-3.91Q47.09-3.63 47.09-3.17L47.09-3.17L47.09-0.12L47.09-0.12Q47.09-0.07 47.05-0.04L47.05-0.04L47.05-0.04Q47.02 0 46.97 0L46.97 0L46.05 0L46.05 0Q46.00 0 45.96-0.04L45.96-0.04L45.96-0.04Q45.93-0.07 45.93-0.12L45.93-0.12L45.93-4.99L45.93-4.99Q45.93-5.04 45.96-5.08L45.96-5.08L45.96-5.08Q46.00-5.11 46.05-5.11L46.05-5.11L46.97-5.11L46.97-5.11Q47.02-5.11 47.05-5.08L47.05-5.08L47.05-5.08Q47.09-5.04 47.09-4.99L47.09-4.99L47.09-4.67L47.09-4.67Q47.09-4.64 47.11-4.63L47.11-4.63L47.11-4.63Q47.13-4.62 47.14-4.65L47.14-4.65L47.14-4.65Q47.55-5.19 48.38-5.19L48.38-5.19ZM55.68-3.13L55.68-3.13Q55.72-2.88 55.72-2.57L55.72-2.57L55.71-2.26L55.71-2.26Q55.71-2.14 55.59-2.14L55.59-2.14L52.46-2.14L52.46-2.14Q52.41-2.14 52.41-2.09L52.41-2.09L52.41-2.09Q52.44-1.76 52.50-1.64L52.50-1.64L52.50-1.64Q52.74-0.92 53.67-0.91L53.67-0.91L53.67-0.91Q54.35-0.91 54.75-1.47L54.75-1.47L54.75-1.47Q54.79-1.53 54.85-1.53L54.85-1.53L54.85-1.53Q54.89-1.53 54.92-1.50L54.92-1.50L55.54-0.99L55.54-0.99Q55.63-0.92 55.57-0.83L55.57-0.83L55.57-0.83Q55.26-0.39 54.74-0.15L54.74-0.15L54.74-0.15Q54.23 0.09 53.60 0.09L53.60 0.09L53.60 0.09Q52.82 0.09 52.27-0.26L52.27-0.26L52.27-0.26Q51.73-0.61 51.48-1.24L51.48-1.24L51.48-1.24Q51.25-1.78 51.25-2.74L51.25-2.74L51.25-2.74Q51.25-3.32 51.37-3.68L51.37-3.68L51.37-3.68Q51.57-4.38 52.12-4.79L52.12-4.79L52.12-4.79Q52.68-5.19 53.46-5.19L53.46-5.19L53.46-5.19Q55.43-5.19 55.68-3.13L55.68-3.13ZM53.46-4.19L53.46-4.19Q53.09-4.19 52.84-4.00L52.84-4.00L52.84-4.00Q52.60-3.82 52.50-3.49L52.50-3.49L52.50-3.49Q52.44-3.32 52.42-3.05L52.42-3.05L52.42-3.05Q52.40-3 52.46-3L52.46-3L54.49-3L54.49-3Q54.54-3 54.54-3.05L54.54-3.05L54.54-3.05Q54.52-3.30 54.48-3.43L54.48-3.43L54.48-3.43Q54.39-3.79 54.12-3.99L54.12-3.99L54.12-3.99Q53.86-4.19 53.46-4.19L53.46-4.19ZM58.68 0.06L58.68 0.06Q58.05 0.06 57.57-0.13L57.57-0.13L57.57-0.13Q57.10-0.31 56.84-0.64L56.84-0.64L56.84-0.64Q56.58-0.96 56.58-1.36L56.58-1.36L56.58-1.45L56.58-1.45Q56.58-1.50 56.61-1.54L56.61-1.54L56.61-1.54Q56.65-1.57 56.70-1.57L56.70-1.57L57.58-1.57L57.58-1.57Q57.63-1.57 57.66-1.54L57.66-1.54L57.66-1.54Q57.70-1.50 57.70-1.45L57.70-1.45L57.70-1.43L57.70-1.43Q57.70-1.18 57.97-0.99L57.97-0.99L57.97-0.99Q58.25-0.81 58.67-0.81L58.67-0.81L58.67-0.81Q59.07-0.81 59.32-0.97L59.32-0.97L59.32-0.97Q59.57-1.14 59.57-1.39L59.57-1.39L59.57-1.39Q59.57-1.62 59.36-1.74L59.36-1.74L59.36-1.74Q59.16-1.85 58.70-1.98L58.70-1.98L58.32-2.10L58.32-2.10Q57.81-2.25 57.46-2.42L57.46-2.42L57.46-2.42Q57.11-2.59 56.87-2.89L56.87-2.89L56.87-2.89Q56.63-3.18 56.63-3.64L56.63-3.64L56.63-3.64Q56.63-4.34 57.18-4.75L57.18-4.75L57.18-4.75Q57.73-5.17 58.63-5.17L58.63-5.17L58.63-5.17Q59.24-5.17 59.70-4.98L59.70-4.98L59.70-4.98Q60.16-4.78 60.41-4.44L60.41-4.44L60.41-4.44Q60.66-4.09 60.66-3.65L60.66-3.65L60.66-3.65Q60.66-3.60 60.63-3.56L60.63-3.56L60.63-3.56Q60.59-3.53 60.54-3.53L60.54-3.53L59.69-3.53L59.69-3.53Q59.64-3.53 59.60-3.56L59.60-3.56L59.60-3.56Q59.57-3.60 59.57-3.65L59.57-3.65L59.57-3.65Q59.57-3.91 59.31-4.08L59.31-4.08L59.31-4.08Q59.06-4.26 58.62-4.26L58.62-4.26L58.62-4.26Q58.23-4.26 57.98-4.12L57.98-4.12L57.98-4.12Q57.74-3.97 57.74-3.71L57.74-3.71L57.74-3.71Q57.74-3.47 57.97-3.35L57.97-3.35L57.97-3.35Q58.21-3.22 58.76-3.07L58.76-3.07L58.98-3.01L58.98-3.01Q59.51-2.85 59.87-2.69L59.87-2.69L59.87-2.69Q60.23-2.52 60.48-2.23L60.48-2.23L60.48-2.23Q60.73-1.93 60.73-1.46L60.73-1.46L60.73-1.46Q60.73-0.75 60.17-0.35L60.17-0.35L60.17-0.35Q59.61 0.06 58.68 0.06L58.68 0.06ZM63.61 0.06L63.61 0.06Q62.98 0.06 62.50-0.13L62.50-0.13L62.50-0.13Q62.03-0.31 61.77-0.64L61.77-0.64L61.77-0.64Q61.51-0.96 61.51-1.36L61.51-1.36L61.51-1.45L61.51-1.45Q61.51-1.50 61.54-1.54L61.54-1.54L61.54-1.54Q61.58-1.57 61.63-1.57L61.63-1.57L62.51-1.57L62.51-1.57Q62.56-1.57 62.59-1.54L62.59-1.54L62.59-1.54Q62.63-1.50 62.63-1.45L62.63-1.45L62.63-1.43L62.63-1.43Q62.63-1.18 62.90-0.99L62.90-0.99L62.90-0.99Q63.18-0.81 63.60-0.81L63.60-0.81L63.60-0.81Q64-0.81 64.25-0.97L64.25-0.97L64.25-0.97Q64.50-1.14 64.50-1.39L64.50-1.39L64.50-1.39Q64.50-1.62 64.30-1.74L64.30-1.74L64.30-1.74Q64.09-1.85 63.63-1.98L63.63-1.98L63.25-2.10L63.25-2.10Q62.74-2.25 62.39-2.42L62.39-2.42L62.39-2.42Q62.04-2.59 61.80-2.89L61.80-2.89L61.80-2.89Q61.56-3.18 61.56-3.64L61.56-3.64L61.56-3.64Q61.56-4.34 62.11-4.75L62.11-4.75L62.11-4.75Q62.66-5.17 63.56-5.17L63.56-5.17L63.56-5.17Q64.17-5.17 64.63-4.98L64.63-4.98L64.63-4.98Q65.09-4.78 65.34-4.44L65.34-4.44L65.34-4.44Q65.59-4.09 65.59-3.65L65.59-3.65L65.59-3.65Q65.59-3.60 65.55-3.56L65.55-3.56L65.55-3.56Q65.52-3.53 65.47-3.53L65.47-3.53L64.62-3.53L64.62-3.53Q64.57-3.53 64.53-3.56L64.53-3.56L64.53-3.56Q64.50-3.60 64.50-3.65L64.50-3.65L64.50-3.65Q64.50-3.91 64.24-4.08L64.24-4.08L64.24-4.08Q63.99-4.26 63.55-4.26L63.55-4.26L63.55-4.26Q63.16-4.26 62.91-4.12L62.91-4.12L62.91-4.12Q62.67-3.97 62.67-3.71L62.67-3.71L62.67-3.71Q62.67-3.47 62.90-3.35L62.90-3.35L62.90-3.35Q63.14-3.22 63.69-3.07L63.69-3.07L63.91-3.01L63.91-3.01Q64.44-2.85 64.80-2.69L64.80-2.69L64.80-2.69Q65.16-2.52 65.41-2.23L65.41-2.23L65.41-2.23Q65.66-1.93 65.66-1.46L65.66-1.46L65.66-1.46Q65.66-0.75 65.10-0.35L65.10-0.35L65.10-0.35Q64.54 0.06 63.61 0.06L63.61 0.06Z"></path><path fill="#252530" transform="translate(29.00, 89.5)" d="M2.16 0L2.16 0Q2.05 0 2.02-0.10L2.02-0.10L0.25-6.87L0.24-6.91L0.24-6.91Q0.24-7 0.35-7L0.35-7L1.59-7L1.59-7Q1.69-7 1.72-6.90L1.72-6.90L2.67-2.83L2.67-2.83Q2.68-2.79 2.70-2.79L2.70-2.79L2.70-2.79Q2.72-2.79 2.73-2.83L2.73-2.83L3.65-6.89L3.65-6.89Q3.68-7 3.78-7L3.78-7L4.99-7L4.99-7Q5.10-7 5.13-6.90L5.13-6.90L6.13-2.83L6.13-2.83Q6.14-2.80 6.16-2.79L6.16-2.79L6.16-2.79Q6.18-2.79 6.19-2.83L6.19-2.83L7.11-6.89L7.11-6.89Q7.14-7 7.24-7L7.24-7L8.42-7L8.42-7Q8.56-7 8.53-6.87L8.53-6.87L6.89-0.10L6.89-0.10Q6.86 0 6.75 0L6.75 0L5.56 0L5.56 0Q5.46 0 5.43-0.10L5.43-0.10L4.41-4.43L4.41-4.43Q4.40-4.47 4.38-4.47L4.38-4.47L4.38-4.47Q4.36-4.47 4.35-4.43L4.35-4.43L3.40-0.11L3.40-0.11Q3.38 0 3.27 0L3.27 0L2.16 0ZM9.50 0L9.50 0Q9.45 0 9.41-0.04L9.41-0.04L9.41-0.04Q9.38-0.07 9.38-0.12L9.38-0.12L9.38-6.88L9.38-6.88Q9.38-6.93 9.41-6.96L9.41-6.96L9.41-6.96Q9.45-7 9.50-7L9.50-7L10.67-7L10.67-7Q10.72-7 10.75-6.96L10.75-6.96L10.75-6.96Q10.79-6.93 10.79-6.88L10.79-6.88L10.79-0.12L10.79-0.12Q10.79-0.07 10.75-0.04L10.75-0.04L10.75-0.04Q10.72 0 10.67 0L10.67 0L9.50 0ZM16.03-6.88L16.03-6.88Q16.03-6.93 16.06-6.96L16.06-6.96L16.06-6.96Q16.10-7 16.15-7L16.15-7L17.32-7L17.32-7Q17.37-7 17.40-6.96L17.40-6.96L17.40-6.96Q17.44-6.93 17.44-6.88L17.44-6.88L17.44-0.12L17.44-0.12Q17.44-0.07 17.40-0.04L17.40-0.04L17.40-0.04Q17.37 0 17.32 0L17.32 0L16.19 0L16.19 0Q16.09 0 16.05-0.08L16.05-0.08L13.46-4.36L13.46-4.36Q13.44-4.39 13.42-4.38L13.42-4.38L13.42-4.38Q13.40-4.38 13.40-4.34L13.40-4.34L13.42-0.12L13.42-0.12Q13.42-0.07 13.38-0.04L13.38-0.04L13.38-0.04Q13.35 0 13.30 0L13.30 0L12.13 0L12.13 0Q12.08 0 12.04-0.04L12.04-0.04L12.04-0.04Q12.01-0.07 12.01-0.12L12.01-0.12L12.01-6.88L12.01-6.88Q12.01-6.93 12.04-6.96L12.04-6.96L12.04-6.96Q12.08-7 12.13-7L12.13-7L13.26-7L13.26-7Q13.36-7 13.40-6.92L13.40-6.92L15.98-2.66L15.98-2.66Q16-2.63 16.02-2.64L16.02-2.64L16.02-2.64Q16.04-2.64 16.04-2.68L16.04-2.68L16.03-6.88ZM23.49-7L23.49-7Q23.54-7 23.57-6.96L23.57-6.96L23.57-6.96Q23.61-6.93 23.61-6.88L23.61-6.88L23.61-5.90L23.61-5.90Q23.61-5.85 23.57-5.82L23.57-5.82L23.57-5.82Q23.54-5.78 23.49-5.78L23.49-5.78L21.70-5.78L21.70-5.78Q21.65-5.78 21.65-5.73L21.65-5.73L21.65-0.12L21.65-0.12Q21.65-0.07 21.61-0.04L21.61-0.04L21.61-0.04Q21.58 0 21.53 0L21.53 0L20.36 0L20.36 0Q20.31 0 20.27-0.04L20.27-0.04L20.27-0.04Q20.24-0.07 20.24-0.12L20.24-0.12L20.24-5.73L20.24-5.73Q20.24-5.78 20.19-5.78L20.19-5.78L18.45-5.78L18.45-5.78Q18.40-5.78 18.36-5.82L18.36-5.82L18.36-5.82Q18.33-5.85 18.33-5.90L18.33-5.90L18.33-6.88L18.33-6.88Q18.33-6.93 18.36-6.96L18.36-6.96L18.36-6.96Q18.40-7 18.45-7L18.45-7L23.49-7ZM29.37-5.91L29.37-5.91Q29.37-5.86 29.34-5.83L29.34-5.83L29.34-5.83Q29.30-5.79 29.25-5.79L29.25-5.79L25.97-5.79L25.97-5.79Q25.92-5.79 25.92-5.74L25.92-5.74L25.92-4.19L25.92-4.19Q25.92-4.14 25.97-4.14L25.97-4.14L28.12-4.14L28.12-4.14Q28.17-4.14 28.20-4.11L28.20-4.11L28.20-4.11Q28.24-4.07 28.24-4.02L28.24-4.02L28.24-3.05L28.24-3.05Q28.24-3 28.20-2.96L28.20-2.96L28.20-2.96Q28.17-2.93 28.12-2.93L28.12-2.93L25.97-2.93L25.97-2.93Q25.92-2.93 25.92-2.88L25.92-2.88L25.92-1.26L25.92-1.26Q25.92-1.21 25.97-1.21L25.97-1.21L29.25-1.21L29.25-1.21Q29.30-1.21 29.34-1.18L29.34-1.18L29.34-1.18Q29.37-1.14 29.37-1.09L29.37-1.09L29.37-0.12L29.37-0.12Q29.37-0.07 29.34-0.04L29.34-0.04L29.34-0.04Q29.30 0 29.25 0L29.25 0L24.63 0L24.63 0Q24.58 0 24.54-0.04L24.54-0.04L24.54-0.04Q24.51-0.07 24.51-0.12L24.51-0.12L24.51-6.88L24.51-6.88Q24.51-6.93 24.54-6.96L24.54-6.96L24.54-6.96Q24.58-7 24.63-7L24.63-7L29.25-7L29.25-7Q29.30-7 29.34-6.96L29.34-6.96L29.34-6.96Q29.37-6.93 29.37-6.88L29.37-6.88L29.37-5.91ZM34.19 0L34.19 0Q34.09 0 34.05-0.09L34.05-0.09L32.80-2.86L32.80-2.86Q32.78-2.90 32.74-2.90L32.74-2.90L31.81-2.90L31.81-2.90Q31.76-2.90 31.76-2.85L31.76-2.85L31.76-0.12L31.76-0.12Q31.76-0.07 31.72-0.04L31.72-0.04L31.72-0.04Q31.69 0 31.64 0L31.64 0L30.47 0L30.47 0Q30.42 0 30.38-0.04L30.38-0.04L30.38-0.04Q30.35-0.07 30.35-0.12L30.35-0.12L30.35-6.88L30.35-6.88Q30.35-6.93 30.38-6.96L30.38-6.96L30.38-6.96Q30.42-7 30.47-7L30.47-7L33.33-7L33.33-7Q33.97-7 34.45-6.74L34.45-6.74L34.45-6.74Q34.94-6.48 35.20-6L35.20-6L35.20-6Q35.47-5.52 35.47-4.89L35.47-4.89L35.47-4.89Q35.47-4.21 35.13-3.73L35.13-3.73L35.13-3.73Q34.79-3.24 34.18-3.04L34.18-3.04L34.18-3.04Q34.13-3.02 34.15-2.97L34.15-2.97L35.51-0.14L35.51-0.14Q35.53-0.10 35.53-0.08L35.53-0.08L35.53-0.08Q35.53 0 35.42 0L35.42 0L34.19 0ZM31.81-5.79L31.81-5.79Q31.76-5.79 31.76-5.74L31.76-5.74L31.76-4.03L31.76-4.03Q31.76-3.98 31.81-3.98L31.81-3.98L33.12-3.98L33.12-3.98Q33.54-3.98 33.80-4.23L33.80-4.23L33.80-4.23Q34.07-4.48 34.07-4.88L34.07-4.88L34.07-4.88Q34.07-5.28 33.80-5.54L33.80-5.54L33.80-5.54Q33.54-5.79 33.12-5.79L33.12-5.79L31.81-5.79Z"></path><path fill="#252530" transform="translate(36.68, 98.9)" d="M2.33-1.27L2.33-1.27Q2.31-1.25 2.32-1.23L2.32-1.23L2.32-1.23Q2.33-1.21 2.36-1.21L2.36-1.21L5.07-1.21L5.07-1.21Q5.12-1.21 5.16-1.18L5.16-1.18L5.16-1.18Q5.19-1.14 5.19-1.09L5.19-1.09L5.19-0.12L5.19-0.12Q5.19-0.07 5.16-0.04L5.16-0.04L5.16-0.04Q5.12 0 5.07 0L5.07 0L0.57 0L0.57 0Q0.52 0 0.48-0.04L0.48-0.04L0.48-0.04Q0.45-0.07 0.45-0.12L0.45-0.12L0.45-1.04L0.45-1.04Q0.45-1.13 0.51-1.19L0.51-1.19L0.51-1.19Q1-1.67 1.51-2.23L1.51-2.23L1.51-2.23Q2.02-2.80 2.15-2.94L2.15-2.94L2.15-2.94Q2.43-3.27 2.72-3.57L2.72-3.57L2.72-3.57Q3.63-4.58 3.63-5.07L3.63-5.07L3.63-5.07Q3.63-5.42 3.38-5.65L3.38-5.65L3.38-5.65Q3.13-5.87 2.73-5.87L2.73-5.87L2.73-5.87Q2.33-5.87 2.08-5.65L2.08-5.65L2.08-5.65Q1.83-5.42 1.83-5.05L1.83-5.05L1.83-4.80L1.83-4.80Q1.83-4.75 1.79-4.71L1.79-4.71L1.79-4.71Q1.76-4.68 1.71-4.68L1.71-4.68L0.53-4.68L0.53-4.68Q0.48-4.68 0.45-4.71L0.45-4.71L0.45-4.71Q0.41-4.75 0.41-4.80L0.41-4.80L0.41-5.27L0.41-5.27Q0.44-5.81 0.75-6.23L0.75-6.23L0.75-6.23Q1.06-6.64 1.57-6.86L1.57-6.86L1.57-6.86Q2.09-7.08 2.73-7.08L2.73-7.08L2.73-7.08Q3.44-7.08 3.97-6.82L3.97-6.82L3.97-6.82Q4.49-6.55 4.78-6.10L4.78-6.10L4.78-6.10Q5.06-5.65 5.06-5.10L5.06-5.10L5.06-5.10Q5.06-4.68 4.85-4.24L4.85-4.24L4.85-4.24Q4.64-3.80 4.22-3.29L4.22-3.29L4.22-3.29Q3.91-2.90 3.55-2.52L3.55-2.52L3.55-2.52Q3.19-2.14 2.48-1.42L2.48-1.42L2.33-1.27ZM8.44 0.11L8.44 0.11Q7.34 0.11 6.70-0.51L6.70-0.51L6.70-0.51Q6.06-1.12 6.06-2.18L6.06-2.18L6.06-4.82L6.06-4.82Q6.06-5.86 6.70-6.47L6.70-6.47L6.70-6.47Q7.34-7.08 8.44-7.08L8.44-7.08L8.44-7.08Q9.54-7.08 10.19-6.47L10.19-6.47L10.19-6.47Q10.83-5.86 10.83-4.82L10.83-4.82L10.83-2.18L10.83-2.18Q10.83-1.12 10.19-0.51L10.19-0.51L10.19-0.51Q9.54 0.11 8.44 0.11L8.44 0.11ZM8.44-1.10L8.44-1.10Q8.89-1.10 9.16-1.38L9.16-1.38L9.16-1.38Q9.42-1.65 9.42-2.11L9.42-2.11L9.42-4.86L9.42-4.86Q9.42-5.32 9.16-5.59L9.16-5.59L9.16-5.59Q8.89-5.87 8.44-5.87L8.44-5.87L8.44-5.87Q8-5.87 7.74-5.59L7.74-5.59L7.74-5.59Q7.47-5.32 7.47-4.86L7.47-4.86L7.47-2.11L7.47-2.11Q7.47-1.65 7.74-1.38L7.74-1.38L7.74-1.38Q8-1.10 8.44-1.10L8.44-1.10ZM13.63-1.27L13.63-1.27Q13.61-1.25 13.62-1.23L13.62-1.23L13.62-1.23Q13.63-1.21 13.66-1.21L13.66-1.21L16.37-1.21L16.37-1.21Q16.42-1.21 16.46-1.18L16.46-1.18L16.46-1.18Q16.49-1.14 16.49-1.09L16.49-1.09L16.49-0.12L16.49-0.12Q16.49-0.07 16.46-0.04L16.46-0.04L16.46-0.04Q16.42 0 16.37 0L16.37 0L11.87 0L11.87 0Q11.82 0 11.79-0.04L11.79-0.04L11.79-0.04Q11.75-0.07 11.75-0.12L11.75-0.12L11.75-1.04L11.75-1.04Q11.75-1.13 11.81-1.19L11.81-1.19L11.81-1.19Q12.30-1.67 12.81-2.23L12.81-2.23L12.81-2.23Q13.32-2.80 13.45-2.94L13.45-2.94L13.45-2.94Q13.73-3.27 14.02-3.57L14.02-3.57L14.02-3.57Q14.93-4.58 14.93-5.07L14.93-5.07L14.93-5.07Q14.93-5.42 14.68-5.65L14.68-5.65L14.68-5.65Q14.43-5.87 14.03-5.87L14.03-5.87L14.03-5.87Q13.63-5.87 13.38-5.65L13.38-5.65L13.38-5.65Q13.13-5.42 13.13-5.05L13.13-5.05L13.13-4.80L13.13-4.80Q13.13-4.75 13.10-4.71L13.10-4.71L13.10-4.71Q13.06-4.68 13.01-4.68L13.01-4.68L11.83-4.68L11.83-4.68Q11.78-4.68 11.75-4.71L11.75-4.71L11.75-4.71Q11.71-4.75 11.71-4.80L11.71-4.80L11.71-5.27L11.71-5.27Q11.74-5.81 12.05-6.23L12.05-6.23L12.05-6.23Q12.36-6.64 12.88-6.86L12.88-6.86L12.88-6.86Q13.39-7.08 14.03-7.08L14.03-7.08L14.03-7.08Q14.74-7.08 15.27-6.82L15.27-6.82L15.27-6.82Q15.79-6.55 16.08-6.10L16.08-6.10L16.08-6.10Q16.36-5.65 16.36-5.10L16.36-5.10L16.36-5.10Q16.36-4.68 16.15-4.24L16.15-4.24L16.15-4.24Q15.94-3.80 15.52-3.29L15.52-3.29L15.52-3.29Q15.21-2.90 14.85-2.52L14.85-2.52L14.85-2.52Q14.49-2.14 13.78-1.42L13.78-1.42L13.63-1.27ZM18.34-6.97L18.34-6.97Q18.39-7 18.49-7L18.49-7L19.70-7L19.70-7Q19.75-7 19.79-6.96L19.79-6.96L19.79-6.96Q19.82-6.93 19.82-6.88L19.82-6.88L19.82-0.12L19.82-0.12Q19.82-0.07 19.79-0.04L19.79-0.04L19.79-0.04Q19.75 0 19.70 0L19.70 0L18.53 0L18.53 0Q18.48 0 18.45-0.04L18.45-0.04L18.45-0.04Q18.41-0.07 18.41-0.12L18.41-0.12L18.41-5.60L18.41-5.60Q18.41-5.62 18.39-5.64L18.39-5.64L18.39-5.64Q18.37-5.66 18.35-5.65L18.35-5.65L17.36-5.38L17.32-5.37L17.32-5.37Q17.23-5.37 17.23-5.48L17.23-5.48L17.20-6.34L17.20-6.34Q17.20-6.44 17.29-6.48L17.29-6.48L18.34-6.97Z"></path></g></svg>